<svg width="260" height="82" viewBox="0 0 260 82" fill="none" xmlns="http://www.w3.org/2000/svg">
<path d="M251.875 81.25H8.125C3.65625 81.25 0 77.5938 0 73.125V8.125C0 3.65625 3.65625 0 8.125 0H251.875C256.344 0 260 3.65625 260 8.125V73.125C260 77.5938 256.344 81.25 251.875 81.25Z" fill="black"/>
<path d="M54.8439 40.2188C54.8439 33.9219 60.1252 30.875 60.3283 30.6719C57.2814 26.4063 52.8127 25.7969 51.1877 25.5938C47.3283 25.1875 43.4689 27.8281 41.6408 27.8281C39.6096 27.8281 36.5627 25.5938 33.3127 25.5938C29.0471 25.5938 25.1877 28.0313 22.9533 31.8906C18.4846 39.6094 21.7346 50.9844 26.0002 57.2813C28.2346 60.3281 30.6721 63.7813 33.9221 63.5781C37.1721 63.375 38.3908 61.5469 42.2502 61.5469C46.1096 61.5469 47.1252 63.5781 50.5783 63.5781C54.0314 63.5781 56.2658 60.5313 58.2971 57.4844C60.7346 54.0313 61.7502 50.5781 61.7502 50.375C61.5471 50.1719 54.8439 47.7344 54.8439 40.2188Z" fill="white"/>
<path d="M48.5467 21.5312C50.1717 19.2969 51.3904 16.4531 51.1873 13.4062C48.7498 13.6094 45.4998 15.0312 43.8748 17.2656C42.2498 19.0937 40.8279 22.1406 41.2342 24.9844C43.8748 25.1875 46.7186 23.5625 48.5467 21.5312Z" fill="white"/>
<path d="M101.156 63.1719H96.6875L94.25 55.4531H85.7188L83.4844 63.1719H79.2188L87.75 36.9688H93.0313L101.156 63.1719ZM93.4375 52.2031L91.2031 45.2969C91 44.6875 90.5938 42.8594 89.7813 40.4219C89.5781 41.4375 89.1719 43.2656 88.5625 45.2969L86.3281 52.2031H93.4375Z" fill="white"/>
<path d="M122.891 53.625C122.891 56.875 122.078 59.3125 120.25 61.3438C118.625 62.9688 116.797 63.7813 114.359 63.7813C111.922 63.7813 110.094 62.9687 109.078 61.1406V71.0937H104.813V50.7812C104.813 48.75 104.812 46.7188 104.609 44.4844H108.266L108.469 47.5313C109.891 45.2969 111.922 44.0781 114.766 44.0781C117 44.0781 118.828 44.8906 120.25 46.7187C122.078 48.3437 122.891 50.5781 122.891 53.625ZM118.625 53.625C118.625 51.7969 118.219 50.1719 117.406 49.1562C116.594 47.9375 115.375 47.3281 113.75 47.3281C112.734 47.3281 111.719 47.7344 110.906 48.3437C110.094 48.9531 109.484 49.9687 109.281 50.9844C109.078 51.5937 109.078 52 109.078 52.2031V55.4531C109.078 56.875 109.484 57.8906 110.297 58.9062C111.109 59.9219 112.328 60.3281 113.547 60.3281C115.172 60.3281 116.391 59.7187 117.203 58.5C118.219 57.2812 118.625 55.6563 118.625 53.625Z" fill="white"/>
<path d="M144.625 53.625C144.625 56.875 143.813 59.3125 141.984 61.3438C140.359 62.9688 138.531 63.7813 136.094 63.7813C133.656 63.7813 131.828 62.9687 130.812 61.1406V71.0937H126.547V50.7812C126.547 48.75 126.547 46.7188 126.344 44.4844H130L130.203 47.5313C131.625 45.2969 133.656 44.0781 136.5 44.0781C138.734 44.0781 140.563 44.8906 141.984 46.7187C143.813 48.3437 144.625 50.5781 144.625 53.625ZM140.359 53.625C140.359 51.7969 139.953 50.1719 139.141 49.1562C138.328 47.9375 137.109 47.3281 135.484 47.3281C134.469 47.3281 133.453 47.7344 132.641 48.3437C131.828 48.9531 131.219 49.9687 131.016 50.9844C130.812 51.5937 130.812 52 130.812 52.2031V55.4531C130.812 56.875 131.219 57.8906 132.031 58.9062C132.844 59.9219 134.063 60.3281 135.281 60.3281C136.906 60.3281 138.125 59.7187 138.938 58.5C139.953 57.2812 140.359 55.6563 140.359 53.625Z" fill="white"/>
<path d="M169 55.8594C169 58.0937 168.188 59.9219 166.766 61.3437C165.141 62.9687 162.703 63.5781 159.656 63.5781C156.813 63.5781 154.578 62.9687 152.953 61.9531L153.969 58.5C155.797 59.5156 157.828 60.125 160.063 60.125C161.688 60.125 162.906 59.7187 163.719 59.1094C164.531 58.2969 164.938 57.4844 164.938 56.2656C164.938 55.25 164.531 54.2344 163.922 53.625C163.109 52.8125 161.891 52.2031 160.266 51.5938C155.594 49.9688 153.359 47.3281 153.359 44.0781C153.359 41.8438 154.172 40.2187 155.797 38.7969C157.422 37.375 159.453 36.7656 162.297 36.7656C164.734 36.7656 166.563 37.1719 168.188 37.9844L167.172 41.4375C165.75 40.625 164.125 40.2188 162.094 40.2188C160.672 40.2188 159.453 40.625 158.641 41.2344C158.031 41.8438 157.625 42.6563 157.625 43.6719C157.625 44.6875 158.031 45.5 158.844 46.3125C159.453 46.9219 160.875 47.5312 162.703 48.3437C164.938 49.1562 166.563 50.375 167.781 51.5938C168.391 52.6094 169 54.0312 169 55.8594Z" fill="white"/>
<path d="M182.813 47.5313H178.141V56.6719C178.141 58.9063 178.953 60.125 180.578 60.125C181.391 60.125 182 60.125 182.406 59.9219L182.609 63.1719C181.797 63.5781 180.781 63.5781 179.359 63.5781C177.734 63.5781 176.313 63.1719 175.5 62.1562C174.484 61.1406 174.078 59.5156 174.078 57.0781V47.5313H171.234V44.2812H174.078V40.8281L178.141 39.6094V44.2812H182.813V47.5313Z" fill="white"/>
<path d="M203.734 53.625C203.734 56.4687 202.922 58.9062 201.297 60.7344C199.469 62.5625 197.234 63.5781 194.391 63.5781C191.547 63.5781 189.313 62.5625 187.688 60.7344C186.063 58.9062 185.25 56.6719 185.25 53.8281C185.25 50.9844 186.063 48.5469 187.891 46.7188C189.516 44.8906 191.953 43.875 194.797 43.875C197.641 43.875 199.875 44.8906 201.5 46.7188C202.922 48.5469 203.734 50.7813 203.734 53.625ZM199.266 53.8281C199.266 52 198.859 50.5781 198.047 49.3594C197.234 47.9375 195.813 47.125 194.188 47.125C192.563 47.125 191.141 47.9375 190.328 49.3594C189.516 50.5781 189.109 52.2031 189.109 53.8281C189.109 55.6562 189.516 57.0781 190.328 58.2969C191.141 59.7187 192.563 60.5312 194.188 60.5312C195.813 60.5312 197.031 59.7187 198.047 58.2969C198.859 57.0781 199.266 55.4531 199.266 53.8281Z" fill="white"/>
<path d="M217.344 47.9375C216.937 47.9375 216.531 47.7344 215.922 47.7344C214.5 47.7344 213.281 48.3437 212.469 49.3594C211.859 50.375 211.453 51.5937 211.453 53.0156V62.9688H207.187V49.9687C207.187 47.7344 207.188 45.9063 206.984 44.0781H210.641L210.844 47.7344H211.047C211.453 46.5156 212.266 45.5 213.078 44.6875C214.094 44.0781 215.109 43.6719 216.125 43.6719C216.531 43.6719 216.938 43.6719 217.141 43.6719V47.9375H217.344Z" fill="white"/>
<path d="M236.031 52.8125C236.031 53.625 236.031 54.2344 235.828 54.6406H223.234C223.234 56.4687 223.844 57.8906 225.062 58.9062C226.078 59.7187 227.5 60.3281 229.125 60.3281C230.953 60.3281 232.781 60.125 234.203 59.5156L234.813 62.3594C232.984 63.1719 230.953 63.5781 228.516 63.5781C225.672 63.5781 223.234 62.7656 221.609 60.9375C219.984 59.3125 219.172 56.875 219.172 54.0312C219.172 51.1875 219.984 48.75 221.406 46.9219C223.031 44.8906 225.266 43.875 228.109 43.875C230.75 43.875 232.984 44.8906 234.203 46.9219C235.625 48.5469 236.031 50.5781 236.031 52.8125ZM232.172 51.7969C232.172 50.5781 231.969 49.5625 231.359 48.5469C230.547 47.3281 229.531 46.7188 228.109 46.7188C226.687 46.7188 225.672 47.3281 224.859 48.3437C224.25 49.1562 223.844 50.375 223.641 51.5938H232.172V51.7969Z" fill="white"/>
<path d="M92.2188 20.9219C92.2188 23.1562 91.6094 24.9844 90.1875 26.2031C88.9687 27.2187 87.1406 27.8281 84.7031 27.8281C83.4844 27.8281 82.4688 27.8281 81.6562 27.625V15.0313C82.6719 14.8281 83.8906 14.8281 85.3125 14.8281C87.5469 14.8281 89.1719 15.2344 90.3906 16.25C91.4062 17.2656 92.2188 18.8906 92.2188 20.9219ZM89.9844 20.9219C89.9844 19.5 89.5781 18.2813 88.7656 17.4688C87.9531 16.6563 86.7344 16.25 85.3125 16.25C84.7031 16.25 84.0938 16.25 83.6875 16.4531V26C83.8906 26 84.5 26 85.1094 26C86.7344 26 87.9531 25.5938 88.7656 24.7813C89.5781 23.9688 89.9844 22.5469 89.9844 20.9219Z" fill="white"/>
<path d="M103.594 22.9531C103.594 24.375 103.188 25.5937 102.375 26.4062C101.563 27.4219 100.344 27.8281 98.9219 27.8281C97.5 27.8281 96.4844 27.4219 95.6719 26.4062C94.8594 25.5937 94.4531 24.375 94.4531 22.9531C94.4531 21.5312 94.8594 20.3125 95.6719 19.5C96.4844 18.4844 97.7031 18.0781 99.125 18.0781C100.547 18.0781 101.563 18.4844 102.375 19.5C103.188 20.3125 103.594 21.5312 103.594 22.9531ZM101.562 22.9531C101.562 22.1406 101.359 21.3281 100.953 20.7188C100.547 19.9063 99.9375 19.7031 99.125 19.7031C98.3125 19.7031 97.7031 20.1094 97.2969 20.7188C96.8906 21.3281 96.6875 22.1406 96.6875 22.9531C96.6875 23.7656 96.8906 24.5781 97.2969 25.1875C97.7031 26 98.3125 26.2031 99.125 26.2031C99.9375 26.2031 100.547 25.7969 100.953 24.9844C101.359 24.5781 101.562 23.7656 101.562 22.9531Z" fill="white"/>
<path d="M119.234 18.2812L116.391 27.625H114.563L113.344 23.5625C112.938 22.5469 112.734 21.5313 112.531 20.5156C112.328 21.5313 112.125 22.5469 111.719 23.5625L110.5 27.625H108.672L105.625 18.2812H107.656L108.672 22.75C108.875 23.7656 109.078 24.7813 109.281 25.7969C109.484 24.9844 109.688 23.9688 110.094 22.75L111.313 18.2812H112.938L114.156 22.5469C114.563 23.5625 114.766 24.5781 114.969 25.5938C115.172 24.5781 115.375 23.5625 115.578 22.5469L116.797 18.2812H119.234Z" fill="white"/>
<path d="M129.797 27.625H127.766V22.3438C127.766 20.7188 127.156 19.9063 125.938 19.9063C125.328 19.9063 124.922 20.1094 124.516 20.5156C124.109 20.9219 123.906 21.5313 123.906 22.1406V27.625H121.875V20.9219C121.875 20.1094 121.875 19.2969 121.875 18.2813H123.703V19.7031C123.906 19.2969 124.313 18.8906 124.719 18.4844C125.328 18.0781 125.938 17.875 126.547 17.875C127.359 17.875 128.172 18.0781 128.781 18.6875C129.594 19.2969 129.797 20.3125 129.797 21.7344V27.625Z" fill="white"/>
<path d="M135.484 27.625H133.453V14.0156H135.484V27.625Z" fill="white"/>
<path d="M147.672 22.9531C147.672 24.375 147.266 25.5937 146.453 26.4062C145.641 27.4219 144.422 27.8281 143 27.8281C141.578 27.8281 140.562 27.4219 139.75 26.4062C138.937 25.5937 138.531 24.375 138.531 22.9531C138.531 21.5312 138.937 20.3125 139.75 19.5C140.562 18.6875 141.781 18.0781 143.203 18.0781C144.625 18.0781 145.641 18.4844 146.453 19.5C147.266 20.3125 147.672 21.5312 147.672 22.9531ZM145.641 22.9531C145.641 22.1406 145.437 21.3281 145.031 20.7188C144.625 19.9063 144.016 19.7031 143.203 19.7031C142.391 19.7031 141.781 20.1094 141.375 20.7188C140.969 21.3281 140.766 22.1406 140.766 22.9531C140.766 23.7656 140.969 24.5781 141.375 25.1875C141.781 26 142.391 26.2031 143.203 26.2031C144.016 26.2031 144.625 25.7969 145.031 24.9844C145.437 24.5781 145.641 23.7656 145.641 22.9531Z" fill="white"/>
<path d="M157.625 27.625H155.797L155.594 26.6094C154.984 27.4219 153.969 27.8281 152.953 27.8281C152.141 27.8281 151.328 27.625 150.922 27.0156C150.516 26.4062 150.109 25.7969 150.109 25.1875C150.109 23.9687 150.516 23.1563 151.531 22.5469C152.547 21.9375 153.766 21.7344 155.594 21.7344V21.5313C155.594 20.3125 154.984 19.7031 153.766 19.7031C152.75 19.7031 152.141 19.9063 151.328 20.3125L150.922 18.8906C151.734 18.2812 152.75 18.0781 154.172 18.0781C156.609 18.0781 157.828 19.2969 157.828 21.9375V25.3906C157.625 26.4062 157.625 27.0156 157.625 27.625ZM155.594 24.375V22.9531C153.359 22.9531 152.141 23.5625 152.141 24.7813C152.141 25.1875 152.344 25.5938 152.547 25.7969C152.75 26 153.156 26.2031 153.563 26.2031C153.969 26.2031 154.375 26 154.781 25.7969C155.188 25.5938 155.391 25.1875 155.594 24.7813C155.594 24.7813 155.594 24.5781 155.594 24.375Z" fill="white"/>
<path d="M169.406 27.625H167.578V26.2031C166.969 27.4219 165.953 27.8281 164.531 27.8281C163.312 27.8281 162.5 27.4219 161.687 26.6094C160.875 25.7969 160.672 24.5781 160.672 23.1562C160.672 21.7344 161.078 20.5156 161.891 19.5C162.703 18.6875 163.719 18.2812 164.734 18.2812C165.953 18.2812 166.766 18.6875 167.375 19.5V14.2188H169.406V25.1875C169.406 26 169.406 26.8125 169.406 27.625ZM167.375 23.7656V22.1406C167.375 21.9375 167.375 21.7344 167.375 21.5312C167.172 21.125 166.969 20.7187 166.562 20.3125C166.156 19.9062 165.75 19.9062 165.141 19.9062C164.328 19.9062 163.719 20.3125 163.312 20.9219C162.906 21.5312 162.703 22.3437 162.703 23.3594C162.703 24.375 162.906 24.9844 163.312 25.5937C163.719 26.2031 164.328 26.6094 165.141 26.6094C165.75 26.6094 166.359 26.4062 166.766 25.7969C167.172 24.9844 167.375 24.375 167.375 23.7656Z" fill="white"/>
<path d="M187.078 22.9531C187.078 24.375 186.672 25.5937 185.859 26.4062C185.047 27.4219 183.828 27.8281 182.406 27.8281C180.984 27.8281 179.969 27.4219 179.156 26.4062C178.344 25.5937 177.938 24.375 177.938 22.9531C177.938 21.5312 178.344 20.3125 179.156 19.5C179.969 18.4844 181.188 18.0781 182.609 18.0781C184.031 18.0781 185.047 18.4844 185.859 19.5C186.672 20.3125 187.078 21.5312 187.078 22.9531ZM184.844 22.9531C184.844 22.1406 184.641 21.3281 184.234 20.7188C183.828 19.9063 183.219 19.7031 182.406 19.7031C181.594 19.7031 180.984 20.1094 180.578 20.7188C180.172 21.3281 179.969 22.1406 179.969 22.9531C179.969 23.7656 180.172 24.5781 180.578 25.1875C180.984 26 181.594 26.2031 182.406 26.2031C183.219 26.2031 183.828 25.7969 184.234 24.9844C184.641 24.5781 184.844 23.7656 184.844 22.9531Z" fill="white"/>
<path d="M198.25 27.625H196.219V22.3438C196.219 20.7188 195.609 19.9063 194.391 19.9063C193.781 19.9063 193.375 20.1094 192.969 20.5156C192.563 20.9219 192.359 21.5313 192.359 22.1406V27.625H190.328V20.9219C190.328 20.1094 190.328 19.2969 190.328 18.2813H192.156V19.7031C192.359 19.2969 192.766 18.8906 193.172 18.4844C193.781 18.0781 194.391 17.875 195 17.875C195.813 17.875 196.625 18.0781 197.234 18.6875C198.047 19.2969 198.25 20.3125 198.25 21.7344V27.625Z" fill="white"/>
<path d="M212.063 19.9062H209.828V24.375C209.828 25.5937 210.234 26 211.047 26C211.453 26 211.656 26 212.063 26V27.625C211.656 27.8281 211.047 27.8281 210.438 27.8281C209.625 27.8281 209.016 27.625 208.609 27.0156C208.203 26.6094 208 25.5937 208 24.5781V19.9062H206.578V18.2813H208V16.6563L210.031 16.0469V18.2813H212.266V19.9062H212.063Z" fill="white"/>
<path d="M223.031 27.625H221V22.3438C221 20.7188 220.391 19.9062 219.172 19.9062C218.156 19.9062 217.547 20.3125 217.141 21.3281C217.141 21.5313 217.141 21.7344 217.141 22.1406V27.625H215.109V14.0156H217.141V19.7031C217.75 18.6875 218.766 18.0781 219.984 18.0781C220.797 18.0781 221.609 18.2812 222.016 18.8906C222.625 19.5 223.031 20.7188 223.031 21.9375V27.625Z" fill="white"/>
<path d="M234.203 22.5469C234.203 22.9531 234.203 23.1562 234.203 23.5625H228.109C228.109 24.5781 228.516 25.1875 228.922 25.5938C229.531 26 230.141 26.2031 230.953 26.2031C231.969 26.2031 232.781 26 233.391 25.7969L233.797 27.2188C232.984 27.625 231.969 27.8281 230.75 27.8281C229.328 27.8281 228.109 27.4219 227.297 26.6094C226.484 25.7969 226.078 24.5781 226.078 23.1562C226.078 21.7344 226.484 20.5156 227.297 19.7031C228.109 18.6875 229.125 18.2812 230.547 18.2812C231.969 18.2812 232.984 18.6875 233.594 19.7031C234 20.3125 234.203 21.3281 234.203 22.5469ZM232.375 21.9375C232.375 21.3281 232.172 20.7187 231.969 20.3125C231.562 19.7031 231.156 19.5 230.344 19.5C229.734 19.5 229.125 19.7031 228.719 20.3125C228.313 20.7187 228.109 21.3281 228.109 21.9375H232.375Z" fill="white"/>
</svg>
