<svg width="123" height="122" viewBox="0 0 123 122" fill="none" xmlns="http://www.w3.org/2000/svg">
<circle cx="61.5" cy="60.5213" r="60" transform="rotate(0.5 61.5 60.5213)" fill="url(#paint0_linear_829_15261)" fill-opacity="0.1"/>
<circle cx="61.5" cy="60.5215" r="44.858" transform="rotate(0.5 61.5 60.5215)" fill="url(#paint1_linear_829_15261)" fill-opacity="0.22"/>
<circle cx="61.5001" cy="60.5211" r="27.4208" transform="rotate(0.5 61.5001 60.5211)" fill="#23E9B4"/>
<path d="M58.0279 68.7909L58.0278 68.7909L50.7696 62.8798L50.7668 62.8774C49.815 62.0984 49.6734 60.6964 50.4494 59.7428L51.6129 60.6895L50.4494 59.7428C51.2256 58.7889 52.6273 58.6429 53.5833 59.4165L53.587 59.4195L53.587 59.4195L59.2029 63.9933L69.591 52.5103C69.5911 52.5101 69.5912 52.51 69.5913 52.5099C70.4176 51.5963 71.8281 51.5253 72.7419 52.3515C73.6559 53.1777 73.7269 54.5885 72.9007 55.5024L72.9004 55.5028L61.0918 68.5563C61.0916 68.5565 61.0915 68.5566 61.0914 68.5568C61.0912 68.5569 61.0911 68.5571 61.091 68.5572C60.6632 69.0303 60.0532 69.2978 59.415 69.2916M58.0279 68.7909L58.4126 67.2188L58.951 67.6573L59.4272 68.0451L59.415 69.2916M58.0279 68.7909C58.4199 69.1102 58.909 69.2869 59.415 69.2916M58.0279 68.7909L59.4276 68.0454L59.4173 69.2916C59.4165 69.2916 59.4158 69.2916 59.415 69.2916M70.7037 53.5162L70.6753 53.4905L70.7037 53.5162Z" fill="white" stroke="white" stroke-width="3"/>
<defs>
<linearGradient id="paint0_linear_829_15261" x1="96.7436" y1="2.92819" x2="1.5" y2="106.94" gradientUnits="userSpaceOnUse">
<stop stop-color="#23E9B4"/>
<stop offset="1" stop-color="#23E9B4" stop-opacity="0"/>
</linearGradient>
<linearGradient id="paint1_linear_829_15261" x1="87.8493" y1="17.4629" x2="16.642" y2="95.2254" gradientUnits="userSpaceOnUse">
<stop stop-color="#23E9B4"/>
<stop offset="1" stop-color="#23E9B4" stop-opacity="0"/>
</linearGradient>
</defs>
</svg>
