<svg width="160" height="84" viewBox="0 0 160 84" fill="none" xmlns="http://www.w3.org/2000/svg">
<g opacity="0.8">
<path opacity="0.12" fill-rule="evenodd" clip-rule="evenodd" d="M34.0741 70.9533H101.481C101.863 70.9533 102.235 70.9137 102.593 70.8385C102.951 70.9137 103.322 70.9533 103.704 70.9533H142.222C145.086 70.9533 147.407 68.7189 147.407 65.9626C147.407 63.2063 145.086 60.9718 142.222 60.9718H137.778C134.914 60.9718 132.593 58.7374 132.593 55.9811C132.593 53.2248 134.914 50.9903 137.778 50.9903H151.852C154.716 50.9903 157.037 48.7559 157.037 45.9996C157.037 43.2433 154.716 41.0089 151.852 41.0089H135.556C138.419 41.0089 140.741 38.7744 140.741 36.0181C140.741 33.2618 138.419 31.0274 135.556 31.0274H88.1481C91.0118 31.0274 93.3333 28.7929 93.3333 26.0366C93.3333 23.2803 91.0118 21.0459 88.1481 21.0459H45.9259C43.0622 21.0459 40.7407 23.2803 40.7407 26.0366C40.7407 28.7929 43.0622 31.0274 45.9259 31.0274H16.2963C13.4326 31.0274 11.1111 33.2618 11.1111 36.0181C11.1111 38.7744 13.4326 41.0089 16.2963 41.0089H34.8148C37.6785 41.0089 40 43.2433 40 45.9996C40 48.7559 37.6785 50.9903 34.8148 50.9903H5.18518C2.32149 50.9903 0 53.2248 0 55.9811C0 58.7374 2.32149 60.9718 5.18518 60.9718H34.0741C31.2104 60.9718 28.8889 63.2063 28.8889 65.9626C28.8889 68.7189 31.2104 70.9533 34.0741 70.9533ZM154.815 70.9533C157.679 70.9533 160 68.7189 160 65.9626C160 63.2063 157.679 60.9718 154.815 60.9718C151.951 60.9718 149.63 63.2063 149.63 65.9626C149.63 68.7189 151.951 70.9533 154.815 70.9533Z" fill="#F8A730"/>
<path d="M55.1832 6.47102L54.25 7.30273H54.25L55.1832 6.47102ZM66.2828 18.9241L67.2159 18.0924L66.2828 18.9241ZM66.1813 20.689L67.0131 21.6221L67.0131 21.6221L66.1813 20.689ZM64.4165 20.5876L63.4833 21.4193H63.4833L64.4165 20.5876ZM53.3169 8.13445L54.25 7.30273L54.25 7.30273L53.3169 8.13445ZM107.181 6.3696L108.013 5.43646L108.013 5.43645L107.181 6.3696ZM105.416 6.47102L104.483 5.6393L104.483 5.6393L105.416 6.47102ZM107.283 8.13445L108.216 8.96617V8.96617L107.283 8.13445ZM96.1832 20.5876L97.1163 21.4193L97.1163 21.4193L96.1832 20.5876ZM94.4183 20.689L93.5866 21.6221L93.5866 21.6221L94.4183 20.689ZM94.3169 18.9241L93.3837 18.0924V18.0924L94.3169 18.9241ZM82.8496 3C82.8496 1.61929 81.7303 0.5 80.3496 0.5V3H82.8496ZM82.8496 19.7559V3H80.3496V19.7559H82.8496ZM80.3496 22.2559C81.7303 22.2559 82.8496 21.1366 82.8496 19.7559H80.3496V22.2559ZM77.8496 19.7559C77.8496 21.1366 78.9689 22.2559 80.3496 22.2559V19.7559H77.8496ZM77.8496 3V19.7559H80.3496V3H77.8496ZM80.3496 0.5C78.9689 0.5 77.8496 1.61929 77.8496 3H80.3496V0.5ZM56.1163 5.6393C55.1976 4.60858 53.6173 4.51777 52.5866 5.43646L54.25 7.30273H54.25L56.1163 5.6393ZM67.2159 18.0924L56.1163 5.6393L54.25 7.30273L65.3496 19.7559L67.2159 18.0924ZM67.0131 21.6221C68.0438 20.7034 68.1346 19.1231 67.2159 18.0924L65.3496 19.7559L65.3496 19.7559L67.0131 21.6221ZM63.4833 21.4193C64.402 22.45 65.9823 22.5408 67.0131 21.6221L65.3496 19.7559H65.3496L63.4833 21.4193ZM52.3837 8.96617L63.4833 21.4193L65.3496 19.7559L54.25 7.30273L52.3837 8.96617ZM52.5866 5.43646C51.5559 6.35515 51.465 7.93545 52.3837 8.96617L54.25 7.30273L54.25 7.30273L52.5866 5.43646ZM108.013 5.43645C106.982 4.51777 105.402 4.60858 104.483 5.6393L106.35 7.30274L106.35 7.30274L108.013 5.43645ZM108.216 8.96617C109.135 7.93545 109.044 6.35515 108.013 5.43646L106.35 7.30273V7.30274L108.216 8.96617ZM97.1163 21.4193L108.216 8.96617L106.35 7.30273L95.25 19.7559L97.1163 21.4193ZM93.5866 21.6221C94.6173 22.5408 96.1976 22.45 97.1163 21.4193L95.25 19.7559L95.25 19.7559L93.5866 21.6221ZM93.3837 18.0924C92.465 19.1231 92.5559 20.7034 93.5866 21.6221L95.25 19.7559L95.25 19.7559L93.3837 18.0924ZM104.483 5.6393L93.3837 18.0924L95.25 19.7559L106.35 7.30273L104.483 5.6393Z" fill="#F8A730"/>
<g clip-path="url(#clip0_2273_15589)">
<path d="M119.693 52.1037L106.483 23.4803C104.853 19.9503 101.29 17.667 97.4 17.667H62.6C58.71 17.667 55.1467 19.9503 53.52 23.477L40.3067 52.1037C40.1033 52.5403 40 53.017 40 53.5003V74.3337C40 79.847 44.4867 84.3337 50 84.3337H110C115.513 84.3337 120 79.847 120 74.3337V53.5003C120 53.017 119.897 52.5403 119.693 52.1037ZM59.5733 26.2703C60.1167 25.0937 61.3033 24.3337 62.6 24.3337H97.4C98.6967 24.3337 99.8833 25.0937 100.427 26.2703L111.84 51.0003H104.977C102.383 51.0003 100.137 52.6703 99.39 55.157L95.8133 67.0737C95.71 67.427 95.39 67.667 95.02 67.667H64.98C64.61 67.667 64.29 67.427 64.1833 67.0703L60.6067 55.157C59.86 52.6703 57.6167 51.0003 55.02 51.0003H48.16L59.5733 26.2703Z" fill="#FA9411"/>
</g>
</g>
<defs>
<clipPath id="clip0_2273_15589">
<rect width="80" height="73" fill="white" transform="translate(40 11)"/>
</clipPath>
</defs>
</svg>
