<svg width="77" height="78" viewBox="0 0 77 78" fill="none" xmlns="http://www.w3.org/2000/svg">
<g clip-path="url(#clip0_2076_10221)">
<path d="M38.5 77.0215C59.763 77.0215 77 59.7844 77 38.5215C77 17.2585 59.763 0.0214844 38.5 0.0214844C17.237 0.0214844 0 17.2585 0 38.5215C0 59.7844 17.237 77.0215 38.5 77.0215Z" fill="#E21B1B"/>
<path d="M76.7411 42.9284L55.3303 21.5176L22.5957 55.4565L43.7899 76.6508C61.1113 74.2686 74.7524 60.3713 76.7411 42.9284Z" fill="#C40606"/>
<path d="M53.2952 55.8959C52.5252 55.8959 51.7564 55.6023 51.1681 55.0152L22.0188 25.8647C20.8433 24.6892 20.8433 22.7859 22.0188 21.6116C23.1943 20.4374 25.0976 20.4362 26.2718 21.6116L55.4224 50.7621C56.5978 51.9376 56.5978 53.8409 55.4224 55.0152C54.834 55.6023 54.0652 55.8959 53.2952 55.8959Z" fill="white"/>
<path d="M24.1445 55.8963C23.3745 55.8963 22.6057 55.6027 22.0173 55.0156C20.8419 53.8402 20.8419 51.9368 22.0173 50.7626L51.1678 21.6121C52.3433 20.4366 54.2466 20.4366 55.4209 21.6121C56.5951 22.7875 56.5963 24.6909 55.4209 25.8651L26.2716 55.0156C25.6845 55.6027 24.9145 55.8963 24.1445 55.8963Z" fill="white"/>
</g>
<defs>
<clipPath id="clip0_2076_10221">
<rect width="77" height="77" fill="white" transform="translate(0 0.0214844)"/>
</clipPath>
</defs>
</svg>
