<svg width="51" height="52" viewBox="0 0 51 52" fill="none" xmlns="http://www.w3.org/2000/svg">
<rect y="0.5" width="51" height="51" rx="25.5" fill="#FA9411"/>
<path d="M34.9518 33.4218L34.1495 29.4948C33.3895 25.7367 30.0536 23.0343 26.2111 23.0343H23.5931C19.6239 23.0343 16.2459 25.9056 15.6125 29.8326L15.0213 33.5485C14.9369 34.1396 15.1058 34.773 15.4858 35.2375C15.8658 35.702 16.457 35.9553 17.0481 35.9553H22.2841H27.7735H33.0094C33.6428 35.9553 34.234 35.6598 34.614 35.1953C34.9518 34.6886 35.0785 34.0552 34.9518 33.4218ZM26.2111 24.3011C26.38 24.3011 26.5911 24.3011 26.76 24.3433C26.5911 25.1878 25.8733 25.8212 24.9866 25.8212C24.0998 25.8212 23.382 25.1878 23.2131 24.3433H23.5931H26.2111V24.3011ZM17.0059 34.6464C16.7526 34.6464 16.5414 34.5619 16.4148 34.3508C16.2459 34.1819 16.2036 33.9285 16.2459 33.7174L16.837 30.0015C17.3015 27.2569 19.3283 25.1034 21.9463 24.47C22.073 25.3145 22.5797 26.0323 23.2553 26.4968L22.3686 34.6041H17.0059V34.6464ZM23.6353 34.6464L24.4376 27.0457H24.9443H24.9866H25.0288H25.5355L26.3378 34.6464H23.6353ZM33.5584 34.3508C33.3895 34.5197 33.1783 34.6464 32.925 34.6464H27.6046L26.7178 26.539C27.3934 26.0745 27.8579 25.3567 27.9846 24.5544C30.4337 25.23 32.3761 27.2146 32.8828 29.7904L33.685 33.7174C33.7695 33.9285 33.7273 34.1819 33.5584 34.3508Z" fill="#F2F2F2"/>
<path d="M24.9871 22.1898C28.0696 22.1898 30.6031 19.6563 30.6031 16.5738C30.6031 13.4913 28.0696 11 24.9871 11C21.9046 11 19.3711 13.5335 19.3711 16.616C19.3711 19.6985 21.9046 22.1898 24.9871 22.1898ZM24.9871 12.2668C27.394 12.2668 29.3363 14.2091 29.3363 16.616C29.3363 19.0229 27.394 20.923 24.9871 20.923C22.5802 20.923 20.6379 18.9806 20.6379 16.5738C20.6379 14.1669 22.5802 12.2668 24.9871 12.2668Z" fill="#F2F2F2"/>
</svg>
