<svg width="98" height="98" viewBox="0 0 98 98" fill="none" xmlns="http://www.w3.org/2000/svg">
<path d="M48.1614 84.7017C48.2377 85.198 47.8982 85.6624 47.4033 85.7389C46.9145 85.8156 46.446 85.4801 46.3689 84.9786L44.2987 71.5034C43.6474 71.7628 42.9468 71.8998 42.2247 71.8998C38.0442 71.8998 34.678 75.2931 34.678 79.4678V84.8402C34.678 85.3424 34.2719 85.7496 33.7711 85.7496C33.2703 85.7496 32.8643 85.3424 32.8643 84.8402V79.4678C32.8643 76.2406 34.4839 73.3321 37.1051 71.6075C31.8419 67.3575 30.8038 59.8711 34.4609 54.365C35.6412 52.5882 36.2651 50.5206 36.2651 48.3856V43.4598C36.2649 36.6896 41.7569 31.1816 48.5074 31.1816H53.9485C60.6989 31.1816 66.1909 36.6894 66.1909 43.4594V48.3857C66.1909 50.5269 66.8108 52.5885 67.9835 54.3476C70.9043 58.7296 70.8906 64.4609 67.9071 68.8365C67.6245 69.2511 67.0601 69.3574 66.6466 69.0739C66.2332 68.7903 66.1272 68.2244 66.41 67.8098C68.9701 64.0552 68.9897 59.1301 66.4756 55.3586C65.1028 53.2992 64.3772 50.8881 64.3772 48.3857V43.4594C64.3772 37.6924 59.6989 33.0006 53.9485 33.0006H48.5074C42.7569 33.0006 38.0786 37.6925 38.0786 43.4599V48.3862C38.0786 50.8018 37.3924 53.2324 35.9702 55.3736C32.8332 60.0961 33.7027 66.5685 38.2919 70.2316L38.8774 70.699C41.7633 69.5925 42.7228 70.6128 44.4445 69.3627C45.6434 68.4341 46.0134 67.3776 46.0134 66.0506C41.9278 64.0915 39.0987 59.9057 39.0987 55.0693V48.6889C39.0987 48.1866 39.5047 47.7794 40.0055 47.7794C40.5063 47.7794 40.9124 48.1866 40.9124 48.6889V55.0693C40.9124 60.7737 45.5398 65.4145 51.2278 65.4145C56.9158 65.4145 61.5432 60.7737 61.5432 55.0693V49.327C59.5825 48.5428 58.0651 47.1324 57.1129 45.4108C53.8598 47.6862 50.0682 49.1643 46.0109 49.6398C45.5075 49.6977 45.0626 49.3364 45.0049 48.842C44.9467 48.343 45.3029 47.8915 45.8003 47.8331C49.7343 47.3721 53.5755 45.8697 56.9107 43.306C57.388 42.9393 58.0849 43.1318 58.3061 43.6943C58.5924 44.423 59.1558 45.4862 60.2129 46.4124C62.0181 47.9939 62.9527 47.5253 63.2888 48.3434C63.3844 48.5763 63.3569 48.2148 63.3569 55.0693C63.3569 63.1467 55.5866 69.0367 47.8078 66.7404C47.6964 68.156 47.0602 69.4786 45.9732 70.4598L48.1614 84.7017ZM60.2315 70.0809C59.425 70.0809 58.6565 69.8311 58.0073 69.3596C57.6096 69.0553 57.0168 69.1275 56.714 69.5642C56.5579 69.7892 56.5695 69.8926 56.415 70.8988C54.762 72.0805 52.7533 72.6649 50.7192 72.5496C50.2177 72.5195 49.7908 72.9044 49.7623 73.406C49.734 73.9075 50.1162 74.3371 50.6162 74.3656C52.4863 74.4725 54.3625 74.0859 56.0564 73.2321L54.2943 84.7017C54.2099 85.2516 54.6338 85.7497 55.1918 85.7497C55.6316 85.7497 56.0179 85.4281 56.0869 84.9786L58.1572 71.5029C58.8108 71.764 59.5109 71.8998 60.2313 71.8998C64.4023 71.8998 67.7778 75.2845 67.7778 79.4678V84.8402C67.7778 85.3424 68.1839 85.7496 68.6847 85.7496C69.1855 85.7496 69.5915 85.3424 69.5915 84.8402V79.4678C69.5916 74.2799 65.4053 70.0806 60.2315 70.0809Z" fill="white"/>
<mask id="mask0_3627_13791" style="mask-type:luminance" maskUnits="userSpaceOnUse" x="2" y="16" width="35" height="35">
<path d="M36.2386 50.1582V17.2038H3.28418V50.1582H36.2386Z" fill="white" stroke="white"/>
</mask>
<g mask="url(#mask0_3627_13791)">
<path d="M14.1046 30.3509C13.0158 30.6375 11.8081 30.354 10.9546 29.5005C9.89395 28.4399 9.71357 26.8324 10.4134 25.5857" stroke="white" stroke-miterlimit="10" stroke-linecap="round" stroke-linejoin="round"/>
<path d="M12.1211 24.1201C13.285 23.6853 14.6466 23.9358 15.5825 24.8717C16.4359 25.7252 16.7195 26.9328 16.433 28.0215" stroke="white" stroke-miterlimit="10" stroke-linecap="round" stroke-linejoin="round"/>
<path d="M22.2666 25.783H21.4369C21.263 25.783 21.114 25.6609 21.0773 25.4909C20.8785 24.5707 20.516 23.6788 19.9894 22.8618C19.8952 22.7158 19.9143 22.5242 20.0372 22.4013L21.0676 21.3709C21.2113 21.2273 21.2113 20.9944 21.0676 20.8507L19.6039 19.387C19.4602 19.2433 19.2273 19.2433 19.0837 19.387L18.0533 20.4174C17.9303 20.5402 17.7388 20.5593 17.5927 20.4652C16.7758 19.9386 15.8839 19.5761 14.9637 19.3772C14.7937 19.3406 14.6716 19.1916 14.6716 19.0176V17.5595C14.6716 17.3563 14.5068 17.1916 14.3037 17.1916H12.2337C12.0305 17.1916 11.8658 17.3563 11.8658 17.5595V19.0176C11.8658 19.1916 11.7437 19.3406 11.5738 19.3772C10.6535 19.5761 9.76157 19.9386 8.94467 20.4652C8.79858 20.5593 8.60699 20.5402 8.48417 20.4174L7.4538 19.387C7.31015 19.2433 7.07718 19.2433 6.93354 19.387L5.46985 20.8507C5.3262 20.9944 5.3262 21.2273 5.46985 21.3709L6.50022 22.4013C6.62304 22.5242 6.64221 22.7158 6.54803 22.8619C6.02134 23.6788 5.65885 24.5707 5.4601 25.4909C5.42336 25.6609 5.27441 25.783 5.10046 25.783H3.64228C3.43915 25.783 3.27441 25.9477 3.27441 26.1509V28.2209C3.27441 28.424 3.43915 28.5888 3.64228 28.5888H5.10046C5.27441 28.5888 5.42336 28.7108 5.4601 28.8808C5.65885 29.8011 6.02134 30.693 6.54803 31.5099C6.64221 31.656 6.62304 31.8475 6.50022 31.9704L5.46985 33.0008C5.3262 33.1444 5.3262 33.3774 5.46985 33.5211L6.93354 34.9848C7.07718 35.1284 7.31015 35.1284 7.4538 34.9848L8.48417 33.9544C8.60699 33.8315 8.79858 33.8124 8.94467 33.9066C9.76157 34.4333 10.6535 34.7957 11.5738 34.9945C11.7437 35.0312 11.8658 35.1802 11.8658 35.3541V36.0781" stroke="white" stroke-miterlimit="10" stroke-linecap="round" stroke-linejoin="round"/>
<path d="M26.2732 40.1915C24.9529 41.5117 22.8123 41.5117 21.4921 40.1915C20.1719 38.8712 20.1719 36.7307 21.4921 35.4104C22.8123 34.0902 24.9529 34.0902 26.2732 35.4104C27.5933 36.7307 27.5933 38.8712 26.2732 40.1915Z" stroke="white" stroke-miterlimit="10" stroke-linecap="round" stroke-linejoin="round"/>
<path d="M18.4625 40.1053C17.5524 37.9615 17.9715 35.3878 19.7193 33.6399C22.0184 31.3409 25.7457 31.3409 28.0447 33.6399C30.3437 35.9388 30.3437 39.6662 28.0447 41.9652C25.7634 44.2465 22.0756 44.264 19.7726 42.0178" stroke="white" stroke-miterlimit="10" stroke-linecap="round" stroke-linejoin="round"/>
<path d="M31.7213 47.4516L33.5324 45.6405C33.7101 45.4628 33.7101 45.1746 33.5324 44.9968L32.2575 43.7219C32.1055 43.5699 32.0818 43.3328 32.1983 43.1521C32.85 42.1413 33.2985 41.0377 33.5444 39.8991C33.5899 39.6888 33.7742 39.5377 33.9894 39.5377H35.7936C36.045 39.5377 36.2488 39.3339 36.2488 39.0825V36.5213C36.2488 36.2699 36.045 36.0661 35.7936 36.0661H33.9894C33.7742 36.0661 33.5899 35.9151 33.5444 35.7046C33.2985 34.566 32.85 33.4624 32.1983 32.4516C32.0818 32.2709 32.1055 32.0339 32.2575 31.8819L33.5324 30.607C33.7101 30.4292 33.7101 30.141 33.5324 29.9633L31.7213 28.1522C31.5436 27.9744 31.2554 27.9744 31.0776 28.1522L29.8027 29.4271C29.6507 29.5791 29.4136 29.6028 29.2329 29.4863C28.2221 28.8346 27.1186 28.3861 25.9799 28.1401C25.7696 28.0947 25.6185 27.9104 25.6185 27.6952V25.8909C25.6185 25.6396 25.4147 25.4358 25.1633 25.4358L22.6021 25.4357C22.3507 25.4357 22.1469 25.6395 22.1469 25.8909V27.6952C22.1469 27.9104 21.9959 28.0947 21.7855 28.1401C20.6468 28.3861 19.5432 28.8346 18.5325 29.4863C18.3517 29.6028 18.1147 29.5791 17.9626 29.4271L16.6878 28.1522C16.51 27.9744 16.2218 27.9744 16.0441 28.1522L14.233 29.9633C14.0552 30.141 14.0552 30.4292 14.233 30.607L15.5079 31.8819C15.66 32.0339 15.6836 32.2709 15.5671 32.4517C14.9154 33.4624 14.4669 34.566 14.221 35.7046C14.1755 35.9151 13.9912 36.0661 13.776 36.0661H11.9717C11.7203 36.0661 11.5166 36.2699 11.5166 36.5213V39.0825C11.5166 39.3339 11.7203 39.5377 11.9717 39.5377H13.776C13.9912 39.5377 14.1755 39.6888 14.221 39.8991C14.4669 41.0377 14.9154 42.1413 15.5671 43.1521C15.6836 43.3328 15.66 43.5699 15.5079 43.7219L14.233 44.9968C14.0552 45.1746 14.0552 45.4628 14.233 45.6405L16.0441 47.4516C16.2218 47.6293 16.51 47.6293 16.6878 47.4516L17.9626 46.1767C18.1147 46.0247 18.3517 46.001 18.5325 46.1175C19.5432 46.7691 20.6468 47.2177 21.7855 47.4636C21.9959 47.5091 22.1469 47.6934 22.1469 47.9086V49.7128C22.1469 49.9642 22.3507 50.168 22.6021 50.168H25.1633C25.4147 50.168 25.6185 49.9642 25.6185 49.7129V47.9086C25.6185 47.6934 25.7696 47.5091 25.9799 47.4636C27.1186 47.2176 28.2221 46.7691 29.2329 46.1175C29.4136 46.001 29.6507 46.0247 29.8027 46.1767L31.0776 47.4516C31.2554 47.6293 31.5436 47.6293 31.7213 47.4516Z" stroke="white" stroke-miterlimit="10" stroke-linecap="round" stroke-linejoin="round"/>
</g>
</svg>
