<svg width="157" height="157" viewBox="0 0 157 157" fill="none" xmlns="http://www.w3.org/2000/svg">
<rect width="157" height="157" rx="10" fill="#FA9411"/>
<path d="M12.7102 48.9901V46.4545H24.6562V48.9901H20.2031V61H17.1634V48.9901H12.7102ZM25.4339 61V50.0909H28.3672V51.9943H28.4808C28.6797 51.3172 29.0135 50.8059 29.4822 50.4602C29.951 50.1098 30.4908 49.9347 31.1016 49.9347C31.2531 49.9347 31.4164 49.9441 31.5916 49.9631C31.7668 49.982 31.9207 50.008 32.0533 50.0412V52.7259C31.9112 52.6832 31.7147 52.6454 31.4638 52.6122C31.2128 52.5791 30.9832 52.5625 30.7749 52.5625C30.3298 52.5625 29.9321 52.6596 29.5817 52.8537C29.236 53.0431 28.9614 53.3082 28.7578 53.6491C28.5589 53.9901 28.4595 54.383 28.4595 54.8281V61H25.4339ZM36.4158 61.206C35.7198 61.206 35.0996 61.0852 34.555 60.8438C34.0105 60.5975 33.5797 60.2353 33.2624 59.7571C32.9499 59.2741 32.7937 58.6728 32.7937 57.9531C32.7937 57.3471 32.9049 56.8381 33.1275 56.4261C33.35 56.0142 33.6531 55.6828 34.0366 55.4318C34.4201 55.1809 34.8557 54.9915 35.3434 54.8636C35.8358 54.7358 36.3519 54.6458 36.8917 54.5938C37.5262 54.5275 38.0375 54.4659 38.4258 54.4091C38.814 54.3475 39.0958 54.2576 39.271 54.1392C39.4461 54.0208 39.5337 53.8456 39.5337 53.6136V53.571C39.5337 53.1212 39.3917 52.7732 39.1076 52.527C38.8282 52.2808 38.4305 52.1577 37.9144 52.1577C37.3699 52.1577 36.9367 52.2784 36.6147 52.5199C36.2927 52.7566 36.0797 53.0549 35.9755 53.4148L33.1772 53.1875C33.3192 52.5246 33.5986 51.9517 34.0153 51.4688C34.4319 50.9811 34.9693 50.607 35.6275 50.3466C36.2904 50.0814 37.0574 49.9489 37.9286 49.9489C38.5347 49.9489 39.1147 50.0199 39.6687 50.1619C40.2274 50.304 40.7222 50.5241 41.1531 50.8224C41.5887 51.1207 41.9319 51.5043 42.1829 51.973C42.4338 52.437 42.5593 52.9934 42.5593 53.642V61H39.69V59.4872H39.6048C39.4296 59.8281 39.1952 60.1288 38.9016 60.3892C38.6081 60.6449 38.2553 60.8461 37.8434 60.9929C37.4315 61.1349 36.9556 61.206 36.4158 61.206ZM37.2823 59.1179C37.7274 59.1179 38.1204 59.0303 38.4613 58.8551C38.8022 58.6752 39.0697 58.4337 39.2638 58.1307C39.458 57.8277 39.555 57.4844 39.555 57.1009V55.9432C39.4603 56.0047 39.3301 56.0616 39.1644 56.1136C39.0034 56.161 38.8211 56.206 38.6175 56.2486C38.4139 56.2865 38.2103 56.322 38.0067 56.3551C37.8031 56.3835 37.6185 56.4096 37.4528 56.4332C37.0977 56.4853 36.7875 56.5682 36.5224 56.6818C36.2572 56.7955 36.0513 56.9493 35.9045 57.1435C35.7577 57.3329 35.6843 57.5696 35.6843 57.8537C35.6843 58.2656 35.8335 58.5805 36.1317 58.7983C36.4348 59.0114 36.8183 59.1179 37.2823 59.1179ZM49.8356 61.2131C48.7182 61.2131 47.757 60.9763 46.9521 60.5028C46.1519 60.0246 45.5363 59.3617 45.1055 58.5142C44.6793 57.6667 44.4663 56.6913 44.4663 55.5881C44.4663 54.4706 44.6817 53.4905 45.1126 52.6477C45.5482 51.8002 46.1661 51.1397 46.9663 50.6662C47.7665 50.188 48.7182 49.9489 49.8214 49.9489C50.7731 49.9489 51.6064 50.1217 52.3214 50.4673C53.0363 50.813 53.6022 51.2983 54.0188 51.9233C54.4355 52.5483 54.6651 53.2822 54.7077 54.125H51.8526C51.7721 53.5805 51.5591 53.1425 51.2134 52.8111C50.8725 52.4749 50.4251 52.3068 49.8711 52.3068C49.4023 52.3068 48.9928 52.4347 48.6424 52.6903C48.2968 52.9413 48.0269 53.3082 47.8327 53.7912C47.6386 54.2741 47.5415 54.8589 47.5415 55.5455C47.5415 56.2415 47.6362 56.8333 47.8256 57.321C48.0198 57.8087 48.292 58.1804 48.6424 58.4361C48.9928 58.6918 49.4023 58.8196 49.8711 58.8196C50.2167 58.8196 50.5269 58.7486 50.8015 58.6065C51.0808 58.4645 51.3105 58.2585 51.4904 57.9886C51.6751 57.714 51.7958 57.3849 51.8526 57.0014H54.7077C54.6604 57.8348 54.4331 58.5687 54.0259 59.2031C53.6235 59.8329 53.0671 60.3253 52.3569 60.6804C51.6467 61.0355 50.8062 61.2131 49.8356 61.2131ZM62.4474 50.0909V52.3636H55.8778V50.0909H62.4474ZM57.3693 47.4773H60.3949V57.6477C60.3949 57.9271 60.4375 58.1449 60.5227 58.3011C60.608 58.4527 60.7263 58.5592 60.8778 58.6207C61.0341 58.6823 61.214 58.7131 61.4176 58.7131C61.5597 58.7131 61.7017 58.7012 61.8438 58.6776C61.9858 58.6491 62.0947 58.6278 62.1705 58.6136L62.6463 60.8651C62.4948 60.9124 62.2817 60.9669 62.0071 61.0284C61.7325 61.0947 61.3987 61.1349 61.0057 61.1491C60.2765 61.1776 59.6373 61.0805 59.0881 60.858C58.5436 60.6354 58.1198 60.2898 57.8168 59.821C57.5137 59.3523 57.3646 58.7604 57.3693 58.0455V47.4773ZM69.2301 61.2131C68.1269 61.2131 67.1728 60.9787 66.3679 60.5099C65.5677 60.0365 64.9498 59.3783 64.5142 58.5355C64.0786 57.688 63.8608 56.7055 63.8608 55.5881C63.8608 54.4612 64.0786 53.4763 64.5142 52.6335C64.9498 51.786 65.5677 51.1278 66.3679 50.6591C67.1728 50.1856 68.1269 49.9489 69.2301 49.9489C70.3333 49.9489 71.285 50.1856 72.0852 50.6591C72.8902 51.1278 73.5104 51.786 73.946 52.6335C74.3816 53.4763 74.5994 54.4612 74.5994 55.5881C74.5994 56.7055 74.3816 57.688 73.946 58.5355C73.5104 59.3783 72.8902 60.0365 72.0852 60.5099C71.285 60.9787 70.3333 61.2131 69.2301 61.2131ZM69.2443 58.8693C69.7462 58.8693 70.1652 58.7273 70.5014 58.4432C70.8376 58.1544 71.0909 57.7614 71.2614 57.2642C71.4366 56.767 71.5241 56.2012 71.5241 55.5668C71.5241 54.9323 71.4366 54.3665 71.2614 53.8693C71.0909 53.3722 70.8376 52.9792 70.5014 52.6903C70.1652 52.4015 69.7462 52.2571 69.2443 52.2571C68.7377 52.2571 68.3116 52.4015 67.9659 52.6903C67.625 52.9792 67.367 53.3722 67.1918 53.8693C67.0213 54.3665 66.9361 54.9323 66.9361 55.5668C66.9361 56.2012 67.0213 56.767 67.1918 57.2642C67.367 57.7614 67.625 58.1544 67.9659 58.4432C68.3116 58.7273 68.7377 58.8693 69.2443 58.8693ZM76.5668 61V50.0909H79.5V51.9943H79.6136C79.8125 51.3172 80.1463 50.8059 80.6151 50.4602C81.0838 50.1098 81.6236 49.9347 82.2344 49.9347C82.3859 49.9347 82.5492 49.9441 82.7244 49.9631C82.8996 49.982 83.0535 50.008 83.1861 50.0412V52.7259C83.044 52.6832 82.8475 52.6454 82.5966 52.6122C82.3456 52.5791 82.116 52.5625 81.9077 52.5625C81.4626 52.5625 81.0649 52.6596 80.7145 52.8537C80.3688 53.0431 80.0942 53.3082 79.8906 53.6491C79.6918 53.9901 79.5923 54.383 79.5923 54.8281V61H76.5668ZM93.8271 53.2017L91.0572 53.3722C91.0098 53.1354 90.908 52.9223 90.7518 52.733C90.5955 52.5388 90.3896 52.3849 90.1339 52.2713C89.8829 52.1529 89.5823 52.0938 89.2319 52.0938C88.7631 52.0938 88.3678 52.1932 88.0458 52.392C87.7238 52.5862 87.5629 52.8466 87.5629 53.1733C87.5629 53.4337 87.667 53.6539 87.8754 53.8338C88.0837 54.0137 88.4412 54.1581 88.9478 54.267L90.9222 54.6648C91.9828 54.8826 92.7736 55.233 93.2944 55.7159C93.8152 56.1989 94.0756 56.8333 94.0756 57.6193C94.0756 58.3343 93.8649 58.9616 93.4435 59.5014C93.0269 60.0412 92.454 60.4626 91.7248 60.7656C91.0004 61.0639 90.1647 61.2131 89.2177 61.2131C87.7736 61.2131 86.623 60.9124 85.766 60.3111C84.9137 59.705 84.4142 58.8812 84.2674 57.8395L87.2433 57.6832C87.3332 58.1236 87.551 58.4598 87.8967 58.6918C88.2423 58.919 88.685 59.0327 89.2248 59.0327C89.7551 59.0327 90.1812 58.9309 90.5032 58.7273C90.8299 58.5189 90.9956 58.2514 91.0004 57.9247C90.9956 57.6501 90.8796 57.4252 90.6523 57.25C90.4251 57.0701 90.0747 56.9328 89.6012 56.8381L87.712 56.4616C86.6467 56.2486 85.8536 55.8793 85.3327 55.3537C84.8166 54.8281 84.5586 54.1581 84.5586 53.3438C84.5586 52.643 84.748 52.0393 85.1268 51.5327C85.5103 51.026 86.0477 50.6354 86.739 50.3608C87.435 50.0862 88.2494 49.9489 89.1822 49.9489C90.56 49.9489 91.6443 50.2401 92.435 50.8224C93.2305 51.4048 93.6945 52.1979 93.8271 53.2017ZM106.476 50.0909V52.3636H99.7433V50.0909H106.476ZM101.284 61V49.3026C101.284 48.5118 101.438 47.8561 101.746 47.3352C102.059 46.8144 102.485 46.4238 103.025 46.1634C103.564 45.9029 104.177 45.7727 104.864 45.7727C105.328 45.7727 105.752 45.8082 106.135 45.8793C106.524 45.9503 106.812 46.0142 107.002 46.071L106.462 48.3438C106.344 48.3059 106.197 48.2704 106.022 48.2372C105.851 48.2041 105.676 48.1875 105.496 48.1875C105.051 48.1875 104.741 48.2917 104.566 48.5C104.391 48.7036 104.303 48.9901 104.303 49.3594V61H101.284ZM112.863 61.2131C111.76 61.2131 110.806 60.9787 110.001 60.5099C109.201 60.0365 108.583 59.3783 108.147 58.5355C107.711 57.688 107.494 56.7055 107.494 55.5881C107.494 54.4612 107.711 53.4763 108.147 52.6335C108.583 51.786 109.201 51.1278 110.001 50.6591C110.806 50.1856 111.76 49.9489 112.863 49.9489C113.966 49.9489 114.918 50.1856 115.718 50.6591C116.523 51.1278 117.143 51.786 117.579 52.6335C118.014 53.4763 118.232 54.4612 118.232 55.5881C118.232 56.7055 118.014 57.688 117.579 58.5355C117.143 59.3783 116.523 60.0365 115.718 60.5099C114.918 60.9787 113.966 61.2131 112.863 61.2131ZM112.877 58.8693C113.379 58.8693 113.798 58.7273 114.134 58.4432C114.47 58.1544 114.724 57.7614 114.894 57.2642C115.069 56.767 115.157 56.2012 115.157 55.5668C115.157 54.9323 115.069 54.3665 114.894 53.8693C114.724 53.3722 114.47 52.9792 114.134 52.6903C113.798 52.4015 113.379 52.2571 112.877 52.2571C112.371 52.2571 111.944 52.4015 111.599 52.6903C111.258 52.9792 111 53.3722 110.825 53.8693C110.654 54.3665 110.569 54.9323 110.569 55.5668C110.569 56.2012 110.654 56.767 110.825 57.2642C111 57.7614 111.258 58.1544 111.599 58.4432C111.944 58.7273 112.371 58.8693 112.877 58.8693ZM120.2 61V50.0909H123.133V51.9943H123.246C123.445 51.3172 123.779 50.8059 124.248 50.4602C124.717 50.1098 125.256 49.9347 125.867 49.9347C126.019 49.9347 126.182 49.9441 126.357 49.9631C126.532 49.982 126.686 50.008 126.819 50.0412V52.7259C126.677 52.6832 126.48 52.6454 126.229 52.6122C125.978 52.5791 125.749 52.5625 125.54 52.5625C125.095 52.5625 124.698 52.6596 124.347 52.8537C124.002 53.0431 123.727 53.3082 123.523 53.6491C123.325 53.9901 123.225 54.383 123.225 54.8281V61H120.2ZM13.2642 85V70.4545H23.0653V72.9901H16.3395V76.456H22.5611V78.9915H16.3395V82.4645H23.0938V85H13.2642ZM35.6239 74.0909L31.81 85H28.4009L24.587 74.0909H27.783L30.0487 81.8963H30.1623L32.4208 74.0909H35.6239ZM41.7923 85.2131C40.6701 85.2131 39.7042 84.9858 38.8945 84.5312C38.0896 84.072 37.4693 83.4233 37.0337 82.5852C36.5981 81.7424 36.3803 80.7457 36.3803 79.5952C36.3803 78.473 36.5981 77.4882 37.0337 76.6406C37.4693 75.7931 38.0825 75.1326 38.8732 74.6591C39.6687 74.1856 40.6014 73.9489 41.6715 73.9489C42.3912 73.9489 43.0612 74.0649 43.6815 74.2969C44.3065 74.5241 44.851 74.8674 45.315 75.3267C45.7837 75.786 46.1483 76.3636 46.4087 77.0597C46.6692 77.7509 46.7994 78.5606 46.7994 79.4886V80.3196H37.5877V78.4446H43.9513C43.9513 78.009 43.8567 77.6231 43.6673 77.2869C43.4779 76.9508 43.2151 76.688 42.8789 76.4986C42.5475 76.3045 42.1616 76.2074 41.7212 76.2074C41.262 76.2074 40.8548 76.3139 40.4996 76.527C40.1493 76.7353 39.8746 77.017 39.6758 77.3722C39.4769 77.7225 39.3751 78.1132 39.3704 78.544V80.3267C39.3704 80.8665 39.4698 81.3329 39.6687 81.7259C39.8723 82.1188 40.1587 82.4219 40.5281 82.6349C40.8974 82.848 41.3353 82.9545 41.842 82.9545C42.1781 82.9545 42.4859 82.9072 42.7653 82.8125C43.0446 82.7178 43.2837 82.5758 43.4826 82.3864C43.6815 82.197 43.833 81.965 43.9371 81.6903L46.7354 81.875C46.5934 82.5473 46.3022 83.1345 45.8619 83.6364C45.4263 84.1335 44.8628 84.5218 44.1715 84.8011C43.485 85.0758 42.6919 85.2131 41.7923 85.2131ZM48.7738 85V74.0909H51.707V75.9943H51.8207C52.0195 75.3172 52.3533 74.8059 52.8221 74.4602C53.2908 74.1098 53.8306 73.9347 54.4414 73.9347C54.5929 73.9347 54.7563 73.9441 54.9315 73.9631C55.1067 73.982 55.2605 74.008 55.3931 74.0412V76.7259C55.2511 76.6832 55.0546 76.6454 54.8036 76.6122C54.5527 76.5791 54.323 76.5625 54.1147 76.5625C53.6696 76.5625 53.2719 76.6596 52.9215 76.8537C52.5759 77.0431 52.3013 77.3082 52.0977 77.6491C51.8988 77.9901 51.7994 78.383 51.7994 78.8281V85H48.7738ZM59.1573 89.0909C58.7738 89.0909 58.4139 89.0601 58.0778 88.9986C57.7463 88.9418 57.4717 88.8684 57.2539 88.7784L57.9357 86.5199C58.2908 86.6288 58.6104 86.688 58.8945 86.6974C59.1834 86.7069 59.4319 86.6406 59.6403 86.4986C59.8533 86.3565 60.0262 86.1151 60.1587 85.7741L60.3363 85.3125L56.4229 74.0909H59.6048L61.8633 82.1023H61.9769L64.2567 74.0909H67.4599L63.2198 86.179C63.0162 86.7661 62.7392 87.2775 62.3888 87.7131C62.0432 88.1534 61.6052 88.492 61.0749 88.7287C60.5446 88.9702 59.9054 89.0909 59.1573 89.0909ZM73.5856 85.2131C72.4824 85.2131 71.5283 84.9787 70.7234 84.5099C69.9232 84.0365 69.3053 83.3783 68.8697 82.5355C68.4341 81.688 68.2163 80.7055 68.2163 79.5881C68.2163 78.4612 68.4341 77.4763 68.8697 76.6335C69.3053 75.786 69.9232 75.1278 70.7234 74.6591C71.5283 74.1856 72.4824 73.9489 73.5856 73.9489C74.6888 73.9489 75.6405 74.1856 76.4407 74.6591C77.2456 75.1278 77.8659 75.786 78.3015 76.6335C78.7371 77.4763 78.9549 78.4612 78.9549 79.5881C78.9549 80.7055 78.7371 81.688 78.3015 82.5355C77.8659 83.3783 77.2456 84.0365 76.4407 84.5099C75.6405 84.9787 74.6888 85.2131 73.5856 85.2131ZM73.5998 82.8693C74.1017 82.8693 74.5207 82.7273 74.8569 82.4432C75.1931 82.1544 75.4464 81.7614 75.6168 81.2642C75.792 80.767 75.8796 80.2012 75.8796 79.5668C75.8796 78.9323 75.792 78.3665 75.6168 77.8693C75.4464 77.3722 75.1931 76.9792 74.8569 76.6903C74.5207 76.4015 74.1017 76.2571 73.5998 76.2571C73.0932 76.2571 72.667 76.4015 72.3214 76.6903C71.9805 76.9792 71.7224 77.3722 71.5472 77.8693C71.3768 78.3665 71.2915 78.9323 71.2915 79.5668C71.2915 80.2012 71.3768 80.767 71.5472 81.2642C71.7224 81.7614 71.9805 82.1544 72.3214 82.4432C72.667 82.7273 73.0932 82.8693 73.5998 82.8693ZM83.9478 78.6932V85H80.9222V74.0909H83.8058V76.0156H83.9336C84.1751 75.3812 84.5799 74.8793 85.1481 74.5099C85.7163 74.1359 86.4052 73.9489 87.2148 73.9489C87.9724 73.9489 88.6329 74.1146 89.1964 74.446C89.7598 74.7775 90.1978 75.2509 90.5103 75.8665C90.8228 76.4773 90.979 77.2064 90.979 78.054V85H87.9535V78.5938C87.9582 77.9261 87.7878 77.4053 87.4421 77.0312C87.0965 76.6525 86.6206 76.4631 86.0146 76.4631C85.6074 76.4631 85.2475 76.5507 84.935 76.7259C84.6272 76.901 84.3858 77.1567 84.2106 77.4929C84.0401 77.8243 83.9525 78.2244 83.9478 78.6932ZM98.3352 85.2131C97.2131 85.2131 96.2472 84.9858 95.4375 84.5312C94.6326 84.072 94.0123 83.4233 93.5767 82.5852C93.1411 81.7424 92.9233 80.7457 92.9233 79.5952C92.9233 78.473 93.1411 77.4882 93.5767 76.6406C94.0123 75.7931 94.6255 75.1326 95.4162 74.6591C96.2116 74.1856 97.1444 73.9489 98.2145 73.9489C98.9342 73.9489 99.6042 74.0649 100.224 74.2969C100.849 74.5241 101.394 74.8674 101.858 75.3267C102.327 75.786 102.691 76.3636 102.952 77.0597C103.212 77.7509 103.342 78.5606 103.342 79.4886V80.3196H94.1307V78.4446H100.494C100.494 78.009 100.4 77.6231 100.21 77.2869C100.021 76.9508 99.758 76.688 99.4219 76.4986C99.0904 76.3045 98.7045 76.2074 98.2642 76.2074C97.8049 76.2074 97.3977 76.3139 97.0426 76.527C96.6922 76.7353 96.4176 77.017 96.2188 77.3722C96.0199 77.7225 95.9181 78.1132 95.9134 78.544V80.3267C95.9134 80.8665 96.0128 81.3329 96.2116 81.7259C96.4152 82.1188 96.7017 82.4219 97.071 82.6349C97.4403 82.848 97.8783 82.9545 98.3849 82.9545C98.7211 82.9545 99.0289 82.9072 99.3082 82.8125C99.5876 82.7178 99.8267 82.5758 100.026 82.3864C100.224 82.197 100.376 81.965 100.48 81.6903L103.278 81.875C103.136 82.5473 102.845 83.1345 102.405 83.6364C101.969 84.1335 101.406 84.5218 100.714 84.8011C100.028 85.0758 99.2348 85.2131 98.3352 85.2131ZM108.605 83.0114L108.527 83.7926C108.465 84.4176 108.347 85.0402 108.172 85.6605C108.001 86.2855 107.821 86.8513 107.632 87.358C107.447 87.8646 107.298 88.2623 107.185 88.5511H105.224C105.295 88.2718 105.393 87.8812 105.516 87.3793C105.639 86.8821 105.755 86.3234 105.864 85.7031C105.973 85.0829 106.041 84.4508 106.07 83.8068L106.105 83.0114H108.605ZM13.2642 109V94.4545H23.0653V96.9901H16.3395V100.456H22.5611V102.991H16.3395V106.464H23.0938V109H13.2642ZM35.6239 98.0909L31.81 109H28.4009L24.587 98.0909H27.783L30.0487 105.896H30.1623L32.4208 98.0909H35.6239ZM41.7923 109.213C40.6701 109.213 39.7042 108.986 38.8945 108.531C38.0896 108.072 37.4693 107.423 37.0337 106.585C36.5981 105.742 36.3803 104.746 36.3803 103.595C36.3803 102.473 36.5981 101.488 37.0337 100.641C37.4693 99.7931 38.0825 99.1326 38.8732 98.6591C39.6687 98.1856 40.6014 97.9489 41.6715 97.9489C42.3912 97.9489 43.0612 98.0649 43.6815 98.2969C44.3065 98.5241 44.851 98.8674 45.315 99.3267C45.7837 99.786 46.1483 100.364 46.4087 101.06C46.6692 101.751 46.7994 102.561 46.7994 103.489V104.32H37.5877V102.445H43.9513C43.9513 102.009 43.8567 101.623 43.6673 101.287C43.4779 100.951 43.2151 100.688 42.8789 100.499C42.5475 100.304 42.1616 100.207 41.7212 100.207C41.262 100.207 40.8548 100.314 40.4996 100.527C40.1493 100.735 39.8746 101.017 39.6758 101.372C39.4769 101.723 39.3751 102.113 39.3704 102.544V104.327C39.3704 104.866 39.4698 105.333 39.6687 105.726C39.8723 106.119 40.1587 106.422 40.5281 106.635C40.8974 106.848 41.3353 106.955 41.842 106.955C42.1781 106.955 42.4859 106.907 42.7653 106.812C43.0446 106.718 43.2837 106.576 43.4826 106.386C43.6815 106.197 43.833 105.965 43.9371 105.69L46.7354 105.875C46.5934 106.547 46.3022 107.134 45.8619 107.636C45.4263 108.134 44.8628 108.522 44.1715 108.801C43.485 109.076 42.6919 109.213 41.7923 109.213ZM48.7738 109V98.0909H51.707V99.9943H51.8207C52.0195 99.3172 52.3533 98.8059 52.8221 98.4602C53.2908 98.1098 53.8306 97.9347 54.4414 97.9347C54.5929 97.9347 54.7563 97.9441 54.9315 97.9631C55.1067 97.982 55.2605 98.008 55.3931 98.0412V100.726C55.2511 100.683 55.0546 100.645 54.8036 100.612C54.5527 100.579 54.323 100.562 54.1147 100.562C53.6696 100.562 53.2719 100.66 52.9215 100.854C52.5759 101.043 52.3013 101.308 52.0977 101.649C51.8988 101.99 51.7994 102.383 51.7994 102.828V109H48.7738ZM59.1573 113.091C58.7738 113.091 58.4139 113.06 58.0778 112.999C57.7463 112.942 57.4717 112.868 57.2539 112.778L57.9357 110.52C58.2908 110.629 58.6104 110.688 58.8945 110.697C59.1834 110.707 59.4319 110.641 59.6403 110.499C59.8533 110.357 60.0262 110.115 60.1587 109.774L60.3363 109.312L56.4229 98.0909H59.6048L61.8633 106.102H61.9769L64.2567 98.0909H67.4599L63.2198 110.179C63.0162 110.766 62.7392 111.277 62.3888 111.713C62.0432 112.153 61.6052 112.492 61.0749 112.729C60.5446 112.97 59.9054 113.091 59.1573 113.091ZM71.1602 109L68.1914 98.0909H71.2525L72.9428 105.42H73.0423L74.8036 98.0909H77.8079L79.5977 105.378H79.69L81.3519 98.0909H84.4059L81.4442 109H78.2411L76.3661 102.139H76.2312L74.3562 109H71.1602ZM89.0455 102.693V109H86.0199V94.4545H88.9602V100.016H89.0881C89.3343 99.3717 89.732 98.8674 90.2812 98.5028C90.8305 98.1335 91.5194 97.9489 92.348 97.9489C93.1056 97.9489 93.7661 98.1146 94.3295 98.446C94.8977 98.7727 95.3381 99.2438 95.6506 99.8594C95.9678 100.47 96.1241 101.202 96.1193 102.054V109H93.0938V102.594C93.0985 101.921 92.928 101.398 92.5824 101.024C92.2415 100.65 91.7633 100.463 91.1477 100.463C90.7358 100.463 90.3712 100.551 90.054 100.726C89.7415 100.901 89.4953 101.157 89.3153 101.493C89.1402 101.824 89.0502 102.224 89.0455 102.693ZM103.472 109.213C102.35 109.213 101.384 108.986 100.574 108.531C99.7693 108.072 99.149 107.423 98.7134 106.585C98.2778 105.742 98.06 104.746 98.06 103.595C98.06 102.473 98.2778 101.488 98.7134 100.641C99.149 99.7931 99.7622 99.1326 100.553 98.6591C101.348 98.1856 102.281 97.9489 103.351 97.9489C104.071 97.9489 104.741 98.0649 105.361 98.2969C105.986 98.5241 106.531 98.8674 106.995 99.3267C107.463 99.786 107.828 100.364 108.088 101.06C108.349 101.751 108.479 102.561 108.479 103.489V104.32H99.2674V102.445H105.631C105.631 102.009 105.536 101.623 105.347 101.287C105.158 100.951 104.895 100.688 104.559 100.499C104.227 100.304 103.841 100.207 103.401 100.207C102.942 100.207 102.534 100.314 102.179 100.527C101.829 100.735 101.554 101.017 101.355 101.372C101.157 101.723 101.055 102.113 101.05 102.544V104.327C101.05 104.866 101.15 105.333 101.348 105.726C101.552 106.119 101.838 106.422 102.208 106.635C102.577 106.848 103.015 106.955 103.522 106.955C103.858 106.955 104.166 106.907 104.445 106.812C104.724 106.718 104.963 106.576 105.162 106.386C105.361 106.197 105.513 105.965 105.617 105.69L108.415 105.875C108.273 106.547 107.982 107.134 107.542 107.636C107.106 108.134 106.542 108.522 105.851 108.801C105.165 109.076 104.372 109.213 103.472 109.213ZM110.453 109V98.0909H113.387V99.9943H113.5C113.699 99.3172 114.033 98.8059 114.502 98.4602C114.971 98.1098 115.51 97.9347 116.121 97.9347C116.273 97.9347 116.436 97.9441 116.611 97.9631C116.786 97.982 116.94 98.008 117.073 98.0412V100.726C116.931 100.683 116.734 100.645 116.483 100.612C116.232 100.579 116.003 100.562 115.794 100.562C115.349 100.562 114.952 100.66 114.601 100.854C114.256 101.043 113.981 101.308 113.777 101.649C113.578 101.99 113.479 102.383 113.479 102.828V109H110.453ZM123.101 109.213C121.979 109.213 121.013 108.986 120.203 108.531C119.398 108.072 118.778 107.423 118.342 106.585C117.907 105.742 117.689 104.746 117.689 103.595C117.689 102.473 117.907 101.488 118.342 100.641C118.778 99.7931 119.391 99.1326 120.182 98.6591C120.977 98.1856 121.91 97.9489 122.98 97.9489C123.7 97.9489 124.37 98.0649 124.99 98.2969C125.615 98.5241 126.16 98.8674 126.624 99.3267C127.092 99.786 127.457 100.364 127.717 101.06C127.978 101.751 128.108 102.561 128.108 103.489V104.32H118.896V102.445H125.26C125.26 102.009 125.165 101.623 124.976 101.287C124.786 100.951 124.524 100.688 124.188 100.499C123.856 100.304 123.47 100.207 123.03 100.207C122.571 100.207 122.163 100.314 121.808 100.527C121.458 100.735 121.183 101.017 120.984 101.372C120.786 101.723 120.684 102.113 120.679 102.544V104.327C120.679 104.866 120.778 105.333 120.977 105.726C121.181 106.119 121.467 106.422 121.837 106.635C122.206 106.848 122.644 106.955 123.151 106.955C123.487 106.955 123.795 106.907 124.074 106.812C124.353 106.718 124.592 106.576 124.791 106.386C124.99 106.197 125.142 105.965 125.246 105.69L128.044 105.875C127.902 106.547 127.611 107.134 127.17 107.636C126.735 108.134 126.171 108.522 125.48 108.801C124.794 109.076 124 109.213 123.101 109.213Z" fill="white"/>
</svg>
