<svg width="18" height="20" viewBox="0 0 18 20" fill="none" xmlns="http://www.w3.org/2000/svg">
<path d="M16.8211 0H0.694737C0.31579 0 0 0.31579 0 0.694737V19.3053C0 19.6842 0.31579 20 0.694737 20H16.8C17.1789 20 17.4947 19.6842 17.4947 19.3053V0.694737C17.5158 0.31579 17.2 0 16.8211 0ZM4.82105 16.3579H4.04211C3.66316 16.3579 3.34737 16.0421 3.34737 15.6632C3.34737 15.2842 3.66316 14.9684 4.04211 14.9684H4.82105C5.2 14.9684 5.51579 15.2842 5.51579 15.6632C5.51579 16.0421 5.2 16.3579 4.82105 16.3579ZM4.82105 12.5895H4.04211C3.66316 12.5895 3.34737 12.2737 3.34737 11.8947C3.34737 11.5158 3.66316 11.2 4.04211 11.2H4.82105C5.2 11.2 5.51579 11.5158 5.51579 11.8947C5.51579 12.2737 5.2 12.5895 4.82105 12.5895ZM4.82105 8.8H4.04211C3.66316 8.8 3.34737 8.48421 3.34737 8.10526C3.34737 7.72632 3.66316 7.41053 4.04211 7.41053H4.82105C5.2 7.41053 5.51579 7.72632 5.51579 8.10526C5.51579 8.48421 5.2 8.8 4.82105 8.8ZM4.82105 5.03158H4.04211C3.66316 5.03158 3.34737 4.71579 3.34737 4.33684C3.34737 3.95789 3.66316 3.64211 4.04211 3.64211H4.82105C5.2 3.64211 5.51579 3.95789 5.51579 4.33684C5.51579 4.71579 5.2 5.03158 4.82105 5.03158ZM13.4737 16.3579H7.49474C7.11579 16.3579 6.8 16.0421 6.8 15.6632C6.8 15.2842 7.11579 14.9684 7.49474 14.9684H13.4737C13.8526 14.9684 14.1684 15.2842 14.1684 15.6632C14.1684 16.0421 13.8526 16.3579 13.4737 16.3579ZM13.4737 12.5895H7.49474C7.11579 12.5895 6.8 12.2737 6.8 11.8947C6.8 11.5158 7.11579 11.2 7.49474 11.2H13.4737C13.8526 11.2 14.1684 11.5158 14.1684 11.8947C14.1684 12.2737 13.8526 12.5895 13.4737 12.5895ZM13.4737 8.8H7.49474C7.11579 8.8 6.8 8.48421 6.8 8.10526C6.8 7.72632 7.11579 7.41053 7.49474 7.41053H13.4737C13.8526 7.41053 14.1684 7.72632 14.1684 8.10526C14.1684 8.48421 13.8526 8.8 13.4737 8.8ZM13.4737 5.03158H7.49474C7.11579 5.03158 6.8 4.71579 6.8 4.33684C6.8 3.95789 7.11579 3.64211 7.49474 3.64211H13.4737C13.8526 3.64211 14.1684 3.95789 14.1684 4.33684C14.1684 4.71579 13.8526 5.03158 13.4737 5.03158Z" fill="#323232"/>
</svg>
