<svg width="146" height="146" viewBox="0 0 146 146" fill="none" xmlns="http://www.w3.org/2000/svg">
<path d="M132.551 2.49976H13.4501C7.52164 2.49976 2.69922 7.32218 2.69922 13.2507V103.704C2.69922 109.633 7.52164 114.455 13.4501 114.455H53.1577L47.8265 127.617H40.1504C35.7704 127.617 32.2089 131.179 32.2089 135.559C32.2089 139.939 35.7704 143.5 40.1504 143.5H105.806C110.186 143.5 113.748 139.939 113.748 135.559C113.748 131.179 110.186 127.617 105.806 127.617H98.1301L92.7989 114.455H132.507C138.435 114.455 143.257 109.633 143.257 103.704V13.2507C143.302 7.32218 138.479 2.49976 132.551 2.49976ZM109.921 135.559C109.921 137.815 108.085 139.629 105.85 139.629H40.1726C37.9162 139.629 36.1023 137.793 36.1023 135.559C36.1023 133.325 37.9383 131.489 40.1726 131.489H105.828C108.085 131.489 109.921 133.325 109.921 135.559ZM93.9935 127.617H52.0074L57.3386 114.455H88.6401L93.9935 127.617ZM139.43 103.704C139.43 107.509 136.333 110.584 132.551 110.584H13.4501C9.64528 110.584 6.57043 107.487 6.57043 103.704V13.2507C6.57043 9.44582 9.6674 6.37097 13.4501 6.37097H132.529C136.333 6.37097 139.408 9.46794 139.408 13.2507V103.704H139.43Z" fill="#FA9411"/>
<path d="M132.551 11.304H13.4506C12.3888 11.304 11.5039 12.1667 11.5039 13.2506V90.4536C11.5039 91.5155 12.3666 92.4003 13.4506 92.4003H132.529C133.591 92.4003 134.476 91.5376 134.476 90.4536V13.2506C134.476 12.1667 133.613 11.304 132.551 11.304ZM130.604 88.5291H15.3972V15.1752H130.604V88.5291Z" fill="#FA9411"/>
<path d="M73.0002 102.421C74.2219 102.421 75.2123 101.431 75.2123 100.209C75.2123 98.9875 74.2219 97.9971 73.0002 97.9971C71.7785 97.9971 70.7881 98.9875 70.7881 100.209C70.7881 101.431 71.7785 102.421 73.0002 102.421Z" fill="#FA9411"/>
<path d="M43.0483 65.5011C55.5467 65.5011 65.7225 55.3253 65.7225 42.8268C65.7225 30.3283 55.5467 20.1526 43.0483 20.1526C30.5498 20.1526 20.374 30.3283 20.374 42.849C20.374 55.3474 30.5498 65.5011 43.0483 65.5011ZM43.0483 61.6299C38.5577 61.6299 34.4431 60.0371 31.2134 57.4047L43.8668 44.7514H61.7628C60.7895 54.2414 52.7595 61.6299 43.0483 61.6299ZM61.7628 40.9023H44.9949V24.1344C53.8213 25.0414 60.8558 32.0759 61.7628 40.9023ZM41.1237 24.1344V42.0305L28.4704 54.6838C25.838 51.4541 24.2452 47.3174 24.2452 42.849C24.2452 33.1156 31.6558 25.1077 41.1237 24.1344Z" fill="#FA9411"/>
<path d="M71.9164 83.5297H82.5346C83.5964 83.5297 84.4812 82.667 84.4812 81.5831V61.3422C84.4812 60.2804 83.6185 59.3955 82.5346 59.3955H71.9164C70.8546 59.3955 69.9697 60.2582 69.9697 61.3422V81.5831C69.9697 82.667 70.8325 83.5297 71.9164 83.5297ZM73.8409 63.2888H80.5879V79.6585H73.8409V63.2888Z" fill="#FA9411"/>
<path d="M102.001 46.145H91.3832C90.3214 46.145 89.4365 47.0077 89.4365 48.0917V81.6053C89.4365 82.6671 90.2993 83.552 91.3832 83.552H102.001C103.063 83.552 103.948 82.6893 103.948 81.6053V48.0696C103.926 47.0077 103.063 46.145 102.001 46.145ZM100.055 79.6586H93.3077V50.0162H100.055V79.6586Z" fill="#FA9411"/>
<path d="M121.468 66.0762H110.85C109.788 66.0762 108.903 66.9389 108.903 68.0228V81.6274C108.903 82.6892 109.766 83.574 110.85 83.574H121.468C122.53 83.574 123.415 82.7113 123.415 81.6274V68.0228C123.415 66.9389 122.552 66.0762 121.468 66.0762ZM119.544 79.6586H112.797V69.9253H119.544V79.6586Z" fill="#FA9411"/>
<path d="M22.3207 74.2388H57.5155C58.5774 74.2388 59.4622 73.3761 59.4622 72.2921C59.4622 71.2082 58.5995 70.3455 57.5155 70.3455H22.3207C21.2589 70.3455 20.374 71.2082 20.374 72.2921C20.374 73.3761 21.2368 74.2388 22.3207 74.2388Z" fill="#FA9411"/>
<path d="M22.3207 83.5298H43.0483C44.1101 83.5298 44.9949 82.6671 44.9949 81.5831C44.9949 80.4992 44.1322 79.6365 43.0483 79.6365H22.3207C21.2589 79.6365 20.374 80.4992 20.374 81.5831C20.374 82.6671 21.2368 83.5298 22.3207 83.5298Z" fill="#FA9411"/>
<path d="M71.9164 50.016C72.4031 50.016 72.9119 49.8391 73.2879 49.4409L91.8919 30.8369L109.478 48.4233C110.23 49.1754 111.469 49.1754 112.221 48.4233L122.618 38.0263V39.4642C122.618 40.526 123.481 41.4109 124.565 41.4109C125.649 41.4109 126.512 40.5481 126.512 39.4642V33.0269C126.512 31.9651 125.649 31.0803 124.565 31.0803H118.128C117.066 31.0803 116.181 31.943 116.181 33.0269C116.181 34.1109 117.044 34.9736 118.128 34.9736H120.229L110.872 44.3309L93.2855 26.7445C92.5334 25.9924 91.2946 25.9924 90.5425 26.7445L70.567 46.72C69.8149 47.4721 69.8149 48.7109 70.567 49.463C70.921 49.8169 71.4076 50.016 71.9164 50.016Z" fill="#FA9411"/>
</svg>
