<svg width="26" height="26" viewBox="0 0 26 26" fill="none" xmlns="http://www.w3.org/2000/svg">
<path d="M24.346 12.4887L13.5126 1.65533C13.3773 1.52081 13.1943 1.44531 13.0035 1.44531C12.8127 1.44531 12.6296 1.52081 12.4943 1.65533L1.66097 12.4887C1.54265 12.6268 1.48082 12.8045 1.48784 12.9863C1.49486 13.1681 1.57022 13.3405 1.69884 13.4691C1.82746 13.5978 1.99989 13.6731 2.18165 13.6801C2.36342 13.6871 2.54114 13.6253 2.6793 13.507L12.9999 3.18644L23.3204 13.5142C23.4586 13.6325 23.6363 13.6944 23.8181 13.6873C23.9998 13.6803 24.1723 13.605 24.3009 13.4764C24.4295 13.3477 24.5048 13.1753 24.5119 12.9935C24.5189 12.8118 24.4571 12.634 24.3387 12.4959L24.346 12.4887Z" fill="#F2F2F2"/>
<path d="M20.2229 23.1126H16.6118V15.8903H9.38954V23.1126H5.77843V13.0015L4.33398 14.4459V23.1126C4.33398 23.4957 4.48617 23.8631 4.75705 24.1339C5.02794 24.4048 5.39534 24.557 5.77843 24.557H10.834V17.3348H15.1673V24.557H20.2229C20.606 24.557 20.9734 24.4048 21.2442 24.1339C21.5151 23.8631 21.6673 23.4957 21.6673 23.1126V14.2726L20.2229 12.8281V23.1126Z" fill="#F2F2F2"/>
</svg>
