<svg width="40" height="40" viewBox="0 0 40 40" fill="none" xmlns="http://www.w3.org/2000/svg">
<path d="M20.0007 3.33331C10.8173 3.33331 3.33398 10.8166 3.33398 20C3.33398 29.1833 10.8173 36.6666 20.0007 36.6666C29.184 36.6666 36.6673 29.1833 36.6673 20C36.6673 10.8166 29.184 3.33331 20.0007 3.33331ZM27.2507 25.95C27.1672 26.092 27.0564 26.216 26.9246 26.3149C26.7928 26.4137 26.6427 26.4854 26.4829 26.5257C26.3232 26.566 26.1571 26.5742 25.9942 26.5497C25.8313 26.5253 25.6748 26.4687 25.534 26.3833L20.3673 23.3C19.084 22.5333 18.134 20.85 18.134 19.3666V12.5333C18.134 11.85 18.7007 11.2833 19.384 11.2833C20.0673 11.2833 20.634 11.85 20.634 12.5333V19.3666C20.634 19.9666 21.134 20.85 21.6507 21.15L26.8173 24.2333C27.4173 24.5833 27.6173 25.35 27.2507 25.95Z" fill="white"/>
</svg>
