<svg width="68" height="68" viewBox="0 0 68 68" fill="none" xmlns="http://www.w3.org/2000/svg">
<g clip-path="url(#clip0_2446_35978)">
<path d="M25.0501 39.5904C22.8601 36.9727 19.9881 35.9294 16.865 35.4939C12.7214 31.829 4.75779 40.2995 3.12954 43.6027C-0.639878 51.2507 5.03101 58.3544 12.3697 60.2177C19.905 62.1305 26.2992 57.0839 27.2848 49.5593C27.7249 46.2026 27.3133 42.2951 25.0501 39.5904ZM23.8756 48.5713C23.5621 54.5193 18.9298 57.865 13.2978 56.8531C7.42363 55.7973 3.824 50.2266 6.61468 44.6421C7.70505 42.4599 9.68963 40.664 11.697 39.355C12.1522 39.0582 12.6119 38.856 13.0767 38.7122C13.1684 38.7347 13.259 38.7582 13.3588 38.7682C16.335 39.0711 19.3386 39.1838 21.7223 41.2247C23.7565 42.9657 24.0047 46.1223 23.8756 48.5713Z" fill="white"/>
<path d="M67.9776 28.2698C67.9545 27.8168 67.7016 27.3652 67.1544 27.1523C64.1783 25.9924 60.7926 26.1415 57.6538 25.8775C56.7122 25.7983 54.789 25.9171 54.5771 25.0689C54.1808 23.4835 54.1387 21.8402 53.9797 20.2159C57.8165 19.9045 60.3175 12.5312 55.6835 11.6488C52.778 11.0955 49.9574 14.0738 48.6412 16.2674C47.1032 18.8313 46.7522 22.5151 47.5694 25.5354C42.6643 24.7536 37.7046 24.7226 32.7474 24.5942C31.7972 19.0602 31.7074 11.1262 28.0924 6.83961C26.742 5.2381 23.7355 6.0681 22.0341 6.1719C16.8819 6.48613 11.7185 5.5823 6.53203 5.91437C5.96134 5.95111 5.45306 6.372 5.46519 6.98121C5.60822 14.1163 4.04488 21.1928 4.74576 28.3144C4.75076 28.3636 4.76788 28.4017 4.78143 28.4431C4.7693 28.4538 4.75646 28.4642 4.74434 28.4749C2.57321 29.1554 -0.254206 31.4111 0.0182988 33.7185C0.0496868 33.9831 0.238728 34.1764 0.455591 34.2353C0.536558 34.3872 0.674237 34.5014 0.850081 34.5699C4.57598 36.0215 8.58652 32.9733 12.1095 32.0171C20.0752 29.8549 26.6953 35.3585 28.402 42.7867C28.8778 44.8573 28.7494 48.4013 31.3696 49.1225C35.6301 50.2942 41.2226 50.3331 45.6458 50.1683C44.9328 51.956 44.6749 53.9691 44.9713 55.8206C45.8737 61.4583 51.3074 63.6915 56.2185 61.0695C59.8802 59.1153 60.9646 54.381 60.019 50.6327C59.7426 49.5359 59.1437 48.459 58.3479 47.526C60.2576 45.429 61.3587 41.2958 62.529 38.9553C64.2175 35.5771 66.1703 32.3327 67.8796 28.9853C68.003 28.7456 68.0244 28.4977 67.9776 28.2698ZM7.55677 8.09869C13.5273 8.40045 19.5324 8.71112 25.4943 8.4058C28.194 8.2674 29.7963 20.0336 30.5121 24.5221C29.2973 24.4779 28.0824 24.424 26.8697 24.3381C19.7867 23.8359 13.2851 23.8198 6.35262 25.0818C6.89442 19.4337 7.40661 13.766 7.55677 8.09869ZM55.6999 56.6845C54.1637 59.121 50.3586 59.2184 48.975 56.7002C48.2043 55.2977 48.4932 53.4544 48.8338 51.9888C49.0482 51.0675 49.7965 49.2384 50.8344 48.3891C53.1493 48.8557 54.8746 48.3941 56.1757 50.8246C57.1513 52.6469 56.7525 55.0149 55.6999 56.6845ZM60.4363 37.7318C59.6177 39.4368 57.1802 43.3317 56.7796 46.0771C54.8849 44.7167 52.4919 44.1757 50.3668 45.3966C50.1232 45.5364 49.9506 45.7422 49.8211 45.9701C48.6226 46.2647 47.4916 47.0691 46.7975 48.0296C46.7365 48.1138 46.6862 48.2069 46.6281 48.2932C46.4569 48.1313 46.2311 48.0121 45.9268 47.9982C42.9421 47.8591 40.0106 47.4611 37.0522 47.0691C33.8328 46.6428 31.8582 47.4721 31.2604 43.7223C30.5788 39.4478 29.1171 35.9167 25.9751 32.8931C23.4662 30.4787 19.9197 29.6526 16.5869 29.312C14.3794 29.0866 12.0766 29.5417 9.99113 30.2026C8.81872 30.5743 2.98982 33.9874 1.57094 33.1742C2.015 32.5646 2.50937 32.0449 3.2024 31.5887C4.17043 30.9517 5.34856 30.5311 6.1996 29.7411C6.28092 29.6655 6.32337 29.5581 6.36581 29.4536C8.38356 28.8084 10.3075 27.8528 12.3377 27.2215C15.4427 26.2556 18.3086 26.6198 21.4153 26.4289C21.736 26.4546 22.0402 26.4774 22.3181 26.4942C30.861 27.0107 39.5355 26.9204 48.0202 28.0707C49.2875 28.2427 49.9681 26.7004 49.2501 26.0127C49.8061 21.4846 48.9833 16.9355 53.7161 14.1409C55.4392 13.1233 56.3865 14.0927 55.8933 15.8323C55.4314 17.4612 53.8716 17.8076 52.7177 18.7492C52.3214 19.0724 52.3946 19.5043 52.6517 19.8164C52.1652 22.1109 51.123 26.8238 53.7286 27.6734C57.2244 28.8134 61.0758 28.5469 64.7286 29.1205C62.8097 31.5331 61.5078 35.5004 60.4363 37.7318Z" fill="white"/>
</g>
<defs>
<clipPath id="clip0_2446_35978">
<rect width="68" height="68" fill="white"/>
</clipPath>
</defs>
</svg>
