<svg width="20" height="19" viewBox="0 0 20 19" fill="none" xmlns="http://www.w3.org/2000/svg">
<g clip-path="url(#clip0_829_12912)">
<path d="M8.14318 0H2.20568C1.44175 0 0.820312 0.608958 0.820312 1.35755V4.84851C0.820312 5.59725 1.44175 6.20621 2.20568 6.20621H8.14318C8.90726 6.20621 9.52869 5.59725 9.52869 4.84851V1.35755C9.52869 0.608958 8.90726 0 8.14318 0Z" fill="#707070"/>
<path d="M8.14318 7.75763H2.20568C1.44175 7.75763 0.820312 8.36659 0.820312 9.11532V17.2609C0.820312 18.0095 1.44175 18.6185 2.20568 18.6185H8.14318C8.90726 18.6185 9.52869 18.0095 9.52869 17.2609V9.11532C9.52869 8.36659 8.90726 7.75763 8.14318 7.75763Z" fill="#707070"/>
<path d="M18.4348 12.4123H12.4973C11.7333 12.4123 11.1118 13.0213 11.1118 13.77V17.2609C11.1118 18.0095 11.7333 18.6185 12.4973 18.6185H18.4348C19.1988 18.6185 19.8202 18.0095 19.8202 17.2609V13.77C19.8202 13.0213 19.1988 12.4123 18.4348 12.4123Z" fill="#707070"/>
<path d="M18.4348 0H12.4973C11.7333 0 11.1118 0.608958 11.1118 1.35755V9.50313C11.1118 10.2519 11.7333 10.8608 12.4973 10.8608H18.4348C19.1988 10.8608 19.8202 10.2519 19.8202 9.50313V1.35755C19.8202 0.608958 19.1988 0 18.4348 0V0Z" fill="#707070"/>
</g>
<defs>
<clipPath id="clip0_829_12912">
<rect width="19" height="18.6185" fill="white" transform="translate(0.820312)"/>
</clipPath>
</defs>
</svg>
