<svg width="21" height="21" viewBox="0 0 21 21" fill="none" xmlns="http://www.w3.org/2000/svg">
<g clip-path="url(#clip0_1297_2817)">
<path d="M12.6875 7H19.6875C20.4111 7 21 6.41113 21 5.6875V1.3125C21 0.588875 20.4111 0 19.6875 0H12.6875C11.9639 0 11.375 0.588875 11.375 1.3125V5.6875C11.375 6.41113 11.9639 7 12.6875 7ZM19.6875 0.875C19.9281 0.875 20.125 1.071 20.125 1.3125V5.6875C20.125 5.929 19.9281 6.125 19.6875 6.125H12.6875C12.4469 6.125 12.25 5.929 12.25 5.6875V1.3125C12.25 1.071 12.4469 0.875 12.6875 0.875H19.6875Z" fill="white"/>
<path d="M12.6875 21H19.6875C20.4111 21 21 20.4111 21 19.6875V10.0625C21 9.33887 20.4111 8.75 19.6875 8.75H12.6875C11.9639 8.75 11.375 9.33887 11.375 10.0625V19.6875C11.375 20.4111 11.9639 21 12.6875 21ZM19.6875 9.625C19.9281 9.625 20.125 9.821 20.125 10.0625V19.6875C20.125 19.929 19.9281 20.125 19.6875 20.125H12.6875C12.4469 20.125 12.25 19.929 12.25 19.6875V10.0625C12.25 9.821 12.4469 9.625 12.6875 9.625H19.6875Z" fill="white"/>
<path d="M1.3125 21H8.3125C9.03613 21 9.625 20.4111 9.625 19.6875V15.3125C9.625 14.5889 9.03613 14 8.3125 14H1.3125C0.588875 14 0 14.5889 0 15.3125V19.6875C0 20.4111 0.588875 21 1.3125 21ZM8.3125 14.875C8.55313 14.875 8.75 15.071 8.75 15.3125V19.6875C8.75 19.929 8.55313 20.125 8.3125 20.125H1.3125C1.07187 20.125 0.875 19.929 0.875 19.6875V15.3125C0.875 15.071 1.07187 14.875 1.3125 14.875H8.3125Z" fill="white"/>
<path d="M1.3125 12.25H8.3125C9.03613 12.25 9.625 11.6611 9.625 10.9375V1.3125C9.625 0.588875 9.03613 0 8.3125 0H1.3125C0.588875 0 0 0.588875 0 1.3125V10.9375C0 11.6611 0.588875 12.25 1.3125 12.25ZM8.3125 0.875C8.55313 0.875 8.75 1.071 8.75 1.3125V10.9375C8.75 11.179 8.55313 11.375 8.3125 11.375H1.3125C1.07187 11.375 0.875 11.179 0.875 10.9375V1.3125C0.875 1.071 1.07187 0.875 1.3125 0.875H8.3125Z" fill="white"/>
</g>
<defs>
<clipPath id="clip0_1297_2817">
<rect width="21" height="21" fill="white" transform="matrix(-1 0 0 1 21 0)"/>
</clipPath>
</defs>
</svg>
