<svg width="25" height="25" viewBox="0 0 25 25" fill="none" xmlns="http://www.w3.org/2000/svg">
<g clip-path="url(#clip0_3627_13751)">
<path d="M14.4531 19.1406H13.7723L14.834 14.541C14.8472 14.4837 14.8473 14.4242 14.8344 14.3669C14.8214 14.3095 14.7956 14.2559 14.759 14.2099C14.7224 14.1639 14.6759 14.1267 14.6229 14.1012C14.57 14.0757 14.5119 14.0625 14.4531 14.0625H5.88867L5.45898 12.0289C5.44057 11.9414 5.39271 11.8629 5.3234 11.8065C5.25409 11.75 5.16751 11.7191 5.07813 11.7188H2.73438V12.5H4.76094L6.2582 19.6117C6.27667 19.6995 6.32476 19.7782 6.39439 19.8346C6.46403 19.8911 6.55097 19.9219 6.64063 19.9219H13.6719L13.0859 20.7031H6.64063V21.4844H13.2813C13.3419 21.4844 13.4017 21.4703 13.4559 21.4431C13.5102 21.416 13.5574 21.3766 13.5938 21.3281L14.7656 19.7656C14.8092 19.7076 14.8357 19.6386 14.8422 19.5663C14.8487 19.4941 14.835 19.4214 14.8025 19.3566C14.7701 19.2917 14.7202 19.2371 14.6585 19.199C14.5968 19.1608 14.5257 19.1406 14.4531 19.1406ZM12.9688 19.1406H6.95781L6.05469 14.8438H13.9621L12.9688 19.1406Z" fill="#F2F2F2"/>
<path d="M8.59375 21.875C8.36198 21.875 8.13541 21.9437 7.94269 22.0725C7.74998 22.2013 7.59978 22.3843 7.51108 22.5984C7.42238 22.8126 7.39918 23.0482 7.44439 23.2755C7.48961 23.5028 7.60122 23.7116 7.76511 23.8755C7.929 24.0394 8.13781 24.151 8.36513 24.1962C8.59245 24.2414 8.82808 24.2182 9.04221 24.1295C9.25634 24.0408 9.43936 23.8906 9.56813 23.6979C9.6969 23.5052 9.76563 23.2786 9.76563 23.0469C9.76563 22.7361 9.64216 22.438 9.42239 22.2182C9.20262 21.9985 8.90455 21.875 8.59375 21.875ZM8.59375 23.4375C8.51649 23.4375 8.44097 23.4146 8.37673 23.3717C8.31249 23.3287 8.26243 23.2677 8.23286 23.1964C8.20329 23.125 8.19556 23.0464 8.21063 22.9707C8.2257 22.8949 8.26291 22.8253 8.31754 22.7707C8.37217 22.716 8.44177 22.6788 8.51754 22.6638C8.59332 22.6487 8.67186 22.6564 8.74324 22.686C8.81461 22.7156 8.87562 22.7656 8.91854 22.8299C8.96147 22.8941 8.98438 22.9696 8.98438 23.0469C8.98438 23.1505 8.94322 23.2498 8.86996 23.3231C8.79671 23.3963 8.69735 23.4375 8.59375 23.4375Z" fill="#F2F2F2"/>
<path d="M12.1094 21.875C11.8776 21.875 11.651 21.9437 11.4583 22.0725C11.2656 22.2013 11.1154 22.3843 11.0267 22.5984C10.938 22.8126 10.9148 23.0482 10.96 23.2755C11.0052 23.5028 11.1168 23.7116 11.2807 23.8755C11.4446 24.0394 11.6534 24.151 11.8808 24.1962C12.1081 24.2414 12.3437 24.2182 12.5578 24.1295C12.772 24.0408 12.955 23.8906 13.0838 23.6979C13.2125 23.5052 13.2813 23.2786 13.2813 23.0469C13.2813 22.7361 13.1578 22.438 12.938 22.2182C12.7182 21.9985 12.4202 21.875 12.1094 21.875ZM12.1094 23.4375C12.0321 23.4375 11.9566 23.4146 11.8924 23.3717C11.8281 23.3287 11.7781 23.2677 11.7485 23.1964C11.7189 23.125 11.7112 23.0464 11.7263 22.9707C11.7413 22.8949 11.7785 22.8253 11.8332 22.7707C11.8878 22.716 11.9574 22.6788 12.0332 22.6638C12.1089 22.6487 12.1875 22.6564 12.2589 22.686C12.3302 22.7156 12.3912 22.7656 12.4342 22.8299C12.4771 22.8941 12.5 22.9696 12.5 23.0469C12.5 23.1505 12.4588 23.2498 12.3856 23.3231C12.3123 23.3963 12.213 23.4375 12.1094 23.4375Z" fill="#F2F2F2"/>
<path d="M3.125 17.1875H5.07812V17.9688H3.125V17.1875Z" fill="#F2F2F2"/>
<path d="M0.78125 18.75H4.29688V19.5312H0.78125V18.75Z" fill="#F2F2F2"/>
<path d="M2.73438 20.3125H5.46875V21.0938H2.73438V20.3125Z" fill="#F2F2F2"/>
<path d="M1.5625 17.1875H2.34375V17.9688H1.5625V17.1875Z" fill="#F2F2F2"/>
<path d="M23.0469 0.78125H10.9375C10.6267 0.78125 10.3286 0.904715 10.1089 1.12448C9.88909 1.34425 9.76563 1.64232 9.76562 1.95312V10.5469C9.76562 10.8577 9.88909 11.1557 10.1089 11.3755C10.3286 11.5953 10.6267 11.7187 10.9375 11.7187H11.7188V12.8906C11.7187 12.9679 11.7416 13.0434 11.7845 13.1076C11.8274 13.1719 11.8884 13.222 11.9598 13.2516C12.0072 13.2713 12.058 13.2814 12.1094 13.2812C12.213 13.2812 12.3123 13.2401 12.3855 13.1668L13.8336 11.7187H23.0469C23.3577 11.7187 23.6557 11.5953 23.8755 11.3755C24.0953 11.1557 24.2188 10.8577 24.2188 10.5469V1.95312C24.2187 1.64232 24.0953 1.34425 23.8755 1.12448C23.6557 0.904715 23.3577 0.78125 23.0469 0.78125ZM23.4375 10.5469C23.4375 10.6505 23.3963 10.7498 23.3231 10.8231C23.2498 10.8963 23.1505 10.9375 23.0469 10.9375H13.6719C13.5683 10.9375 13.4689 10.9787 13.3957 11.052L12.5 11.9477V11.3281C12.5 11.2245 12.4588 11.1252 12.3856 11.0519C12.3123 10.9787 12.213 10.9375 12.1094 10.9375H10.9375C10.8339 10.9375 10.7345 10.8963 10.6613 10.8231C10.588 10.7498 10.5469 10.6505 10.5469 10.5469V1.95312C10.5469 1.84952 10.588 1.75017 10.6613 1.67691C10.7345 1.60366 10.8339 1.5625 10.9375 1.5625H23.0469C23.1505 1.5625 23.2498 1.60366 23.3231 1.67691C23.3963 1.75017 23.4375 1.84952 23.4375 1.95312V10.5469Z" fill="#F2F2F2"/>
<path d="M21.875 2.73438C21.875 2.63077 21.8338 2.53142 21.7606 2.45816C21.6873 2.38491 21.588 2.34375 21.4844 2.34375H19.5312C19.4276 2.34375 19.3283 2.38491 19.255 2.45816C19.1818 2.53142 19.1406 2.63077 19.1406 2.73438V9.375H18.3594V5.07812C18.3594 4.97452 18.3182 4.87517 18.245 4.80191C18.1717 4.72866 18.0724 4.6875 17.9688 4.6875H16.0156C15.912 4.6875 15.8127 4.72866 15.7394 4.80191C15.6662 4.87517 15.625 4.97452 15.625 5.07812V9.375H14.8438V7.42188C14.8438 7.31827 14.8026 7.21892 14.7293 7.14566C14.6561 7.0724 14.5567 7.03125 14.4531 7.03125H12.5C12.3964 7.03125 12.297 7.0724 12.2238 7.14566C12.1505 7.21892 12.1094 7.31827 12.1094 7.42188V9.375H11.3281V10.1562H22.6562V9.375H21.875V2.73438ZM14.0625 9.375H12.8906V7.8125H14.0625V9.375ZM17.5781 9.375H16.4062V5.46875H17.5781V9.375ZM21.0938 9.375H19.9219V3.125H21.0938V9.375Z" fill="#F2F2F2"/>
</g>
<defs>
<clipPath id="clip0_3627_13751">
<rect width="25" height="25" fill="white"/>
</clipPath>
</defs>
</svg>
