<svg width="20" height="20" viewBox="0 0 20 20" fill="none" xmlns="http://www.w3.org/2000/svg">
<path d="M14.6484 14.0625C15.6193 14.0625 16.4062 13.2755 16.4062 12.3047C16.4062 11.3339 15.6193 10.5469 14.6484 10.5469C13.6776 10.5469 12.8906 11.3339 12.8906 12.3047C12.8906 13.2755 13.6776 14.0625 14.6484 14.0625Z" fill="#323232"/>
<path d="M14.6484 7.03125C11.7405 7.03125 9.375 9.39676 9.375 12.3047C9.375 15.1344 12.16 18.1411 14.2971 19.7362L14.6484 20L14.9998 19.7362C15.2012 19.5857 20 16.0698 20 12.3047C20 9.39676 17.5564 7.03125 14.6484 7.03125ZM14.6484 15.2344C13.0331 15.2344 11.7188 13.92 11.7188 12.3047C11.7188 10.6893 13.0331 9.375 14.6484 9.375C16.2638 9.375 17.5781 10.6893 17.5781 12.3047C17.5781 13.92 16.2638 15.2344 14.6484 15.2344Z" fill="#323232"/>
<path d="M8.78906 0H6.44531V4.46035L8.78906 3.67926V0Z" fill="#323232"/>
<path d="M9.96094 0V4.52387L5.27344 6.08656V0H0V15.2344H8.91023C8.44762 14.2511 8.20312 13.2643 8.20312 12.3047C8.20312 8.75074 11.0945 5.85938 14.6484 5.85938C14.8462 5.85938 15.0411 5.87152 15.2344 5.88906V0H9.96094ZM4.6875 12.8906H2.34375V11.7188H4.6875V12.8906ZM7.03125 10.5469H2.34375V9.375H7.03125V10.5469Z" fill="#323232"/>
</svg>
