<svg width="20" height="20" viewBox="0 0 20 20" fill="none" xmlns="http://www.w3.org/2000/svg">
<g clip-path="url(#clip0_3135_26764)">
<path d="M9.86909 7.3423C10.0572 7.4161 10.2418 7.23549 10.1794 7.04332C9.75139 5.72423 8.20154 5.23215 6.76077 6.40245C6.00291 7.01811 5.71812 7.14893 5.71094 7.15223C6.21056 7.65176 6.78134 9.32801 8.02699 9.5134C9.39918 9.76218 10.6137 8.41216 9.62004 7.7944C8.96658 7.38817 8.19721 7.15219 7.37251 7.15219C8.23709 6.9573 9.10021 7.04087 9.86909 7.3423Z" fill="#323232"/>
<path d="M16.0826 6.40187C13.5955 4.38171 12.0095 7.56753 12.9953 7.25173C13.6956 7.02744 14.4611 6.97858 15.2289 7.15165C13.9279 7.15165 12.7287 7.74787 11.9291 8.71833C11.9948 7.19324 12.0941 6.23862 12.2092 5.5285C12.8738 5.50565 13.7595 4.969 14.246 4.02995C15.0845 2.52922 14.6957 0.990481 14.5705 0.0195312C13.9153 0.657595 11.053 -0.0900476 9.91826 1.85435C9.41704 2.71327 9.56271 3.75846 10.09 4.52332C10.2569 4.76546 10.656 4.64928 10.6674 4.35543C10.7169 3.07716 11.3531 2.11139 12.5391 1.57648C12.0069 2.26603 11.6575 3.03803 11.477 3.83596C11.1964 5.07894 10.9033 5.89431 10.7957 9.85605C10.7847 10.2578 11.1102 10.5904 11.5121 10.5854C11.8031 10.5817 12.0523 10.3971 12.1642 10.1285C12.3344 9.71997 12.6113 9.29718 13.0621 8.90982C13.4904 9.38325 14.1421 9.63516 14.8165 9.51286C16.0569 9.32828 16.6357 7.64837 17.1325 7.15161C17.1253 7.1484 16.8404 7.01758 16.0826 6.40187Z" fill="#323232"/>
<path d="M19.7387 11.3396C18.9612 10.8121 18.115 11.188 17.7264 11.4124L12.8496 14.9818L9.99415 14.9824L9.28029 14.2685H11.9027C12.6914 14.2685 13.5746 13.7548 13.5746 12.8405C13.5746 11.8697 12.6914 11.4124 11.9027 11.4124H10.92C10.1899 11.4124 9.33682 11.4775 8.73529 11.1555C8.1638 10.8647 7.5057 10.6992 6.80321 10.6992C5.62359 10.6992 4.56782 11.1695 3.84436 11.9111L0 15.6956L4.28321 19.9788L5.71095 17.8372H12.4577C13.1772 17.8372 13.8718 17.5733 14.4097 17.0954L19.7875 12.3181C20.0865 12.0525 20.0696 11.5642 19.7387 11.3396Z" fill="#323232"/>
</g>
<defs>
<clipPath id="clip0_3135_26764">
<rect width="20" height="20" fill="white"/>
</clipPath>
</defs>
</svg>
