<svg width="26" height="26" viewBox="0 0 26 26" fill="none" xmlns="http://www.w3.org/2000/svg">
<path d="M24.346 12.4872L13.5126 1.65386C13.3773 1.51935 13.1943 1.44385 13.0035 1.44385C12.8127 1.44385 12.6296 1.51935 12.4943 1.65386L1.66097 12.4872C1.54265 12.6254 1.48082 12.8031 1.48784 12.9848C1.49486 13.1666 1.57022 13.339 1.69884 13.4677C1.82746 13.5963 1.99989 13.6716 2.18165 13.6787C2.36342 13.6857 2.54114 13.6239 2.6793 13.5055L12.9999 3.18498L23.3204 13.5128C23.4586 13.6311 23.6363 13.6929 23.8181 13.6859C23.9998 13.6789 24.1723 13.6035 24.3009 13.4749C24.4295 13.3463 24.5049 13.1738 24.5119 12.9921C24.5189 12.8103 24.4571 12.6326 24.3387 12.4944L24.346 12.4872Z" fill="white"/>
<path d="M20.2224 23.1111H16.6113V15.8889H9.38905V23.1111H5.77794V13L4.3335 14.4444V23.1111C4.3335 23.4942 4.48568 23.8616 4.75656 24.1325C5.02745 24.4034 5.39485 24.5555 5.77794 24.5555H10.8335V17.3333H15.1668V24.5555H20.2224C20.6055 24.5555 20.9729 24.4034 21.2438 24.1325C21.5146 23.8616 21.6668 23.4942 21.6668 23.1111V14.2711L20.2224 12.8267V23.1111Z" fill="white"/>
</svg>
