<svg width="27" height="26" viewBox="0 0 27 26" fill="none" xmlns="http://www.w3.org/2000/svg">
<path d="M24.936 12.4872L14.1026 1.65386C13.9673 1.51935 13.7843 1.44385 13.5935 1.44385C13.4027 1.44385 13.2196 1.51935 13.0843 1.65386L2.25096 12.4872C2.13265 12.6254 2.07082 12.8031 2.07784 12.9848C2.08486 13.1666 2.16021 13.339 2.28884 13.4677C2.41746 13.5963 2.58988 13.6716 2.77165 13.6787C2.95341 13.6857 3.13114 13.6239 3.2693 13.5055L13.5899 3.18498L23.9104 13.5128C24.0486 13.6311 24.2263 13.6929 24.4081 13.6859C24.5898 13.6789 24.7622 13.6035 24.8909 13.4749C25.0195 13.3463 25.0948 13.1738 25.1019 12.9921C25.1089 12.8103 25.0471 12.6326 24.9287 12.4944L24.936 12.4872Z" fill="#929292"/>
<path d="M20.8121 23.1111H17.201V15.8889H9.97874V23.1111H6.36763V13L4.92319 14.4444V23.1111C4.92319 23.4942 5.07537 23.8616 5.34626 24.1325C5.61714 24.4034 5.98454 24.5555 6.36763 24.5555H11.4232V17.3333H15.7565V24.5555H20.8121C21.1952 24.5555 21.5626 24.4034 21.8335 24.1325C22.1043 23.8616 22.2565 23.4942 22.2565 23.1111V14.2711L20.8121 12.8267V23.1111Z" fill="#929292"/>
</svg>
