<svg width="67" height="50" viewBox="0 0 67 50" fill="none" xmlns="http://www.w3.org/2000/svg">
<path d="M38.0276 1.6575C37.6429 1.28912 37.0369 1.28698 36.6496 1.65262L27.7649 10.0397C27.3488 10.4325 27.3465 11.0935 27.7597 11.4892L28.3839 12.0869C28.7677 12.4543 29.3717 12.4575 29.7594 12.0942L32.5182 9.50843C32.9039 9.14699 33.5042 9.14807 33.8885 9.51088L36.141 11.6372C36.3411 11.8261 36.4545 12.0892 36.4545 12.3644V18.3202C36.4545 21.416 33.825 23.8983 30.5455 23.8983V23.8983C29.9445 23.8983 29.6232 24.6311 29.9952 25.103C32.2542 27.9689 33.4914 31.4552 33.5 35.0546C33.4966 35.589 33.4661 36.1227 33.4087 36.6539C33.3414 37.2757 33.8114 37.8437 34.4369 37.8437H41.5637C42.0705 37.8437 42.4926 37.4634 42.5896 36.966C43.1213 34.239 44.5974 31.7455 46.7994 29.8854C49.2357 27.8274 52.3898 26.6889 55.6591 26.6874C57.6733 26.6884 59.6526 27.1213 61.4509 27.9442C62.1671 28.2719 63.0455 27.7802 63.0455 26.9927V15.5311C63.0455 12.4352 60.4159 9.95294 57.1364 9.95294H38.9497C38.6945 9.95294 38.4489 9.85533 38.2633 9.68011L36.0698 7.60953C35.6528 7.21584 35.6516 6.55281 36.0672 6.15763L38.6495 3.70242C39.0631 3.30918 39.0643 2.6501 38.6521 2.25541L38.0276 1.6575ZM9.86364 12.742C8.23864 12.742 6.90909 13.9971 6.90909 15.5311C6.90909 17.0651 8.23864 18.3202 9.86364 18.3202H23.6364C24.1886 18.3202 24.6459 17.8685 24.5418 17.3261C24.3288 16.2161 23.7624 15.1846 22.9056 14.3758C21.7975 13.3297 20.2945 12.742 18.7273 12.742H9.86364ZM-nan -nanL15.7727 21.1092C14.5731 21.1095 13.3793 21.2477 12.2176 21.52C11.646 21.6539 11.3554 22.2741 11.5781 22.8173L11.9395 23.6985C12.0964 24.0812 11.9029 24.5176 11.5139 24.6583V24.6583C11.1396 24.7936 10.726 24.6028 10.586 24.2303L10.226 23.2727C10.0276 22.7449 9.43052 22.4825 8.92451 22.7313C6.54998 23.8987 4.55628 25.6537 3.15695 27.8069C2.83574 28.3012 3.06432 28.9507 3.60675 29.1814L4.60164 29.6046C4.97209 29.7621 5.13384 30.1988 4.95544 30.5596V30.5596C4.79144 30.8914 4.3977 31.0383 4.05645 30.8952L2.93264 30.4237C2.42104 30.209 1.82865 30.451 1.65632 30.9784C1.22538 32.2971 1.00362 33.6708 1 35.0546C1.0003 36.1954 1.14889 37.3306 1.44147 38.4349C1.58445 38.9745 2.16801 39.2487 2.69236 39.0571L3.85431 38.6325C4.20691 38.5036 4.59822 38.6772 4.73935 39.0251V39.0251C4.89046 39.3976 4.69603 39.8203 4.31488 39.948L3.32704 40.2789C2.7629 40.4678 2.48514 41.1065 2.77714 41.6249C4.03243 43.8533 5.90597 45.7197 8.1977 47.0228C8.68252 47.2984 9.28805 47.0803 9.52347 46.5747L9.9746 45.6059C10.1432 45.2439 10.569 45.0816 10.9358 45.2396V45.2396C11.3189 45.4047 11.4891 45.8543 11.3114 46.2318L10.9198 47.0635C10.6698 47.5946 10.9284 48.2287 11.4924 48.3914C12.8779 48.791 14.3201 48.9966 15.7727 49C16.9724 48.9997 18.1662 48.8615 19.3279 48.5893C19.8995 48.4554 20.1901 47.8352 19.9673 47.292L19.606 46.4107C19.449 46.028 19.6425 45.5916 20.0316 45.451V45.451C20.4059 45.3157 20.8194 45.5064 20.9595 45.879L21.3194 46.8366C21.5178 47.3644 22.1149 47.6267 22.6209 47.378C24.9925 46.212 26.9841 44.46 28.3832 42.3105C28.7066 41.8136 28.4736 41.1603 27.9259 40.933L26.9558 40.5305C26.5789 40.374 26.411 39.9328 26.5887 39.5654V39.5654C26.753 39.2256 27.1546 39.0738 27.5027 39.2198L28.6128 39.6856C29.1244 39.9002 29.7168 39.6582 29.8891 39.1309C30.3201 37.8121 30.5418 36.4384 30.5455 35.0546C30.5452 33.9138 30.3966 32.7786 30.104 31.6744C29.961 31.1347 29.3774 30.8606 28.8531 31.0522L27.6911 31.4768C27.3385 31.6056 26.9472 31.432 26.8061 31.0842V31.0842C26.655 30.7117 26.8494 30.289 27.2306 30.1613L28.2184 29.8304C28.7826 29.6414 29.0603 29.0027 28.7683 28.4844C27.513 26.2559 25.6395 24.3896 23.3478 23.0865C22.8629 22.8108 22.2574 23.029 22.022 23.5345L21.5709 24.5034C21.4023 24.8654 20.9764 25.0277 20.6097 24.8696V24.8696C20.2266 24.7045 20.0564 24.2549 20.2341 23.8775L20.6256 23.0458C20.8757 22.5147 20.6171 21.8805 20.053 21.7178C18.6675 21.3182 17.2254 21.1126 15.7727 21.1092L-nan -nanL-nan -nanZM-nan -nanL15.7727 26.6874C18.1235 26.6874 20.378 27.5689 22.0403 29.1381C23.7025 30.7073 24.6364 32.8355 24.6364 35.0546C24.6364 37.2737 23.7025 39.402 22.0403 40.9711C20.378 42.5403 18.1235 43.4219 15.7727 43.4219C13.4219 43.4219 11.1674 42.5403 9.50519 40.9711C7.84294 39.402 6.90909 37.2737 6.90909 35.0546C6.90909 32.8355 7.84294 30.7073 9.50519 29.1381C11.1674 27.5689 13.4219 26.6874 15.7727 26.6874L-nan -nanL-nan -nanZM-nan -nanL55.6591 29.4765C52.9165 29.4765 50.2863 30.5049 48.347 32.3356C46.4077 34.1663 45.3182 36.6493 45.3182 39.2382C45.3182 41.8272 46.4077 44.3102 48.347 46.1409C50.2863 47.9715 52.9165 49 55.6591 49C58.4017 49 61.0319 47.9715 62.9712 46.1409C64.9105 44.3102 66 41.8272 66 39.2382C66 36.6493 64.9105 34.1663 62.9712 32.3356C61.0319 30.5049 58.4017 29.4765 55.6591 29.4765L-nan -nanL-nan -nanZM55.6591 35.0546C56.8345 35.0546 57.9617 35.4954 58.7929 36.28C59.624 37.0646 60.0909 38.1287 60.0909 39.2382C60.0909 40.3478 59.624 41.4119 58.7929 42.1965C57.9617 42.9811 56.8345 43.4219 55.6591 43.4219C54.4837 43.4219 53.3565 42.9811 52.5253 42.1965C51.6942 41.4119 51.2273 40.3478 51.2273 39.2382C51.2273 38.1287 51.6942 37.0646 52.5253 36.28C53.3565 35.4954 54.4837 35.0546 55.6591 35.0546Z" stroke="white" stroke-width="2"/>
</svg>
