<svg width="94" height="70" viewBox="0 0 94 70" fill="none" xmlns="http://www.w3.org/2000/svg">
<g clip-path="url(#clip0_1577_3138)">
<path d="M49.6875 24H56.6875C57.4111 24 58 23.4111 58 22.6875V18.3125C58 17.5889 57.4111 17 56.6875 17H49.6875C48.9639 17 48.375 17.5889 48.375 18.3125V22.6875C48.375 23.4111 48.9639 24 49.6875 24ZM56.6875 17.875C56.9281 17.875 57.125 18.071 57.125 18.3125V22.6875C57.125 22.929 56.9281 23.125 56.6875 23.125H49.6875C49.4469 23.125 49.25 22.929 49.25 22.6875V18.3125C49.25 18.071 49.4469 17.875 49.6875 17.875H56.6875Z" fill="#F2F2F2"/>
<path d="M49.6875 38H56.6875C57.4111 38 58 37.4111 58 36.6875V27.0625C58 26.3389 57.4111 25.75 56.6875 25.75H49.6875C48.9639 25.75 48.375 26.3389 48.375 27.0625V36.6875C48.375 37.4111 48.9639 38 49.6875 38ZM56.6875 26.625C56.9281 26.625 57.125 26.821 57.125 27.0625V36.6875C57.125 36.929 56.9281 37.125 56.6875 37.125H49.6875C49.4469 37.125 49.25 36.929 49.25 36.6875V27.0625C49.25 26.821 49.4469 26.625 49.6875 26.625H56.6875Z" fill="#F2F2F2"/>
<path d="M38.3125 38H45.3125C46.0361 38 46.625 37.4111 46.625 36.6875V32.3125C46.625 31.5889 46.0361 31 45.3125 31H38.3125C37.5889 31 37 31.5889 37 32.3125V36.6875C37 37.4111 37.5889 38 38.3125 38ZM45.3125 31.875C45.5531 31.875 45.75 32.071 45.75 32.3125V36.6875C45.75 36.929 45.5531 37.125 45.3125 37.125H38.3125C38.0719 37.125 37.875 36.929 37.875 36.6875V32.3125C37.875 32.071 38.0719 31.875 38.3125 31.875H45.3125Z" fill="#F2F2F2"/>
<path d="M38.3125 29.25H45.3125C46.0361 29.25 46.625 28.6611 46.625 27.9375V18.3125C46.625 17.5889 46.0361 17 45.3125 17H38.3125C37.5889 17 37 17.5889 37 18.3125V27.9375C37 28.6611 37.5889 29.25 38.3125 29.25ZM45.3125 17.875C45.5531 17.875 45.75 18.071 45.75 18.3125V27.9375C45.75 28.179 45.5531 28.375 45.3125 28.375H38.3125C38.0719 28.375 37.875 28.179 37.875 27.9375V18.3125C37.875 18.071 38.0719 17.875 38.3125 17.875H45.3125Z" fill="#F2F2F2"/>
</g>
<path d="M19.9833 54H17.158V45.2727H20.0728C20.9279 45.2727 21.6623 45.4474 22.2759 45.7969C22.8896 46.1435 23.3597 46.642 23.6864 47.2926C24.016 47.9403 24.1808 48.7173 24.1808 49.6236C24.1808 50.5327 24.0146 51.3139 23.6822 51.9673C23.3526 52.6207 22.8754 53.1236 22.2504 53.4759C21.6254 53.8253 20.8697 54 19.9833 54ZM18.4748 52.8494H19.9109C20.5756 52.8494 21.1282 52.7244 21.5685 52.4744C22.0089 52.2216 22.3384 51.8565 22.5572 51.3793C22.7759 50.8991 22.8853 50.3139 22.8853 49.6236C22.8853 48.9389 22.7759 48.358 22.5572 47.8807C22.3413 47.4034 22.0188 47.0412 21.5898 46.794C21.1609 46.5469 20.6282 46.4233 19.9918 46.4233H18.4748V52.8494ZM27.6207 54.1449C27.206 54.1449 26.831 54.0682 26.4957 53.9148C26.1605 53.7585 25.8949 53.5327 25.6989 53.2372C25.5057 52.9418 25.4091 52.5795 25.4091 52.1506C25.4091 51.7812 25.4801 51.4773 25.6222 51.2386C25.7642 51 25.956 50.8111 26.1974 50.6719C26.4389 50.5327 26.7088 50.4276 27.0071 50.3565C27.3054 50.2855 27.6094 50.2315 27.919 50.1946C28.3111 50.1491 28.6293 50.1122 28.8736 50.0838C29.1179 50.0526 29.2955 50.0028 29.4062 49.9347C29.517 49.8665 29.5724 49.7557 29.5724 49.6023V49.5724C29.5724 49.2003 29.4673 48.9119 29.2571 48.7074C29.0497 48.5028 28.7401 48.4006 28.3281 48.4006C27.8991 48.4006 27.5611 48.4957 27.3139 48.6861C27.0696 48.8736 26.9006 49.0824 26.8068 49.3125L25.6094 49.0398C25.7514 48.642 25.9588 48.321 26.2315 48.0767C26.5071 47.8295 26.8239 47.6506 27.1818 47.5398C27.5398 47.4261 27.9162 47.3693 28.3111 47.3693C28.5724 47.3693 28.8494 47.4006 29.142 47.4631C29.4375 47.5227 29.7131 47.6335 29.9688 47.7955C30.2273 47.9574 30.4389 48.1889 30.6037 48.4901C30.7685 48.7884 30.8509 49.1761 30.8509 49.6534V54H29.6065V53.1051H29.5554C29.473 53.2699 29.3494 53.4318 29.1847 53.5909C29.0199 53.75 28.8082 53.8821 28.5497 53.9872C28.2912 54.0923 27.9815 54.1449 27.6207 54.1449ZM27.8977 53.1222C28.25 53.1222 28.5511 53.0526 28.8011 52.9134C29.054 52.7741 29.2457 52.5923 29.3764 52.3679C29.5099 52.1406 29.5767 51.8977 29.5767 51.6392V50.7955C29.5313 50.8409 29.4432 50.8835 29.3125 50.9233C29.1847 50.9602 29.0384 50.9929 28.8736 51.0213C28.7088 51.0469 28.5483 51.071 28.392 51.0938C28.2358 51.1136 28.1051 51.1307 28 51.1449C27.7528 51.1761 27.527 51.2287 27.3224 51.3026C27.1207 51.3764 26.9588 51.483 26.8366 51.6222C26.7173 51.7585 26.6577 51.9403 26.6577 52.1676C26.6577 52.483 26.7741 52.7216 27.0071 52.8835C27.2401 53.0426 27.5369 53.1222 27.8977 53.1222ZM37.4528 49.0526L36.2979 49.2571C36.2496 49.1094 36.1729 48.9687 36.0678 48.8352C35.9656 48.7017 35.8263 48.5923 35.6502 48.5071C35.4741 48.4219 35.2539 48.3793 34.9897 48.3793C34.6289 48.3793 34.3278 48.4602 34.0863 48.6222C33.8448 48.7812 33.7241 48.9872 33.7241 49.2401C33.7241 49.4588 33.805 49.6349 33.967 49.7685C34.1289 49.902 34.3903 50.0114 34.7511 50.0966L35.7908 50.3352C36.3931 50.4744 36.842 50.6889 37.1374 50.9787C37.4329 51.2685 37.5806 51.6449 37.5806 52.108C37.5806 52.5 37.467 52.8494 37.2397 53.1562C37.0153 53.4602 36.7013 53.6989 36.2979 53.8722C35.8974 54.0455 35.4329 54.1321 34.9045 54.1321C34.1715 54.1321 33.5735 53.9759 33.1104 53.6634C32.6474 53.348 32.3633 52.9006 32.2582 52.321L33.4897 52.1335C33.5664 52.4545 33.7241 52.6974 33.9627 52.8622C34.2013 53.0241 34.5124 53.1051 34.896 53.1051C35.3136 53.1051 35.6474 53.0185 35.8974 52.8452C36.1474 52.669 36.2724 52.4545 36.2724 52.2017C36.2724 51.9972 36.1957 51.8253 36.0423 51.6861C35.8917 51.5469 35.6602 51.4418 35.3477 51.3707L34.2397 51.1278C33.6289 50.9886 33.1772 50.767 32.8846 50.4631C32.5948 50.1591 32.4499 49.7741 32.4499 49.3082C32.4499 48.9219 32.5579 48.5838 32.7738 48.294C32.9897 48.0043 33.288 47.7784 33.6687 47.6165C34.0494 47.4517 34.4854 47.3693 34.9769 47.3693C35.6843 47.3693 36.2411 47.5227 36.6474 47.8295C37.0536 48.1335 37.3221 48.5412 37.4528 49.0526ZM40.2557 50.1136V54H38.9815V45.2727H40.2386V48.5199H40.3196C40.473 48.1676 40.7074 47.8878 41.0227 47.6804C41.3381 47.473 41.75 47.3693 42.2585 47.3693C42.7074 47.3693 43.0994 47.4616 43.4347 47.6463C43.7727 47.831 44.0341 48.1065 44.2188 48.473C44.4062 48.8366 44.5 49.2912 44.5 49.8366V54H43.2259V49.9901C43.2259 49.5099 43.1023 49.1378 42.8551 48.8736C42.608 48.6065 42.2642 48.473 41.8239 48.473C41.5227 48.473 41.2528 48.5369 41.0142 48.6648C40.7784 48.7926 40.5923 48.9801 40.456 49.2273C40.3224 49.4716 40.2557 49.767 40.2557 50.1136ZM46.3026 54V45.2727H47.5767V48.5156H47.6534C47.7273 48.3793 47.8338 48.2216 47.973 48.0426C48.1122 47.8636 48.3054 47.7074 48.5526 47.5739C48.7997 47.4375 49.1264 47.3693 49.5327 47.3693C50.0611 47.3693 50.5327 47.5028 50.9474 47.7699C51.3622 48.0369 51.6875 48.4219 51.9233 48.9247C52.1619 49.4276 52.2812 50.0327 52.2812 50.7401C52.2812 51.4474 52.1634 52.054 51.9276 52.5597C51.6918 53.0625 51.3679 53.4503 50.956 53.723C50.544 53.9929 50.0739 54.1278 49.5455 54.1278C49.1477 54.1278 48.8224 54.0611 48.5696 53.9276C48.3196 53.794 48.1236 53.6378 47.9815 53.4588C47.8395 53.2798 47.7301 53.1207 47.6534 52.9815H47.5469V54H46.3026ZM47.5511 50.7273C47.5511 51.1875 47.6179 51.5909 47.7514 51.9375C47.8849 52.2841 48.0781 52.5554 48.331 52.7514C48.5838 52.9446 48.8935 53.0412 49.2599 53.0412C49.6406 53.0412 49.9588 52.9403 50.2145 52.7386C50.4702 52.5341 50.6634 52.2571 50.794 51.9077C50.9276 51.5582 50.9943 51.1648 50.9943 50.7273C50.9943 50.2955 50.929 49.9077 50.7983 49.5639C50.6705 49.2202 50.4773 48.9489 50.2188 48.75C49.9631 48.5511 49.6435 48.4517 49.2599 48.4517C48.8906 48.4517 48.5781 48.5469 48.3224 48.7372C48.0696 48.9276 47.8778 49.1932 47.7472 49.5341C47.6165 49.875 47.5511 50.2727 47.5511 50.7273ZM56.4691 54.1321C55.8555 54.1321 55.32 53.9915 54.8626 53.7102C54.4052 53.429 54.0501 53.0355 53.7972 52.5298C53.5444 52.0241 53.418 51.4332 53.418 50.7571C53.418 50.0781 53.5444 49.4844 53.7972 48.9759C54.0501 48.4673 54.4052 48.0724 54.8626 47.7912C55.32 47.5099 55.8555 47.3693 56.4691 47.3693C57.0827 47.3693 57.6183 47.5099 58.0756 47.7912C58.533 48.0724 58.8881 48.4673 59.141 48.9759C59.3938 49.4844 59.5202 50.0781 59.5202 50.7571C59.5202 51.4332 59.3938 52.0241 59.141 52.5298C58.8881 53.0355 58.533 53.429 58.0756 53.7102C57.6183 53.9915 57.0827 54.1321 56.4691 54.1321ZM56.4734 53.0625C56.8711 53.0625 57.2006 52.9574 57.462 52.7472C57.7234 52.5369 57.9165 52.2571 58.0415 51.9077C58.1694 51.5582 58.2333 51.1733 58.2333 50.7528C58.2333 50.3352 58.1694 49.9517 58.0415 49.6023C57.9165 49.25 57.7234 48.9673 57.462 48.7543C57.2006 48.5412 56.8711 48.4347 56.4734 48.4347C56.0728 48.4347 55.7404 48.5412 55.4762 48.7543C55.2148 48.9673 55.0202 49.25 54.8924 49.6023C54.7674 49.9517 54.7049 50.3352 54.7049 50.7528C54.7049 51.1733 54.7674 51.5582 54.8924 51.9077C55.0202 52.2571 55.2148 52.5369 55.4762 52.7472C55.7404 52.9574 56.0728 53.0625 56.4734 53.0625ZM62.8473 54.1449C62.4325 54.1449 62.0575 54.0682 61.7223 53.9148C61.3871 53.7585 61.1214 53.5327 60.9254 53.2372C60.7322 52.9418 60.6357 52.5795 60.6357 52.1506C60.6357 51.7812 60.7067 51.4773 60.8487 51.2386C60.9908 51 61.1825 50.8111 61.424 50.6719C61.6655 50.5327 61.9354 50.4276 62.2337 50.3565C62.532 50.2855 62.8359 50.2315 63.1456 50.1946C63.5376 50.1491 63.8558 50.1122 64.1001 50.0838C64.3445 50.0526 64.522 50.0028 64.6328 49.9347C64.7436 49.8665 64.799 49.7557 64.799 49.6023V49.5724C64.799 49.2003 64.6939 48.9119 64.4837 48.7074C64.2763 48.5028 63.9666 48.4006 63.5547 48.4006C63.1257 48.4006 62.7876 48.4957 62.5405 48.6861C62.2962 48.8736 62.1271 49.0824 62.0334 49.3125L60.8359 49.0398C60.978 48.642 61.1854 48.321 61.4581 48.0767C61.7337 47.8295 62.0504 47.6506 62.4084 47.5398C62.7663 47.4261 63.1428 47.3693 63.5376 47.3693C63.799 47.3693 64.076 47.4006 64.3686 47.4631C64.6641 47.5227 64.9396 47.6335 65.1953 47.7955C65.4538 47.9574 65.6655 48.1889 65.8303 48.4901C65.995 48.7884 66.0774 49.1761 66.0774 49.6534V54H64.8331V53.1051H64.782C64.6996 53.2699 64.576 53.4318 64.4112 53.5909C64.2464 53.75 64.0348 53.8821 63.7763 53.9872C63.5178 54.0923 63.2081 54.1449 62.8473 54.1449ZM63.1243 53.1222C63.4766 53.1222 63.7777 53.0526 64.0277 52.9134C64.2805 52.7741 64.4723 52.5923 64.603 52.3679C64.7365 52.1406 64.8033 51.8977 64.8033 51.6392V50.7955C64.7578 50.8409 64.6697 50.8835 64.5391 50.9233C64.4112 50.9602 64.2649 50.9929 64.1001 51.0213C63.9354 51.0469 63.7749 51.071 63.6186 51.0938C63.4624 51.1136 63.3317 51.1307 63.2266 51.1449C62.9794 51.1761 62.7536 51.2287 62.549 51.3026C62.3473 51.3764 62.1854 51.483 62.0632 51.6222C61.9439 51.7585 61.8842 51.9403 61.8842 52.1676C61.8842 52.483 62.0007 52.7216 62.2337 52.8835C62.4666 53.0426 62.7635 53.1222 63.1243 53.1222ZM67.7745 54V47.4545H69.006V48.4943H69.0742C69.1935 48.142 69.4038 47.8651 69.7049 47.6634C70.0089 47.4588 70.3526 47.3565 70.7362 47.3565C70.8157 47.3565 70.9094 47.3594 71.0174 47.3651C71.1282 47.3707 71.2148 47.3778 71.2773 47.3864V48.6051C71.2262 48.5909 71.1353 48.5753 71.0046 48.5582C70.8739 48.5384 70.7433 48.5284 70.6126 48.5284C70.3114 48.5284 70.043 48.5923 69.8072 48.7202C69.5742 48.8452 69.3896 49.0199 69.2532 49.2443C69.1168 49.4659 69.0487 49.7187 69.0487 50.0028V54H67.7745ZM74.5959 54.1278C74.0675 54.1278 73.5959 53.9929 73.1811 53.723C72.7692 53.4503 72.4453 53.0625 72.2095 52.5597C71.9766 52.054 71.8601 51.4474 71.8601 50.7401C71.8601 50.0327 71.978 49.4276 72.2138 48.9247C72.4524 48.4219 72.7791 48.0369 73.1939 47.7699C73.6087 47.5028 74.0788 47.3693 74.6044 47.3693C75.0107 47.3693 75.3374 47.4375 75.5845 47.5739C75.8345 47.7074 76.0277 47.8636 76.1641 48.0426C76.3033 48.2216 76.4112 48.3793 76.4879 48.5156H76.5646V45.2727H77.8388V54H76.5945V52.9815H76.4879C76.4112 53.1207 76.3004 53.2798 76.1555 53.4588C76.0135 53.6378 75.8175 53.794 75.5675 53.9276C75.3175 54.0611 74.9936 54.1278 74.5959 54.1278ZM74.8771 53.0412C75.2436 53.0412 75.5533 52.9446 75.8061 52.7514C76.0618 52.5554 76.255 52.2841 76.3857 51.9375C76.5192 51.5909 76.5859 51.1875 76.5859 50.7273C76.5859 50.2727 76.5206 49.875 76.3899 49.5341C76.2592 49.1932 76.0675 48.9276 75.8146 48.7372C75.5618 48.5469 75.2493 48.4517 74.8771 48.4517C74.4936 48.4517 74.174 48.5511 73.9183 48.75C73.6626 48.9489 73.4695 49.2202 73.3388 49.5639C73.2109 49.9077 73.147 50.2955 73.147 50.7273C73.147 51.1648 73.2124 51.5582 73.343 51.9077C73.4737 52.2571 73.6669 52.5341 73.9226 52.7386C74.1811 52.9403 74.4993 53.0412 74.8771 53.0412Z" fill="#F2F2F2"/>
<defs>
<clipPath id="clip0_1577_3138">
<rect width="21" height="21" fill="white" transform="matrix(-1 0 0 1 58 17)"/>
</clipPath>
</defs>
</svg>
