<svg width="55" height="55" viewBox="0 0 55 55" fill="none" xmlns="http://www.w3.org/2000/svg">
<g clip-path="url(#clip0_1547_8734)">
<path d="M9.13864 48.8696C8.93894 48.6696 8.66179 48.5548 8.37927 48.5548C8.09675 48.5548 7.8196 48.6696 7.6198 48.8696C7.42 49.0695 7.30505 49.3465 7.30505 49.629C7.30505 49.9115 7.41989 50.1887 7.6198 50.3884C7.8196 50.5882 8.09675 50.7032 8.37927 50.7032C8.66179 50.7032 8.93894 50.5883 9.13864 50.3884C9.33844 50.1887 9.45349 49.9115 9.45349 49.629C9.45349 49.3465 9.33855 49.0694 9.13864 48.8696Z" fill="#FA9411"/>
<path d="M50.4372 19.6515C50.2374 19.4516 49.9613 19.3368 49.6777 19.3368C49.3952 19.3368 49.1181 19.4516 48.9183 19.6515C48.7186 19.8513 48.6035 20.1285 48.6035 20.411C48.6035 20.6935 48.7185 20.9707 48.9183 21.1704C49.1181 21.3702 49.3952 21.4852 49.6777 21.4852C49.9613 21.4852 50.2374 21.3703 50.4372 21.1704C50.638 20.9707 50.7529 20.6935 50.7529 20.411C50.7529 20.1285 50.638 19.8513 50.4372 19.6515Z" fill="#FA9411"/>
<path d="M54.6847 0.314639C54.4832 0.113223 54.2099 0 53.9249 0L27.4998 0.00139648C26.9066 0.00139648 26.4257 0.482432 26.4257 1.07562V4.14756L16.2432 6.87597C15.6701 7.02958 15.33 7.61857 15.4837 8.19156L20.761 27.8865L16.1957 32.4518C15.6146 31.6034 14.639 31.0455 13.5355 31.0455H3.22328C1.44631 31.0455 0.000732422 32.4911 0.000732422 34.268V51.7773C0.000732422 53.5543 1.44631 55 3.22328 55H13.5356C15.0452 55 16.3151 53.9563 16.6632 52.5529L17.9404 53.6668C18.9264 54.5266 20.1897 55.0001 21.498 55.0001H53.9251C54.5183 55.0001 54.9993 54.5191 54.9993 53.9259V1.07422C54.9991 0.789336 54.8861 0.516055 54.6847 0.314639ZM14.6096 51.7775C14.6096 52.3697 14.1277 52.8517 13.5354 52.8517H3.22317C2.63085 52.8517 2.14896 52.3698 2.14896 51.7775V34.2681C2.14896 33.6758 2.63085 33.1939 3.22317 33.1939H7.3051V45.5684C7.3051 46.1615 7.78613 46.6426 8.37932 46.6426C8.9725 46.6426 9.45353 46.1615 9.45353 45.5684V33.1939H13.5355C14.1278 33.1939 14.6097 33.6758 14.6097 34.2681V51.7775H14.6096ZM17.8368 8.67313L26.4257 6.37173V10.3522L25.7057 10.5452C25.4304 10.619 25.1959 10.7989 25.0534 11.0457C24.911 11.2924 24.8723 11.5856 24.9461 11.8608C25.359 13.4013 24.4415 14.9904 22.9009 15.4032C22.6254 15.4771 22.3905 15.6574 22.2481 15.9047C22.1058 16.1518 22.0674 16.4455 22.1419 16.721L26.3291 32.226H24.1731L23.0621 27.8793C23.0267 27.7409 22.9648 27.6134 22.882 27.5026L17.8368 8.67313ZM26.4257 15.2785V24.3429L24.4664 17.0881C25.2848 16.6655 25.9546 16.0333 26.4257 15.2785ZM41.8583 52.8516H21.4978C20.7088 52.8516 19.9468 52.566 19.3521 52.0475L16.758 49.7851V34.9279L21.4478 30.2381L22.2984 33.566C22.42 34.0416 22.8483 34.3741 23.3391 34.3741L44.4587 34.3754C45.288 34.3754 45.9626 35.05 45.9626 35.8793C45.9626 36.7086 45.288 37.3832 44.4587 37.3832H33.637C33.0438 37.3832 32.5628 37.8643 32.5628 38.4575C32.5628 39.0506 33.0438 39.5317 33.637 39.5317H47.821C48.6503 39.5317 49.3249 40.2063 49.3249 41.0356C49.3249 41.8649 48.6503 42.5395 47.821 42.5395H33.637C33.0438 42.5395 32.5628 43.0205 32.5628 43.6137C32.5628 44.2069 33.0438 44.6879 33.637 44.6879H45.5225C46.3518 44.6879 47.0264 45.3625 47.0264 46.1918C47.0264 47.0211 46.3518 47.6957 45.5225 47.6957H33.637C33.0438 47.6957 32.5628 48.1768 32.5628 48.77C32.5628 49.3631 33.0438 49.8442 33.637 49.8442H41.8583C42.6876 49.8442 43.3622 50.5188 43.3622 51.3481C43.3621 52.177 42.6875 52.8516 41.8583 52.8516ZM52.8509 52.8516H45.1853C45.3936 52.3925 45.5105 51.8837 45.5105 51.3477C45.5105 50.8116 45.3936 50.3028 45.1853 49.8438H45.5225C47.5363 49.8438 49.1747 48.2054 49.1747 46.1915C49.1747 45.6041 49.0345 45.0491 48.787 44.5569C50.3335 44.1321 51.4731 42.7147 51.4731 41.0354C51.4731 40.2207 51.2048 39.4675 50.7522 38.8595V25.2449C50.7522 24.6517 50.2712 24.1707 49.678 24.1707C49.0848 24.1707 48.6038 24.6517 48.6038 25.2449V37.4686C48.3513 37.4133 48.0895 37.3832 47.8208 37.3832H47.7855C47.9938 36.9242 48.1108 36.4154 48.1108 35.8793C48.1108 33.8654 46.4724 32.2271 44.4586 32.2271H42.7318C44.5653 31.4408 45.8531 29.6183 45.8531 27.5C45.8531 24.6652 43.547 22.359 40.7122 22.359C37.8776 22.359 35.5713 24.6652 35.5713 27.5C35.5713 29.6183 36.8592 31.4408 38.6927 32.2271H32.8207V11.8017C34.7397 11.3835 36.2539 9.86938 36.672 7.95029H44.7524C45.1705 9.86938 46.6847 11.3835 48.6037 11.8017V15.1414C48.6037 15.7346 49.0847 16.2157 49.6779 16.2157C50.2711 16.2157 50.7521 15.7346 50.7521 15.1414V10.8426C50.7521 10.2494 50.2711 9.76841 49.6779 9.76841C48.083 9.76841 46.7856 8.47086 46.7856 6.87607C46.7856 6.28289 46.3046 5.80186 45.7114 5.80186H35.713C35.1198 5.80186 34.6388 6.28289 34.6388 6.87607C34.6388 8.47097 33.3414 9.76841 31.7466 9.76841C31.1534 9.76841 30.6724 10.2494 30.6724 10.8426V32.227H28.5742V2.14962L52.8509 2.14844V52.8516ZM40.7124 30.4926C39.0623 30.4926 37.72 29.1501 37.72 27.5001C37.72 25.8501 39.0624 24.5075 40.7124 24.5075C42.3624 24.5075 43.7049 25.85 43.7049 27.5C43.7049 29.15 42.3625 30.4926 40.7124 30.4926Z" fill="white"/>
</g>
<defs>
<clipPath id="clip0_1547_8734">
<rect width="55" height="55" fill="white"/>
</clipPath>
</defs>
</svg>
