<svg width="55" height="55" viewBox="0 0 55 55" fill="none" xmlns="http://www.w3.org/2000/svg">
<path d="M47.7813 47.7812L46.1485 39.7891C44.6016 32.1406 37.8125 26.6406 29.9922 26.6406H24.6641C16.586 26.6406 9.71098 32.4844 8.42192 40.4766L7.21879 48.0391C7.04692 49.2422 7.39067 50.5313 8.1641 51.4766C8.93754 52.4219 10.1407 52.9375 11.3438 52.9375H22H33.1719H43.8282C45.1172 52.9375 46.3204 52.3359 47.0938 51.3906C47.7813 50.3594 48.0391 49.0703 47.7813 47.7812ZM29.9922 29.2188C30.336 29.2188 30.7657 29.2187 31.1094 29.3047C30.7657 31.0234 29.3047 32.3125 27.5 32.3125C25.6954 32.3125 24.2344 31.0234 23.8907 29.3047H24.6641H29.9922V29.2188ZM11.2579 50.2734C10.7422 50.2734 10.3125 50.1016 10.0547 49.6719C9.71098 49.3281 9.62504 48.8125 9.71098 48.3828L10.9141 40.8203C11.8594 35.2344 15.9844 30.8516 21.3125 29.5625C21.5704 31.2813 22.6016 32.7422 23.9766 33.6875L22.1719 50.1875H11.2579V50.2734ZM24.75 50.2734L26.3829 34.8047H27.4141H27.5H27.586H28.6172L30.25 50.2734H24.75ZM44.9454 49.6719C44.6016 50.0156 44.1719 50.2734 43.6563 50.2734H32.8282L31.0235 33.7734C32.3985 32.8281 33.3438 31.3672 33.6016 29.7344C38.586 31.1094 42.5391 35.1484 43.5704 40.3906L45.2032 48.3828C45.375 48.8125 45.2891 49.3281 44.9454 49.6719Z" fill="white"/>
<path d="M27.5 24.9219C33.7734 24.9219 38.9297 19.7656 38.9297 13.4922C38.9297 7.21875 33.7734 2.14844 27.5 2.14844C21.2266 2.14844 16.0703 7.30469 16.0703 13.5781C16.0703 19.8516 21.2266 24.9219 27.5 24.9219ZM27.5 4.72656C32.3984 4.72656 36.3516 8.67969 36.3516 13.5781C36.3516 18.4766 32.3984 22.3438 27.5 22.3438C22.6016 22.3438 18.6484 18.3906 18.6484 13.4922C18.6484 8.59375 22.6016 4.72656 27.5 4.72656Z" fill="white"/>
</svg>
