<svg width="66" height="66" viewBox="0 0 66 66" fill="none" xmlns="http://www.w3.org/2000/svg">
<path d="M55.6875 8.25H2.0625V49.5H55.6875V8.25ZM51.5625 45.375H6.1875V12.375H51.5625V45.375Z" fill="white"/>
<path d="M59.8125 18.5625V53.625H12.375V57.75H63.9375V18.5625H59.8125Z" fill="white"/>
<path d="M28.875 38.989C33.9926 38.989 38.1562 34.4596 38.1562 28.8922C38.1562 23.3249 33.9926 18.7955 28.875 18.7955C23.7574 18.7955 19.5938 23.3248 19.5938 28.8922C19.5938 34.4597 23.7574 38.989 28.875 38.989ZM28.875 22.9205C31.7182 22.9205 34.0312 25.5995 34.0312 28.8922C34.0312 32.185 31.7182 34.864 28.875 34.864C26.0318 34.864 23.7188 32.185 23.7188 28.8922C23.7188 25.5995 26.0318 22.9205 28.875 22.9205Z" fill="white"/>
<path d="M10.3125 17.5312H14.4375V40.2188H10.3125V17.5312Z" fill="white"/>
<path d="M43.3125 17.5312H47.4375V40.2188H43.3125V17.5312Z" fill="white"/>
</svg>
