<svg width="94" height="70" viewBox="0 0 94 70" fill="none" xmlns="http://www.w3.org/2000/svg">
<path d="M33.5014 45.2246L30.6772 53H29.5229L32.7748 44.4688H33.519L33.5014 45.2246ZM35.8686 53L33.0385 45.2246L33.0209 44.4688H33.7651L37.0287 53H35.8686ZM35.7221 49.8418V50.7676H30.9291V49.8418H35.7221ZM41.0244 52.2266C41.2822 52.2266 41.5205 52.1738 41.7392 52.0684C41.958 51.9629 42.1377 51.8184 42.2783 51.6348C42.4189 51.4473 42.499 51.2344 42.5185 50.9961H43.5498C43.5302 51.3711 43.4033 51.7207 43.1689 52.0449C42.9384 52.3652 42.6357 52.625 42.2607 52.8242C41.8857 53.0195 41.4736 53.1172 41.0244 53.1172C40.5478 53.1172 40.1318 53.0332 39.7763 52.8652C39.4248 52.6973 39.1318 52.4668 38.8974 52.1738C38.667 51.8809 38.4931 51.5449 38.3759 51.166C38.2627 50.7832 38.206 50.3789 38.206 49.9531V49.707C38.206 49.2812 38.2627 48.8789 38.3759 48.5C38.4931 48.1172 38.667 47.7793 38.8974 47.4863C39.1318 47.1934 39.4248 46.9629 39.7763 46.7949C40.1318 46.627 40.5478 46.543 41.0244 46.543C41.5205 46.543 41.9541 46.6445 42.3252 46.8477C42.6962 47.0469 42.9873 47.3203 43.1982 47.668C43.413 48.0117 43.5302 48.4023 43.5498 48.8398H42.5185C42.499 48.5781 42.4248 48.3418 42.2959 48.1309C42.1709 47.9199 41.999 47.752 41.7802 47.627C41.5654 47.498 41.3134 47.4336 41.0244 47.4336C40.6923 47.4336 40.413 47.5 40.1865 47.6328C39.9638 47.7617 39.7861 47.9375 39.6533 48.1602C39.5244 48.3789 39.4306 48.623 39.372 48.8926C39.3173 49.1582 39.29 49.4297 39.29 49.707V49.9531C39.29 50.2305 39.3173 50.5039 39.372 50.7734C39.4267 51.043 39.5185 51.2871 39.6474 51.5059C39.7802 51.7246 39.958 51.9004 40.1806 52.0332C40.4072 52.1621 40.6884 52.2266 41.0244 52.2266ZM47.7856 52.2266C48.0434 52.2266 48.2817 52.1738 48.5005 52.0684C48.7192 51.9629 48.8989 51.8184 49.0395 51.6348C49.1802 51.4473 49.2602 51.2344 49.2798 50.9961H50.311C50.2915 51.3711 50.1645 51.7207 49.9302 52.0449C49.6997 52.3652 49.397 52.625 49.022 52.8242C48.647 53.0195 48.2348 53.1172 47.7856 53.1172C47.3091 53.1172 46.893 53.0332 46.5376 52.8652C46.186 52.6973 45.893 52.4668 45.6587 52.1738C45.4282 51.8809 45.2544 51.5449 45.1372 51.166C45.0239 50.7832 44.9673 50.3789 44.9673 49.9531V49.707C44.9673 49.2812 45.0239 48.8789 45.1372 48.5C45.2544 48.1172 45.4282 47.7793 45.6587 47.4863C45.893 47.1934 46.186 46.9629 46.5376 46.7949C46.893 46.627 47.3091 46.543 47.7856 46.543C48.2817 46.543 48.7153 46.6445 49.0864 46.8477C49.4575 47.0469 49.7485 47.3203 49.9595 47.668C50.1743 48.0117 50.2915 48.4023 50.311 48.8398H49.2798C49.2602 48.5781 49.186 48.3418 49.0571 48.1309C48.9321 47.9199 48.7602 47.752 48.5415 47.627C48.3266 47.498 48.0747 47.4336 47.7856 47.4336C47.4536 47.4336 47.1743 47.5 46.9477 47.6328C46.7251 47.7617 46.5473 47.9375 46.4145 48.1602C46.2856 48.3789 46.1919 48.623 46.1333 48.8926C46.0786 49.1582 46.0512 49.4297 46.0512 49.707V49.9531C46.0512 50.2305 46.0786 50.5039 46.1333 50.7734C46.188 51.043 46.2798 51.2871 46.4087 51.5059C46.5415 51.7246 46.7192 51.9004 46.9419 52.0332C47.1684 52.1621 47.4497 52.2266 47.7856 52.2266ZM51.7227 49.9004V49.7656C51.7227 49.3086 51.7891 48.8848 51.9219 48.4941C52.0547 48.0996 52.2461 47.7578 52.4961 47.4688C52.7461 47.1758 53.0488 46.9492 53.4043 46.7891C53.7598 46.625 54.1582 46.543 54.5996 46.543C55.0449 46.543 55.4453 46.625 55.8008 46.7891C56.1602 46.9492 56.4648 47.1758 56.7148 47.4688C56.9688 47.7578 57.1621 48.0996 57.2949 48.4941C57.4277 48.8848 57.4941 49.3086 57.4941 49.7656V49.9004C57.4941 50.3574 57.4277 50.7812 57.2949 51.1719C57.1621 51.5625 56.9688 51.9043 56.7148 52.1973C56.4648 52.4863 56.1621 52.7129 55.8066 52.877C55.4551 53.0371 55.0566 53.1172 54.6113 53.1172C54.166 53.1172 53.7656 53.0371 53.4102 52.877C53.0547 52.7129 52.75 52.4863 52.4961 52.1973C52.2461 51.9043 52.0547 51.5625 51.9219 51.1719C51.7891 50.7812 51.7227 50.3574 51.7227 49.9004ZM52.8066 49.7656V49.9004C52.8066 50.2168 52.8438 50.5156 52.918 50.7969C52.9922 51.0742 53.1035 51.3203 53.252 51.5352C53.4043 51.75 53.5938 51.9199 53.8203 52.0449C54.0469 52.166 54.3105 52.2266 54.6113 52.2266C54.9082 52.2266 55.168 52.166 55.3906 52.0449C55.6172 51.9199 55.8047 51.75 55.9531 51.5352C56.1016 51.3203 56.2129 51.0742 56.2871 50.7969C56.3652 50.5156 56.4043 50.2168 56.4043 49.9004V49.7656C56.4043 49.4531 56.3652 49.1582 56.2871 48.8809C56.2129 48.5996 56.0996 48.3516 55.9473 48.1367C55.7988 47.918 55.6113 47.7461 55.3848 47.6211C55.1621 47.4961 54.9004 47.4336 54.5996 47.4336C54.3027 47.4336 54.041 47.4961 53.8145 47.6211C53.5918 47.7461 53.4043 47.918 53.252 48.1367C53.1035 48.3516 52.9922 48.5996 52.918 48.8809C52.8438 49.1582 52.8066 49.4531 52.8066 49.7656ZM63.2124 51.5352V46.6602H64.3023V53H63.2652L63.2124 51.5352ZM63.4175 50.1992L63.8687 50.1875C63.8687 50.6094 63.8237 51 63.7339 51.3594C63.648 51.7148 63.5073 52.0234 63.312 52.2852C63.1167 52.5469 62.8609 52.752 62.5445 52.9004C62.228 53.0449 61.8433 53.1172 61.3902 53.1172C61.0816 53.1172 60.7984 53.0723 60.5405 52.9824C60.2866 52.8926 60.0679 52.7539 59.8843 52.5664C59.7007 52.3789 59.5581 52.1348 59.4566 51.834C59.3589 51.5332 59.3101 51.1719 59.3101 50.75V46.6602H60.3941V50.7617C60.3941 51.0469 60.4253 51.2832 60.4878 51.4707C60.5542 51.6543 60.6421 51.8008 60.7515 51.9102C60.8648 52.0156 60.9898 52.0898 61.1265 52.1328C61.2671 52.1758 61.4116 52.1973 61.5601 52.1973C62.021 52.1973 62.3862 52.1094 62.6558 51.9336C62.9253 51.7539 63.1187 51.5137 63.2359 51.2129C63.357 50.9082 63.4175 50.5703 63.4175 50.1992ZM67.5186 48.0137V53H66.4346V46.6602H67.46L67.5186 48.0137ZM67.2608 49.5898L66.8096 49.5723C66.8135 49.1387 66.878 48.7383 67.003 48.3711C67.128 48 67.3037 47.6777 67.5303 47.4043C67.7569 47.1309 68.0264 46.9199 68.3389 46.7715C68.6553 46.6191 69.0049 46.543 69.3877 46.543C69.7002 46.543 69.9815 46.5859 70.2315 46.6719C70.4815 46.7539 70.6944 46.8867 70.8702 47.0703C71.0498 47.2539 71.1866 47.4922 71.2803 47.7852C71.3741 48.0742 71.4209 48.4277 71.4209 48.8457V53H70.3311V48.834C70.3311 48.502 70.2823 48.2363 70.1846 48.0371C70.087 47.834 69.9444 47.6875 69.7569 47.5977C69.5694 47.5039 69.3389 47.457 69.0655 47.457C68.7959 47.457 68.5498 47.5137 68.3272 47.627C68.1084 47.7402 67.919 47.8965 67.7588 48.0957C67.6026 48.2949 67.4795 48.5234 67.3897 48.7812C67.3037 49.0352 67.2608 49.3047 67.2608 49.5898ZM76.2017 46.6602V47.4922H72.774V46.6602H76.2017ZM73.9341 45.1191H75.0181V51.4297C75.0181 51.6445 75.0513 51.8066 75.1177 51.916C75.1841 52.0254 75.2701 52.0977 75.3755 52.1328C75.481 52.168 75.5943 52.1855 75.7154 52.1855C75.8052 52.1855 75.899 52.1777 75.9966 52.1621C76.0982 52.1426 76.1744 52.127 76.2252 52.1152L76.231 53C76.1451 53.0273 76.0318 53.0527 75.8912 53.0762C75.7545 53.1035 75.5884 53.1172 75.3931 53.1172C75.1275 53.1172 74.8834 53.0645 74.6607 52.959C74.438 52.8535 74.2603 52.6777 74.1275 52.4316C73.9986 52.1816 73.9341 51.8457 73.9341 51.4238V45.1191Z" fill="#F2F2F2"/>
<g clip-path="url(#clip0_1577_3126)">
<path d="M65 25.988C65 19.37 59.624 14 53 14C46.376 14 41 19.37 41 25.988C41 29.633 42.656 32.918 45.248 35.123C45.272 35.147 45.296 35.147 45.296 35.171C45.512 35.339 45.728 35.507 45.968 35.675C46.088 35.747 46.184 35.8415 46.304 35.9375C48.2871 37.282 50.6281 38.0005 53.024 38C55.4199 38.0005 57.7609 37.282 59.744 35.9375C59.864 35.8655 59.96 35.771 60.08 35.6975C60.296 35.531 60.536 35.363 60.752 35.195C60.776 35.171 60.8 35.171 60.8 35.147C63.344 32.9165 65 29.633 65 25.988V25.988ZM53 36.4895C50.744 36.4895 48.68 35.7695 46.976 34.571C47 34.379 47.048 34.1885 47.096 33.9965C47.239 33.4762 47.4487 32.9765 47.72 32.51C47.984 32.054 48.296 31.646 48.68 31.286C49.04 30.926 49.472 30.5915 49.904 30.3275C50.36 30.0635 50.84 29.8715 51.368 29.7275C51.9001 29.5841 52.4489 29.5119 53 29.513C54.636 29.5014 56.2118 30.129 57.392 31.262C57.944 31.814 58.376 32.462 58.688 33.2045C58.856 33.6365 58.976 34.0925 59.048 34.571C57.2768 35.8162 55.1652 36.4861 53 36.4895ZM49.328 25.3895C49.1165 24.9053 49.0102 24.3818 49.016 23.8535C49.016 23.327 49.112 22.799 49.328 22.319C49.544 21.839 49.832 21.4085 50.192 21.0485C50.552 20.6885 50.984 20.402 51.464 20.186C51.944 19.97 52.472 19.874 53 19.874C53.552 19.874 54.056 19.97 54.536 20.186C55.016 20.402 55.448 20.69 55.808 21.0485C56.168 21.4085 56.456 21.8405 56.672 22.319C56.888 22.799 56.984 23.327 56.984 23.8535C56.984 24.4055 56.888 24.9095 56.672 25.388C56.4635 25.8609 56.1708 26.2919 55.808 26.66C55.4398 27.0222 55.0088 27.3145 54.536 27.5225C53.5442 27.9301 52.4318 27.9301 51.44 27.5225C50.9672 27.3145 50.5362 27.0222 50.168 26.66C49.8047 26.2973 49.5189 25.8645 49.328 25.388V25.3895ZM60.464 33.3485C60.464 33.3005 60.44 33.2765 60.44 33.2285C60.204 32.4776 59.856 31.7666 59.408 31.1195C58.9595 30.4676 58.4084 29.8926 57.776 29.417C57.293 29.0537 56.7695 28.7476 56.216 28.505C56.4678 28.3389 56.7012 28.1463 56.912 27.9305C57.2698 27.5773 57.584 27.1824 57.848 26.7545C58.3795 25.8812 58.654 24.8757 58.64 23.8535C58.6474 23.0968 58.5004 22.3465 58.208 21.6485C57.9193 20.976 57.5037 20.3653 56.984 19.85C56.4651 19.34 55.8543 18.9329 55.184 18.65C54.4849 18.3581 53.7336 18.2116 52.976 18.2195C52.2183 18.2121 51.467 18.3591 50.768 18.6515C50.0919 18.9338 49.4797 19.3496 48.968 19.874C48.4581 20.3924 48.0509 21.0026 47.768 21.6725C47.4756 22.3705 47.3286 23.1208 47.336 23.8775C47.336 24.4055 47.408 24.9095 47.552 25.388C47.696 25.892 47.888 26.348 48.152 26.7785C48.392 27.2105 48.728 27.5945 49.088 27.9545C49.304 28.1705 49.544 28.361 49.808 28.529C49.2528 28.7781 48.7291 29.0923 48.248 29.465C47.624 29.945 47.072 30.5195 46.616 31.1435C46.1634 31.7879 45.8151 32.4997 45.584 33.2525C45.56 33.3005 45.56 33.3485 45.56 33.3725C43.664 31.454 42.488 28.865 42.488 25.988C42.488 20.21 47.216 15.4865 53 15.4865C58.784 15.4865 63.512 20.21 63.512 25.988C63.5089 28.7479 62.413 31.3943 60.464 33.3485V33.3485Z" fill="#F2F2F2"/>
</g>
<defs>
<clipPath id="clip0_1577_3126">
<rect width="24" height="24" fill="white" transform="translate(41 14)"/>
</clipPath>
</defs>
</svg>
