<svg width="55" height="55" viewBox="0 0 55 55" fill="none" xmlns="http://www.w3.org/2000/svg">
<path d="M43.606 7.20602H38.6302V4.98003C38.6302 4.25984 37.8446 3.93252 37.1244 3.93252H33.2616C32.3451 1.31366 30.0535 0.00423915 27.4347 0.00423915C24.8447 -0.0931313 22.4889 1.495 21.6078 3.93252H17.8104C17.0902 3.93252 16.3701 4.25984 16.3701 4.98003V7.20602H11.3941C8.44546 7.23747 6.03313 9.56358 5.89453 12.5091V50.0241C5.89453 52.9048 8.51338 54.9999 11.3941 54.9999H43.606C46.4867 54.9999 49.1056 52.9048 49.1056 50.0241V12.5093C48.967 9.56358 46.5546 7.23747 43.606 7.20602ZM18.9888 6.55137H22.5897C23.2183 6.47467 23.7232 5.99647 23.8337 5.3729C24.2215 3.68439 25.7028 2.47234 27.4347 2.42672C29.1505 2.47873 30.6096 3.69454 30.9701 5.3729C31.0875 6.01802 31.6258 6.50237 32.2795 6.55137H36.0114V11.7891H18.9888V6.55137ZM46.4867 50.0242C46.4867 51.4646 45.0463 52.3811 43.606 52.3811H11.3941C9.95376 52.3811 8.51338 51.4646 8.51338 50.0242V12.5093C8.64697 11.01 9.8891 9.85244 11.3941 9.82499H16.3699V13.164C16.4391 13.8976 17.0745 14.4464 17.8103 14.408H37.1242C37.8736 14.449 38.5289 13.9078 38.63 13.164V9.82487H43.6058C45.1108 9.85244 46.353 11.0099 46.4866 12.5091V50.0242H46.4867Z" fill="white"/>
<path d="M22.4587 29.2699C21.9676 28.7522 21.1523 28.723 20.6255 29.2044L16.4353 33.1981L14.6676 31.3649C14.1765 30.8472 13.3612 30.8181 12.8343 31.2995C12.3272 31.8308 12.3272 32.6668 12.8343 33.1981L15.5186 35.9479C15.7509 36.2081 16.0865 36.352 16.4352 36.3408C16.7805 36.3359 17.11 36.1947 17.3517 35.9479L22.4585 31.1031C22.9648 30.6387 22.9986 29.8517 22.534 29.3456C22.5102 29.3191 22.485 29.2939 22.4587 29.2699Z" fill="white"/>
<path d="M41.249 32.0851H26.1906C25.4675 32.0851 24.8812 32.6713 24.8812 33.3945C24.8812 34.1177 25.4675 34.7039 26.1906 34.7039H41.249C41.9722 34.7039 42.5584 34.1177 42.5584 33.3945C42.5584 32.6713 41.9722 32.0851 41.249 32.0851Z" fill="white"/>
<path d="M22.4587 18.7945C21.9676 18.2768 21.1523 18.2476 20.6255 18.729L16.4353 22.7227L14.6676 20.8895C14.1765 20.3718 13.3612 20.3426 12.8343 20.8241C12.3272 21.3554 12.3272 22.1914 12.8343 22.7227L15.5186 25.4725C15.7509 25.7327 16.0865 25.8766 16.4352 25.8654C16.7805 25.8605 17.11 25.7193 17.3517 25.4725L22.4585 20.6277C22.9648 20.1633 22.9986 19.3763 22.534 18.8701C22.5102 18.8437 22.485 18.8185 22.4587 18.7945Z" fill="white"/>
<path d="M41.249 21.6097H26.1906C25.4675 21.6097 24.8812 22.1959 24.8812 22.9191C24.8812 23.6423 25.4675 24.2285 26.1906 24.2285H41.249C41.9722 24.2285 42.5584 23.6423 42.5584 22.9191C42.5584 22.1959 41.9722 21.6097 41.249 21.6097Z" fill="white"/>
<path d="M22.4587 39.7452C21.9676 39.2275 21.1523 39.1984 20.6255 39.6797L16.4353 43.6734L14.6676 41.8402C14.1765 41.3225 13.3612 41.2934 12.8343 41.7748C12.3272 42.3061 12.3272 43.1421 12.8343 43.6734L15.5186 46.4232C15.7509 46.6834 16.0865 46.8273 16.4352 46.8161C16.7805 46.8112 17.11 46.67 17.3517 46.4232L22.4585 41.5784C22.9648 41.114 22.9986 40.327 22.534 39.8208C22.5102 39.7945 22.485 39.7693 22.4587 39.7452Z" fill="white"/>
<path d="M41.249 42.5605H26.1906C25.4675 42.5605 24.8812 43.1467 24.8812 43.8699C24.8812 44.5931 25.4675 45.1793 26.1906 45.1793H41.249C41.9722 45.1793 42.5584 44.5931 42.5584 43.8699C42.5584 43.1467 41.9722 42.5605 41.249 42.5605Z" fill="white"/>
</svg>
