<svg width="63" height="81" viewBox="0 0 63 81" fill="none" xmlns="http://www.w3.org/2000/svg">
<path d="M54.9818 11.0061H47.7273V7.76069C47.7273 6.71068 46.5819 6.23345 45.5319 6.23345H39.9002C38.5639 2.41527 35.2229 0.506181 31.4047 0.506181C27.6286 0.364218 24.1939 2.67965 22.9093 6.23345H17.3729C16.3229 6.23345 15.2729 6.71068 15.2729 7.76069V11.0061H8.01822C3.71915 11.0519 0.202072 14.4433 0 18.7378V73.4331C0 77.6331 3.81818 80.6876 8.01822 80.6876H54.9818C59.1818 80.6876 63 77.6331 63 73.4331V18.738C62.7979 14.4433 59.2808 11.0519 54.9818 11.0061ZM19.0909 10.0516H24.341C25.2574 9.93982 25.9935 9.24261 26.1547 8.33347C26.72 5.8717 28.8797 4.10457 31.4047 4.03806C33.9063 4.11389 36.0336 5.8865 36.5592 8.33347C36.7304 9.27404 37.5151 9.9802 38.4683 10.0516H43.9093V17.688H19.0909V10.0516ZM59.1818 73.4333C59.1818 75.5333 57.0818 76.8696 54.9818 76.8696H8.01822C5.9182 76.8696 3.81818 75.5333 3.81818 73.4333V18.738C4.01295 16.5521 5.82392 14.8645 8.01822 14.8245H15.2727V19.6926C15.3736 20.7622 16.2999 21.5623 17.3727 21.5064H45.5317C46.6243 21.5661 47.5796 20.777 47.7271 19.6926V14.8243H54.9816C57.1757 14.8645 58.9869 16.5519 59.1816 18.7378V73.4333H59.1818Z" fill="#333333"/>
<path d="M24.149 43.1743C23.433 42.4195 22.2443 42.377 21.4762 43.0789L15.3671 48.9015L12.7899 46.2288C12.0738 45.474 10.8852 45.4316 10.1171 46.1334C9.37765 46.9081 9.37765 48.1269 10.1171 48.9015L14.0306 52.9107C14.3693 53.29 14.8586 53.4997 15.3669 53.4834C15.8705 53.4763 16.3508 53.2704 16.7032 52.9107L24.1487 45.8471C24.8868 45.17 24.9361 44.0226 24.2588 43.2846C24.2241 43.2461 24.1874 43.2094 24.149 43.1743Z" fill="#333333"/>
<path d="M51.5452 47.2788H29.5907C28.5363 47.2788 27.6816 48.1335 27.6816 49.1879C27.6816 50.2423 28.5363 51.097 29.5907 51.097H51.5452C52.5996 51.097 53.4543 50.2423 53.4543 49.1879C53.4543 48.1335 52.5996 47.2788 51.5452 47.2788Z" fill="#333333"/>
<path d="M24.149 27.9016C23.433 27.1468 22.2443 27.1042 21.4762 27.8062L15.3671 33.6288L12.7899 30.956C12.0738 30.2013 10.8852 30.1587 10.1171 30.8607C9.37765 31.6353 9.37765 32.8542 10.1171 33.6288L14.0306 37.638C14.3693 38.0173 14.8586 38.227 15.3669 38.2107C15.8705 38.2036 16.3508 37.9977 16.7032 37.638L24.1487 30.5744C24.8868 29.8973 24.9361 28.7499 24.2588 28.0119C24.2241 27.9734 24.1874 27.9367 24.149 27.9016Z" fill="#333333"/>
<path d="M51.5452 32.0061H29.5907C28.5363 32.0061 27.6816 32.8608 27.6816 33.9152C27.6816 34.9696 28.5363 35.8243 29.5907 35.8243H51.5452C52.5996 35.8243 53.4543 34.9696 53.4543 33.9152C53.4543 32.8608 52.5996 32.0061 51.5452 32.0061Z" fill="#333333"/>
<path d="M24.149 58.4469C23.433 57.6922 22.2443 57.6498 21.4762 58.3515L15.3671 64.1742L12.7899 61.5014C12.0738 60.7466 10.8852 60.7042 10.1171 61.406C9.37765 62.1807 9.37765 63.3995 10.1171 64.1742L14.0306 68.1833C14.3693 68.5626 14.8586 68.7723 15.3669 68.7561C15.8705 68.7489 16.3508 68.543 16.7032 68.1833L24.1487 61.1197C24.8868 60.4426 24.9361 59.2952 24.2588 58.5573C24.2241 58.5189 24.1874 58.4822 24.149 58.4469Z" fill="#333333"/>
<path d="M51.5452 62.5515H29.5907C28.5363 62.5515 27.6816 63.4062 27.6816 64.4606C27.6816 65.515 28.5363 66.3697 29.5907 66.3697H51.5452C52.5996 66.3697 53.4543 65.515 53.4543 64.4606C53.4543 63.4062 52.5996 62.5515 51.5452 62.5515Z" fill="#333333"/>
</svg>
