<svg width="45" height="55" viewBox="0 0 45 55" fill="none" xmlns="http://www.w3.org/2000/svg">
<path d="M38.606 7.20602H33.6302V4.98003C33.6302 4.25984 32.8446 3.93252 32.1244 3.93252H28.2616C27.3451 1.31366 25.0535 0.00423915 22.4347 0.00423915C19.8447 -0.0931313 17.4889 1.495 16.6078 3.93252H12.8104C12.0902 3.93252 11.3701 4.25984 11.3701 4.98003V7.20602H6.39414C3.44546 7.23747 1.03313 9.56358 0.894531 12.5091V50.0241C0.894531 52.9048 3.51338 54.9999 6.39414 54.9999H38.606C41.4867 54.9999 44.1056 52.9048 44.1056 50.0241V12.5093C43.967 9.56358 41.5546 7.23747 38.606 7.20602ZM13.9888 6.55137H17.5897C18.2183 6.47467 18.7232 5.99647 18.8337 5.3729C19.2215 3.68439 20.7028 2.47234 22.4347 2.42672C24.1505 2.47873 25.6096 3.69454 25.9701 5.3729C26.0875 6.01802 26.6258 6.50237 27.2795 6.55137H31.0114V11.7891H13.9888V6.55137ZM41.4867 50.0242C41.4867 51.4646 40.0463 52.3811 38.606 52.3811H6.39414C4.95376 52.3811 3.51338 51.4646 3.51338 50.0242V12.5093C3.64697 11.01 4.8891 9.85244 6.39414 9.82499H11.3699V13.164C11.4391 13.8976 12.0745 14.4464 12.8103 14.408H32.1242C32.8736 14.449 33.5289 13.9078 33.63 13.164V9.82487H38.6058C40.1108 9.85244 41.353 11.0099 41.4866 12.5091V50.0242H41.4867Z" fill="#FA9411"/>
<path d="M17.4588 29.2699C16.9677 28.7522 16.1524 28.723 15.6256 29.2044L11.4354 33.1981L9.66771 31.3649C9.1766 30.8472 8.36129 30.8181 7.83447 31.2995C7.32731 31.8308 7.32731 32.6668 7.83447 33.1981L10.5187 35.9479C10.7511 36.2081 11.0867 36.352 11.4353 36.3408C11.7807 36.3359 12.1101 36.1947 12.3519 35.9479L17.4586 31.1031C17.9649 30.6387 17.9987 29.8517 17.5342 29.3456C17.5104 29.3191 17.4852 29.2939 17.4588 29.2699Z" fill="#FA9411"/>
<path d="M36.2491 32.0851H21.1908C20.4676 32.0851 19.8813 32.6713 19.8813 33.3945C19.8813 34.1177 20.4676 34.7039 21.1908 34.7039H36.2491C36.9723 34.7039 37.5585 34.1177 37.5585 33.3945C37.5585 32.6713 36.9723 32.0851 36.2491 32.0851Z" fill="#FA9411"/>
<path d="M17.4588 18.7945C16.9677 18.2768 16.1524 18.2476 15.6256 18.729L11.4354 22.7227L9.66771 20.8895C9.1766 20.3718 8.36129 20.3426 7.83447 20.8241C7.32731 21.3554 7.32731 22.1914 7.83447 22.7227L10.5187 25.4725C10.7511 25.7327 11.0867 25.8766 11.4353 25.8654C11.7807 25.8605 12.1101 25.7193 12.3519 25.4725L17.4586 20.6277C17.9649 20.1633 17.9987 19.3763 17.5342 18.8701C17.5104 18.8437 17.4852 18.8185 17.4588 18.7945Z" fill="#FA9411"/>
<path d="M36.2491 21.6097H21.1908C20.4676 21.6097 19.8813 22.1959 19.8813 22.9191C19.8813 23.6423 20.4676 24.2285 21.1908 24.2285H36.2491C36.9723 24.2285 37.5585 23.6423 37.5585 22.9191C37.5585 22.1959 36.9723 21.6097 36.2491 21.6097Z" fill="#FA9411"/>
<path d="M17.4588 39.7452C16.9677 39.2275 16.1524 39.1984 15.6256 39.6797L11.4354 43.6734L9.66771 41.8402C9.1766 41.3225 8.36129 41.2934 7.83447 41.7748C7.32731 42.3061 7.32731 43.1421 7.83447 43.6734L10.5187 46.4232C10.7511 46.6834 11.0867 46.8273 11.4353 46.8161C11.7807 46.8112 12.1101 46.67 12.3519 46.4232L17.4586 41.5784C17.9649 41.114 17.9987 40.327 17.5342 39.8208C17.5104 39.7945 17.4852 39.7693 17.4588 39.7452Z" fill="#FA9411"/>
<path d="M36.2491 42.5605H21.1908C20.4676 42.5605 19.8813 43.1467 19.8813 43.8699C19.8813 44.5931 20.4676 45.1793 21.1908 45.1793H36.2491C36.9723 45.1793 37.5585 44.5931 37.5585 43.8699C37.5585 43.1467 36.9723 42.5605 36.2491 42.5605Z" fill="#FA9411"/>
</svg>
