<svg width="40" height="40" viewBox="0 0 40 40" fill="none" xmlns="http://www.w3.org/2000/svg">
<path d="M34.3678 14.0834C32.6178 6.38335 25.9011 2.91669 20.0011 2.91669H19.9845C14.1011 2.91669 7.3678 6.36669 5.6178 14.0667C3.6678 22.6667 8.93447 29.95 13.7011 34.5334C15.3907 36.1687 17.6498 37.0831 20.0011 37.0834C22.2678 37.0834 24.5345 36.2334 26.2845 34.5334C31.0511 29.95 36.3178 22.6834 34.3678 14.0834ZM20.0011 22.4334C19.3117 22.4334 18.629 22.2976 17.992 22.0337C17.3551 21.7699 16.7763 21.3832 16.2888 20.8957C15.8013 20.4082 15.4146 19.8294 15.1508 19.1924C14.8869 18.5555 14.7511 17.8728 14.7511 17.1834C14.7511 16.4939 14.8869 15.8112 15.1508 15.1743C15.4146 14.5373 15.8013 13.9586 16.2888 13.471C16.7763 12.9835 17.3551 12.5968 17.992 12.333C18.629 12.0691 19.3117 11.9334 20.0011 11.9334C21.3935 11.9334 22.7289 12.4865 23.7134 13.471C24.698 14.4556 25.2511 15.791 25.2511 17.1834C25.2511 18.5757 24.698 19.9111 23.7134 20.8957C22.7289 21.8802 21.3935 22.4334 20.0011 22.4334Z" fill="white"/>
</svg>
