<svg width="26" height="26" viewBox="0 0 26 26" fill="none" xmlns="http://www.w3.org/2000/svg">
<g clip-path="url(#clip0_829_12949)">
<path d="M12.9999 26C15.7355 25.9974 18.387 25.0535 20.509 23.327C22.6311 21.6005 24.0945 19.1965 24.6535 16.5186C25.2125 13.8406 24.8332 11.0519 23.5791 8.62059C22.325 6.1893 20.2726 4.26351 17.7665 3.16659C17.636 3.10881 17.4953 3.07738 17.3526 3.07413C17.2099 3.07088 17.068 3.09587 16.935 3.14765C16.8019 3.19944 16.6805 3.277 16.5775 3.37588C16.4746 3.47476 16.3922 3.59302 16.3351 3.72385C16.278 3.85467 16.2473 3.9955 16.2448 4.13822C16.2423 4.28094 16.268 4.42276 16.3205 4.5555C16.373 4.68825 16.4512 4.80931 16.5506 4.91174C16.65 5.01417 16.7687 5.09593 16.8999 5.15234C18.9528 6.04833 20.6347 7.62388 21.6626 9.61406C22.6905 11.6042 23.0018 13.8877 22.5442 16.0804C22.0865 18.2731 20.8878 20.2414 19.1497 21.6542C17.4115 23.0671 15.2398 23.8384 12.9999 23.8384C10.7599 23.8384 8.58823 23.0671 6.85005 21.6542C5.11186 20.2414 3.91317 18.2731 3.45552 16.0804C2.99787 13.8877 3.30919 11.6042 4.33712 9.61406C5.36504 7.62388 7.04689 6.04833 9.09986 5.15234C9.23098 5.09593 9.34967 5.01417 9.44909 4.91174C9.54852 4.80931 9.62672 4.68825 9.6792 4.5555C9.73169 4.42276 9.75742 4.28094 9.75492 4.13822C9.75242 3.9955 9.72174 3.85467 9.66464 3.72385C9.60754 3.59302 9.52515 3.47476 9.4222 3.37588C9.31925 3.277 9.19778 3.19944 9.06476 3.14765C8.93174 3.09587 8.78979 3.07088 8.64708 3.07413C8.50437 3.07738 8.36371 3.10881 8.23319 3.16659C5.72707 4.26351 3.67467 6.1893 2.4206 8.62059C1.16654 11.0519 0.787176 13.8406 1.34622 16.5186C1.90526 19.1965 3.36866 21.6005 5.4907 23.327C7.61274 25.0535 10.2642 25.9974 12.9999 26Z" fill="black"/>
<path d="M12.9998 10.8333C13.2872 10.8333 13.5627 10.7192 13.7659 10.516C13.969 10.3129 14.0832 10.0373 14.0832 9.75V1.08333C14.0832 0.796016 13.969 0.520465 13.7659 0.317301C13.5627 0.114137 13.2872 0 12.9998 0C12.7125 0 12.437 0.114137 12.2338 0.317301C12.0306 0.520465 11.9165 0.796016 11.9165 1.08333V9.75C11.9165 10.0373 12.0306 10.3129 12.2338 10.516C12.437 10.7192 12.7125 10.8333 12.9998 10.8333Z" fill="black"/>
</g>
<defs>
<clipPath id="clip0_829_12949">
<rect width="26" height="26" fill="white"/>
</clipPath>
</defs>
</svg>
