<svg width="55" height="55" viewBox="0 0 55 55" fill="none" xmlns="http://www.w3.org/2000/svg">
<path d="M54.0834 31.1666H0.916631C0.409707 31.1666 0 31.5763 0 32.0833V43.0833C0 43.5902 0.409707 43.9999 0.916631 43.9999H54.0833C54.5902 43.9999 54.9999 43.5902 54.9999 43.0833V32.0833C55 31.5764 54.5903 31.1666 54.0834 31.1666ZM53.1666 42.1666H1.83337V33H4.58337L4.5824 34.8334C4.5824 35.3393 4.99211 35.75 5.49903 35.75C6.00499 35.75 6.41566 35.3403 6.41566 34.8334L6.41663 33H10.0833V36.6666C10.0833 37.1736 10.493 37.5833 10.9999 37.5833C11.5068 37.5833 11.9165 37.1736 11.9165 36.6666V33H15.5832V34.8334C15.5832 35.3403 15.9929 35.75 16.4998 35.75C17.0067 35.75 17.4164 35.3403 17.4164 34.8334V33H21.083V36.6666C21.083 37.1736 21.4928 37.5833 21.9997 37.5833C22.5066 37.5833 22.9163 37.1736 22.9163 36.6666V33H26.5829V34.8334C26.5829 35.3403 26.9926 35.75 27.4996 35.75C28.0065 35.75 28.4162 35.3403 28.4162 34.8334V33H32.0828V36.6666C32.0828 37.1736 32.4925 37.5833 32.9995 37.5833C33.5064 37.5833 33.9161 37.1736 33.9161 36.6666V33H37.5827V34.8334C37.5827 35.3403 37.9924 35.75 38.4994 35.75C39.0063 35.75 39.416 35.3403 39.416 34.8334V33H43.0826V36.6666C43.0826 37.1736 43.4923 37.5833 43.9992 37.5833C44.5062 37.5833 44.9159 37.1736 44.9159 36.6666V33H48.5843L48.5834 34.8334C48.5834 35.3393 48.9931 35.75 49.5 35.75C50.006 35.75 50.4166 35.3403 50.4166 34.8334L50.4176 33H53.1658V42.1666H53.1666Z" fill="#FA9411"/>
<path d="M0.916631 11C0.409707 11 0 11.4097 0 11.9166V27.5C0 28.0069 0.409707 28.4166 0.916631 28.4166C1.42355 28.4166 1.83326 28.0069 1.83326 27.5V20.1666V11.9166C1.83337 11.4097 1.42355 11 0.916631 11Z" fill="#FA9411"/>
<path d="M54.0831 11C53.5762 11 53.1665 11.4097 53.1665 11.9166V20.1666V27.5C53.1665 28.0069 53.5762 28.4166 54.0831 28.4166C54.5901 28.4166 54.9998 28.0069 54.9998 27.5V11.9166C54.9998 11.4097 54.5901 11 54.0831 11Z" fill="#FA9411"/>
<path d="M51.136 19.5791L46.88 14.0791C46.6499 13.782 46.2722 13.6748 45.9358 13.8041C45.5994 13.9361 45.3749 14.2807 45.3749 14.6667V19.25H9.62477V14.6658C9.62477 14.2798 9.40015 13.9352 9.06381 13.8042C8.72736 13.6731 8.35063 13.7813 8.11968 14.0792L3.86362 19.58C3.73257 19.7497 3.6665 19.9586 3.6665 20.1667C3.6665 20.3747 3.73246 20.5838 3.86362 20.7543L8.11968 26.2543C8.28468 26.467 8.52573 26.5833 8.77323 26.5833C8.87045 26.5833 8.96853 26.5649 9.06295 26.5283C9.39939 26.3963 9.62391 26.0517 9.62391 25.6667V21.0833H45.3739V25.6667C45.3739 26.0526 45.5985 26.3972 45.9349 26.5283C46.0293 26.5649 46.1274 26.5833 46.2246 26.5833C46.4721 26.5833 46.7131 26.4669 46.8791 26.2543L51.1352 20.7543C51.2672 20.5838 51.3331 20.3757 51.3331 20.1667C51.3331 19.9576 51.2671 19.7497 51.136 19.5791ZM7.92256 23.1348L5.62534 20.1667L7.92256 17.1985V23.1348ZM47.077 23.1348V17.1985L49.3742 20.1667L47.077 23.1348Z" fill="#FA9411"/>
</svg>
