<svg width="55" height="55" viewBox="0 0 55 55" fill="none" xmlns="http://www.w3.org/2000/svg">
<path d="M54.6849 0.314639C54.4834 0.113223 54.2101 0 53.9251 0L27.5 0.00139648C26.9068 0.00139648 26.4259 0.482432 26.4259 1.07562V4.14756L16.2435 6.87597C15.6704 7.02958 15.3303 7.61857 15.4839 8.19156L20.7612 27.8865L16.1959 32.4518C15.6149 31.6034 14.6392 31.0455 13.5357 31.0455H3.22353C1.44655 31.0455 0.000976562 32.4911 0.000976562 34.268V51.7773C0.000976562 53.5543 1.44655 55 3.22353 55H13.5358C15.0454 55 16.3154 53.9563 16.6634 52.5529L17.9406 53.6668C18.9267 54.5266 20.19 55.0001 21.4982 55.0001H53.9254C54.5185 55.0001 54.9996 54.5191 54.9996 53.9259V1.07422C54.9994 0.789336 54.8864 0.516055 54.6849 0.314639ZM14.6098 51.7775C14.6098 52.3697 14.1279 52.8517 13.5356 52.8517H3.22342C2.63109 52.8517 2.1492 52.3698 2.1492 51.7775V34.2681C2.1492 33.6758 2.63109 33.1939 3.22342 33.1939H7.30534V45.5684C7.30534 46.1615 7.78638 46.6426 8.37956 46.6426C8.97274 46.6426 9.45378 46.1615 9.45378 45.5684V33.1939H13.5357C14.128 33.1939 14.6099 33.6758 14.6099 34.2681V51.7775H14.6098ZM17.8371 8.67313L26.4259 6.37173V10.3522L25.706 10.5452C25.4306 10.619 25.1961 10.7989 25.0537 11.0457C24.9113 11.2924 24.8726 11.5856 24.9464 11.8608C25.3592 13.4013 24.4417 14.9904 22.9012 15.4032C22.6256 15.4771 22.3907 15.6574 22.2484 15.9047C22.106 16.1518 22.0677 16.4455 22.1421 16.721L26.3293 32.226H24.1734L23.0623 27.8793C23.027 27.7409 22.9651 27.6134 22.8823 27.5026L17.8371 8.67313ZM26.4259 15.2785V24.3429L24.4666 17.0881C25.2851 16.6655 25.9549 16.0333 26.4259 15.2785ZM41.8586 52.8516H21.498C20.709 52.8516 19.9471 52.566 19.3524 52.0475L16.7583 49.7851V34.9279L21.4481 30.2381L22.2986 33.566C22.4202 34.0416 22.8485 34.3741 23.3393 34.3741L44.4589 34.3754C45.2882 34.3754 45.9628 35.05 45.9628 35.8793C45.9628 36.7086 45.2882 37.3832 44.4589 37.3832H33.6372C33.0441 37.3832 32.563 37.8643 32.563 38.4575C32.563 39.0506 33.0441 39.5317 33.6372 39.5317H47.8212C48.6505 39.5317 49.3251 40.2063 49.3251 41.0356C49.3251 41.8649 48.6505 42.5395 47.8212 42.5395H33.6372C33.0441 42.5395 32.563 43.0205 32.563 43.6137C32.563 44.2069 33.0441 44.6879 33.6372 44.6879H45.5227C46.352 44.6879 47.0266 45.3625 47.0266 46.1918C47.0266 47.0211 46.352 47.6957 45.5227 47.6957H33.6372C33.0441 47.6957 32.563 48.1768 32.563 48.77C32.563 49.3631 33.0441 49.8442 33.6372 49.8442H41.8586C42.6879 49.8442 43.3625 50.5188 43.3625 51.3481C43.3624 52.177 42.6877 52.8516 41.8586 52.8516ZM52.8511 52.8516H45.1855C45.3938 52.3925 45.5108 51.8837 45.5108 51.3477C45.5108 50.8116 45.3938 50.3028 45.1855 49.8438H45.5227C47.5366 49.8438 49.175 48.2054 49.175 46.1915C49.175 45.6041 49.0348 45.0491 48.7873 44.5569C50.3337 44.1321 51.4734 42.7147 51.4734 41.0354C51.4734 40.2207 51.205 39.4675 50.7524 38.8595V25.2449C50.7524 24.6517 50.2714 24.1707 49.6782 24.1707C49.085 24.1707 48.604 24.6517 48.604 25.2449V37.4686C48.3516 37.4133 48.0898 37.3832 47.821 37.3832H47.7858C47.9941 36.9242 48.111 36.4154 48.111 35.8793C48.111 33.8654 46.4726 32.2271 44.4588 32.2271H42.732C44.5656 31.4408 45.8534 29.6183 45.8534 27.5C45.8534 24.6652 43.5472 22.359 40.7125 22.359C37.8778 22.359 35.5716 24.6652 35.5716 27.5C35.5716 29.6183 36.8595 31.4408 38.6929 32.2271H32.8209V11.8017C34.7399 11.3835 36.2541 9.86938 36.6722 7.95029H44.7526C45.1707 9.86938 46.6849 11.3835 48.6039 11.8017V15.1414C48.6039 15.7346 49.0849 16.2157 49.6781 16.2157C50.2713 16.2157 50.7523 15.7346 50.7523 15.1414V10.8426C50.7523 10.2494 50.2713 9.76841 49.6781 9.76841C48.0832 9.76841 46.7859 8.47086 46.7859 6.87607C46.7859 6.28289 46.3049 5.80186 45.7117 5.80186H35.7133C35.1201 5.80186 34.6391 6.28289 34.6391 6.87607C34.6391 8.47097 33.3416 9.76841 31.7468 9.76841C31.1536 9.76841 30.6726 10.2494 30.6726 10.8426V32.227H28.5744V2.14962L52.8511 2.14844V52.8516ZM40.7127 30.4926C39.0626 30.4926 37.7202 29.1501 37.7202 27.5001C37.7202 25.8501 39.0627 24.5075 40.7127 24.5075C42.3627 24.5075 43.7051 25.85 43.7051 27.5C43.7051 29.15 42.3628 30.4926 40.7127 30.4926Z" fill="#FA9411"/>
</svg>
