<svg width="79" height="80" viewBox="0 0 79 80" fill="none" xmlns="http://www.w3.org/2000/svg">
<path d="M78.5481 0.951947C78.2586 0.662633 77.866 0.5 77.4567 0.5L39.4996 0.502006C38.6476 0.502006 37.9568 1.19296 37.9568 2.04501V6.45755L23.3307 10.3766C22.5075 10.5973 22.019 11.4433 22.2397 12.2664L29.82 40.5562L23.2624 47.1138C22.4278 45.8951 21.0264 45.0937 19.4413 45.0937H4.62887C2.07643 45.0937 0 47.1703 0 49.7226V74.873C0 77.4254 2.07643 79.502 4.62887 79.502H19.4414C21.6098 79.502 23.434 78.0028 23.9339 75.987L25.7685 77.587C27.1849 78.822 28.9994 79.5022 30.8787 79.5022H77.457C78.309 79.5022 79 78.8112 79 77.9592V2.04301C78.9997 1.6338 78.8374 1.24126 78.5481 0.951947ZM20.9841 74.8731C20.9841 75.7238 20.2919 76.4161 19.4411 76.4161H4.62872C3.7779 76.4161 3.08571 75.724 3.08571 74.8731V49.7227C3.08571 48.8719 3.7779 48.1797 4.62872 48.1797H10.492V65.9544C10.492 66.8064 11.1829 67.4974 12.035 67.4974C12.887 67.4974 13.578 66.8064 13.578 65.9544V48.1797H19.4413C20.2921 48.1797 20.9843 48.8719 20.9843 49.7227V74.8731H20.9841ZM25.6198 12.9581L37.9568 9.65235V15.37L36.9226 15.6471C36.5272 15.7531 36.1903 16.0115 35.9857 16.366C35.7811 16.7204 35.7256 17.1415 35.8316 17.5368C36.4246 19.7496 35.1067 22.0322 32.8938 22.6252C32.4981 22.7313 32.1606 22.9903 31.9562 23.3455C31.7517 23.7005 31.6966 24.1224 31.8036 24.518L37.818 46.7895H34.7212L33.1253 40.5458C33.0745 40.3471 32.9857 40.1639 32.8667 40.0047L25.6198 12.9581ZM37.9568 22.446V35.4661L35.1425 25.0454C36.3181 24.4384 37.2802 23.5302 37.9568 22.446ZM60.1242 76.416H30.8784C29.745 76.416 28.6506 76.0059 27.7964 75.2611L24.0702 72.0113V50.6704L30.8066 43.934L32.0284 48.7142C32.203 49.3973 32.8182 49.875 33.5232 49.875L63.8594 49.8769C65.0506 49.8769 66.0196 50.8459 66.0196 52.0371C66.0196 53.2283 65.0506 54.1973 63.8594 54.1973H48.3151C47.4631 54.1973 46.7721 54.8883 46.7721 55.7403C46.7721 56.5924 47.4631 57.2833 48.3151 57.2833H68.689C69.8802 57.2833 70.8492 58.2523 70.8492 59.4435C70.8492 60.6347 69.8802 61.6037 68.689 61.6037H48.3151C47.4631 61.6037 46.7721 62.2947 46.7721 63.1467C46.7721 63.9988 47.4631 64.6898 48.3151 64.6898H65.3874C66.5786 64.6898 67.5476 65.6588 67.5476 66.85C67.5476 68.0412 66.5786 69.0102 65.3874 69.0102H48.3151C47.4631 69.0102 46.7721 69.7011 46.7721 70.5532C46.7721 71.4052 47.4631 72.0962 48.3151 72.0962H60.1242C61.3154 72.0962 62.2844 73.0652 62.2844 74.2564C62.2843 75.447 61.3153 76.416 60.1242 76.416ZM75.914 76.416H64.9031C65.2023 75.7567 65.3703 75.0257 65.3703 74.2558C65.3703 73.4858 65.2023 72.7549 64.9031 72.0956H65.3874C68.2801 72.0956 70.6335 69.7422 70.6335 66.8495C70.6335 66.0058 70.4321 65.2085 70.0766 64.5015C72.2979 63.8914 73.9349 61.8554 73.9349 59.4432C73.9349 58.273 73.5495 57.1912 72.8994 56.3179V36.7618C72.8994 35.9097 72.2085 35.2188 71.3564 35.2188C70.5044 35.2188 69.8134 35.9097 69.8134 36.7618V54.32C69.4508 54.2405 69.0748 54.1973 68.6887 54.1973H68.6381C68.9373 53.538 69.1053 52.807 69.1053 52.0371C69.1053 49.1443 66.7519 46.791 63.8592 46.791H61.3789C64.0126 45.6615 65.8624 43.0437 65.8624 40.001C65.8624 35.9292 62.5498 32.6165 58.478 32.6165C54.4063 32.6165 51.0936 35.9292 51.0936 40.001C51.0936 43.0437 52.9435 45.6615 55.5771 46.791H47.1426V17.4519C49.899 16.8513 52.0741 14.6764 52.6746 11.9198H64.2812C64.8818 14.6764 67.0568 16.8513 69.8132 17.4519V22.2492C69.8132 23.1012 70.5042 23.7922 71.3562 23.7922C72.2083 23.7922 72.8993 23.1012 72.8993 22.2492V16.0744C72.8993 15.2223 72.2083 14.5313 71.3562 14.5313C69.0653 14.5313 67.2019 12.6675 67.2019 10.3768C67.2019 9.52474 66.5109 8.83379 65.6589 8.83379H51.2971C50.4451 8.83379 49.7541 9.52474 49.7541 10.3768C49.7541 12.6677 47.8905 14.5313 45.5997 14.5313C44.7477 14.5313 44.0567 15.2223 44.0567 16.0744V46.7909H41.0429V3.58771L75.914 3.58602V76.416ZM58.4783 44.2995C56.1081 44.2995 54.18 42.3712 54.18 40.0012C54.18 37.6311 56.1082 35.7026 58.4783 35.7026C60.8484 35.7026 62.7767 37.6309 62.7767 40.001C62.7767 42.3711 60.8485 44.2995 58.4783 44.2995Z" fill="#333333"/>
</svg>
