<svg width="31" height="31" viewBox="0 0 31 31" fill="none" xmlns="http://www.w3.org/2000/svg">
<g clip-path="url(#clip0_829_12906)">
<path d="M25.8333 22.3385L24.5174 21.5501C24.1163 21.3102 23.6574 21.1835 23.19 21.1833H21.2096C20.8042 21.1825 20.4005 21.2348 20.0085 21.3382L14.0416 22.9399C13.3892 23.12 12.8652 23.6059 12.6366 24.2429L7.38824 21.4035C6.96265 21.1613 6.4644 21.0791 5.98355 21.1714C5.80217 21.2035 5.62633 21.2612 5.46108 21.343C5.08797 21.5216 4.77842 21.8102 4.57357 22.1697C4.39445 22.4828 4.30035 22.8372 4.30035 23.1977C4.2948 23.9339 4.68482 24.616 5.32157 24.9849L14.728 30.613C15.1367 30.866 15.6075 31 16.0881 31H23.3678C23.693 31.0002 24.0152 30.9386 24.3174 30.8191L25.8333 30.2204V31H31V20.6666H25.8333V22.3385ZM23.9377 29.8581C23.7568 29.9295 23.5638 29.9664 23.3693 29.9666H16.0881C15.7969 29.9664 15.5116 29.8844 15.2649 29.73L5.84556 24.0953C5.52542 23.9104 5.3294 23.5678 5.33192 23.1982C5.33268 23.0171 5.38036 22.839 5.47042 22.6816C5.57335 22.5032 5.72825 22.3602 5.91418 22.2719C5.99617 22.232 6.08295 22.2038 6.17251 22.1881C6.23785 22.176 6.3042 22.1697 6.37055 22.1697C6.54815 22.1692 6.72273 22.2156 6.87687 22.3039L12.568 25.3792C12.5746 25.4107 12.5746 25.4418 12.5829 25.4733C12.8276 26.3752 13.6458 27.0016 14.5804 27.0026C14.868 26.9764 15.1529 26.9254 15.4319 26.8507L20.7999 25.4143L20.5335 24.416L15.1829 25.8462C14.9473 25.9004 14.6433 25.9625 14.5804 25.9678C14.1137 25.9685 13.7045 25.6567 13.5817 25.2066C13.565 25.1441 13.5552 25.08 13.5517 25.0154C13.5517 25.0154 13.5476 24.8903 13.5517 24.8464C13.591 24.4142 13.8937 24.0514 14.3118 23.9351L20.2761 22.3395C20.5806 22.258 20.8945 22.2166 21.2096 22.2166H23.19C23.4705 22.2166 23.7457 22.2928 23.9861 22.4369L25.8333 23.5429V29.1089L23.9377 29.8581ZM26.8667 21.7H29.9667V29.9666H26.8667V21.7Z" fill="#707070"/>
<path d="M21.3095 4.13335L18.5379 1.36207C17.6678 0.486916 16.4839 -0.00351295 15.25 1.89452e-05H8.75432C8.35345 0.000523502 7.95813 0.0941188 7.59913 0.272732L6.44117 0.851963C6.20908 0.968768 5.95125 1.02452 5.69166 1.01418L5.16666 0.995762V1.89452e-05H0V11.3667H5.16666V9.81668H6.0451L6.35767 10.0233C7.23232 10.604 8.25077 10.932 9.29999 10.9703V17.5667H31V4.13335H21.3095ZM4.13333 10.3333H1.03333V1.03335H4.13333V10.3333ZM6.92959 9.16353L6.3549 8.78335H5.16666V2.0296L5.65381 2.04701C6.08647 2.0624 6.51585 1.9693 6.9031 1.77631L8.06005 1.19708C8.27549 1.08936 8.51339 1.03335 8.75432 1.03335H15.25C16.2097 1.03058 17.1307 1.41202 17.8073 2.09242L19.8483 4.13335H15.5848L14.3307 2.87953L13.6003 3.60987L17.25 7.25984C17.6555 7.66348 17.6567 8.31941 17.2531 8.72507C16.8492 9.13048 16.1933 9.13174 15.7878 8.7281L12.7396 5.67982L12.3778 5.98987C11.379 6.83803 9.91909 6.85972 8.89534 6.04133L8.59589 5.79864L7.94475 6.60139L8.24749 6.84686C8.5641 7.09989 8.91956 7.3002 9.29999 7.43996V9.93651C8.45436 9.89892 7.6347 9.63176 6.92959 9.16353ZM14.2792 8.67991L15.0588 9.45971C15.8681 10.2569 17.1673 10.2582 17.9779 9.46223C17.2195 10.6366 17.5187 12.1994 18.6573 13.0105C19.7958 13.8216 21.3708 13.5938 22.2328 12.4936C23.0948 11.3932 22.9392 9.80936 21.8791 8.89813C20.8193 7.9869 19.2299 8.07041 18.2715 9.08759C18.6245 8.53334 18.6875 7.8426 18.4408 7.23335H25.3595C25.5818 8.53334 26.6 9.55153 27.9 9.77379V11.9262C26.6 12.1485 25.5818 13.1667 25.3595 14.4667H14.9404C14.7182 13.1667 13.7 12.1485 12.4 11.9262V9.77379C13.1384 9.64942 13.8062 9.26066 14.2792 8.67991ZM18.6 10.85C18.6 9.99403 19.294 9.30001 20.15 9.30001C21.006 9.30001 21.7 9.99403 21.7 10.85C21.7 11.706 21.006 12.4 20.15 12.4C19.294 12.4 18.6 11.706 18.6 10.85ZM29.9666 16.5333H10.3333V7.65642C11.1525 7.71797 11.9691 7.50909 12.6583 7.0623L13.5398 7.94376C13.152 8.47052 12.5375 8.78209 11.8833 8.78335H11.3667V12.9167H11.8833C13.0246 12.9167 13.95 13.842 13.95 14.9833V15.5H26.35V14.9833C26.35 13.842 27.2753 12.9167 28.4166 12.9167H28.9333V8.78335H28.4166C27.2753 8.78335 26.35 7.85799 26.35 6.71668V6.20002H17.6514L16.6181 5.16668H29.9666V16.5333Z" fill="#707070"/>
</g>
<defs>
<clipPath id="clip0_829_12906">
<rect width="31" height="31" fill="white"/>
</clipPath>
</defs>
</svg>
