<svg width="31" height="31" viewBox="0 0 31 31" fill="none" xmlns="http://www.w3.org/2000/svg">
<g clip-path="url(#clip0_3632_13814)">
<path d="M25.8338 22.3398L24.5179 21.5514C24.1168 21.3115 23.6579 21.1849 23.1904 21.1846H21.2101C20.8046 21.1839 20.401 21.2361 20.009 21.3395L14.0421 22.9413C13.3897 23.1214 12.8657 23.6073 12.6371 24.2443L7.38873 21.4049C6.96313 21.1627 6.46488 21.0804 5.98404 21.1728C5.80265 21.2048 5.62682 21.2626 5.46157 21.3443C5.08845 21.5229 4.77891 21.8115 4.57406 22.171C4.39494 22.4841 4.30084 22.8386 4.30084 23.1991C4.29529 23.9352 4.68531 24.6174 5.32206 24.9862L14.7285 30.6143C15.1372 30.8673 15.608 31.0013 16.0886 31.0013H23.3683C23.6935 31.0015 24.0156 30.94 24.3179 30.8204L25.8338 30.2218V31.0013H31.0005V20.668H25.8338V22.3398ZM23.9382 29.8595C23.7573 29.9309 23.5643 29.9677 23.3698 29.968H16.0886C15.7974 29.9677 15.5121 29.8857 15.2654 29.7313L5.84605 24.0967C5.5259 23.9118 5.32988 23.5692 5.33241 23.1996C5.33316 23.0184 5.38084 22.8403 5.47091 22.6829C5.57384 22.5046 5.72874 22.3615 5.91467 22.2732C5.99666 22.2334 6.08344 22.2051 6.173 22.1895C6.23834 22.1774 6.30469 22.171 6.37104 22.171C6.54864 22.1705 6.72322 22.217 6.87736 22.3053L12.5685 25.3805C12.5751 25.4121 12.5751 25.4431 12.5834 25.4746C12.8281 26.3765 13.6462 27.0029 14.5809 27.0039C14.8685 26.9777 15.1534 26.9267 15.4324 26.8521L20.8004 25.4156L20.534 24.4173L15.1834 25.8475C14.9477 25.9017 14.6438 25.9638 14.5809 25.9691C14.1142 25.9699 13.705 25.658 13.5822 25.208C13.5655 25.1454 13.5557 25.0813 13.5521 25.0167C13.5521 25.0167 13.5481 24.8916 13.5521 24.8477C13.5915 24.4156 13.8942 24.0528 14.3123 23.9365L20.2766 22.3408C20.5811 22.2593 20.895 22.218 21.2101 22.218H23.1904C23.471 22.218 23.7462 22.2942 23.9866 22.4382L25.8338 23.5442V29.1102L23.9382 29.8595ZM26.8672 21.7013H29.9672V29.968H26.8672V21.7013Z" fill="white"/>
<path d="M21.3095 4.13335L18.5379 1.36207C17.6678 0.486916 16.4839 -0.00351295 15.25 1.89452e-05H8.75432C8.35345 0.000523502 7.95813 0.0941188 7.59913 0.272732L6.44117 0.851963C6.20908 0.968768 5.95125 1.02452 5.69166 1.01418L5.16666 0.995762V1.89452e-05H0V11.3667H5.16666V9.81668H6.0451L6.35767 10.0233C7.23232 10.604 8.25077 10.932 9.29999 10.9703V17.5667H31V4.13335H21.3095ZM4.13333 10.3333H1.03333V1.03335H4.13333V10.3333ZM6.92959 9.16353L6.3549 8.78335H5.16666V2.0296L5.65381 2.04701C6.08647 2.0624 6.51585 1.9693 6.9031 1.77631L8.06005 1.19708C8.27549 1.08936 8.51339 1.03335 8.75432 1.03335H15.25C16.2096 1.03058 17.1307 1.41202 17.8073 2.09242L19.8483 4.13335H15.5848L14.3307 2.87953L13.6003 3.60987L17.25 7.25984C17.6555 7.66348 17.6567 8.31941 17.2531 8.72507C16.8492 9.13048 16.1933 9.13174 15.7878 8.7281L12.7396 5.67982L12.3778 5.98987C11.379 6.83803 9.91909 6.85972 8.89534 6.04133L8.59589 5.79864L7.94475 6.60139L8.24749 6.84686C8.5641 7.09989 8.91956 7.3002 9.29999 7.43996V9.93651C8.45436 9.89892 7.6347 9.63176 6.92959 9.16353ZM14.2792 8.67991L15.0588 9.45971C15.8681 10.2569 17.1673 10.2582 17.9779 9.46223C17.2195 10.6366 17.5187 12.1994 18.6573 13.0105C19.7958 13.8216 21.3708 13.5938 22.2328 12.4936C23.0948 11.3932 22.9392 9.80936 21.8791 8.89813C20.8193 7.9869 19.2299 8.07041 18.2715 9.08759C18.6245 8.53334 18.6875 7.8426 18.4408 7.23335H25.3595C25.5818 8.53334 26.6 9.55153 27.9 9.77379V11.9262C26.6 12.1485 25.5818 13.1667 25.3595 14.4667H14.9404C14.7182 13.1667 13.7 12.1485 12.4 11.9262V9.77379C13.1384 9.64942 13.8062 9.26066 14.2792 8.67991ZM18.6 10.85C18.6 9.99403 19.294 9.30001 20.15 9.30001C21.006 9.30001 21.7 9.99403 21.7 10.85C21.7 11.706 21.006 12.4 20.15 12.4C19.294 12.4 18.6 11.706 18.6 10.85ZM29.9666 16.5333H10.3333V7.65642C11.1525 7.71797 11.9691 7.50909 12.6583 7.0623L13.5398 7.94376C13.152 8.47052 12.5375 8.78209 11.8833 8.78335H11.3667V12.9167H11.8833C13.0246 12.9167 13.95 13.842 13.95 14.9833V15.5H26.35V14.9833C26.35 13.842 27.2753 12.9167 28.4166 12.9167H28.9333V8.78335H28.4166C27.2753 8.78335 26.35 7.85799 26.35 6.71668V6.20001H17.6514L16.6181 5.16668H29.9666V16.5333Z" fill="white"/>
</g>
<defs>
<clipPath id="clip0_3632_13814">
<rect width="31" height="31" fill="white"/>
</clipPath>
</defs>
</svg>
