<svg width="176" height="176" viewBox="0 0 176 176" fill="none" xmlns="http://www.w3.org/2000/svg">
<path d="M88.8806 99.2201H87.6339C70.9872 98.7068 58.5206 85.7268 58.5206 69.7401C58.5206 53.4601 71.7939 40.1868 88.0739 40.1868C104.354 40.1868 117.627 53.4601 117.627 69.7401C117.642 77.3996 114.671 84.7633 109.345 90.2677C104.019 95.7721 96.7564 98.9835 89.1006 99.2201H88.8806ZM88.0006 51.1134C77.7339 51.1134 69.4472 59.4734 69.4472 69.6668C69.4251 74.4684 71.2728 79.0901 74.599 82.5532C77.9251 86.0162 82.4686 88.0487 87.2672 88.2201C87.8268 88.1428 88.3943 88.1428 88.9539 88.2201C93.7044 87.9668 98.1769 85.9019 101.451 82.4505C104.725 78.9992 106.551 74.424 106.554 69.6668C106.554 59.4734 98.2672 51.1134 88.0006 51.1134ZM88.0006 166.833C68.2739 166.833 49.4272 159.5 34.8339 146.153C34.2026 145.572 33.715 144.853 33.4096 144.051C33.1042 143.249 32.9892 142.387 33.0739 141.533C34.0272 132.807 39.4539 124.667 48.4739 118.653C70.3272 104.133 105.747 104.133 127.527 118.653C136.547 124.74 141.974 132.807 142.927 141.533C143.147 143.293 142.487 144.98 141.167 146.153C126.663 159.467 107.688 166.847 88.0006 166.833ZM44.5872 140.067C56.7552 150.262 72.126 155.844 88.0006 155.833C103.914 155.833 119.241 150.26 131.414 140.067C130.094 135.593 126.574 131.267 121.367 127.747C103.327 115.72 72.7472 115.72 54.5606 127.747C49.3539 131.267 45.9072 135.593 44.5872 140.067Z" fill="#FFB547"/>
<path d="M87.9994 166.833C44.5127 166.833 9.16602 131.487 9.16602 88.0001C9.16602 44.5134 44.5127 9.16675 87.9994 9.16675C131.486 9.16675 166.833 44.5134 166.833 88.0001C166.833 131.487 131.486 166.833 87.9994 166.833ZM87.9994 20.1667C50.5993 20.1667 20.166 50.6001 20.166 88.0001C20.166 125.4 50.5993 155.833 87.9994 155.833C125.399 155.833 155.833 125.4 155.833 88.0001C155.833 50.6001 125.399 20.1667 87.9994 20.1667Z" fill="#FFB547"/>
</svg>
