<svg width="163" height="163" viewBox="0 0 163 163" fill="none" xmlns="http://www.w3.org/2000/svg">
<path d="M161.214 107.365C158.223 102.183 151.569 100.374 146.07 103.249L111.537 121.284C111.29 120.486 110.953 119.71 110.524 118.967C109.032 116.383 106.632 114.538 103.77 113.772L53.1892 100.219C52.6083 100.06 52.605 100.06 48.7001 101.328C43.98 102.863 35.0151 105.774 30.5788 107.117V100.374C30.5788 99.2814 29.6909 98.3934 28.5984 98.3934H2.28125C1.18869 98.3934 0.300781 99.2814 0.300781 100.374V160.719C0.300781 161.811 1.18869 162.699 2.28125 162.699H28.5984C29.6909 162.699 30.5788 161.811 30.5788 160.719V153.771L50.6014 157.732C52.0207 158.012 53.3113 158.141 54.7274 158.141C54.8792 158.141 55.0343 158.141 55.1895 158.138L93.7558 157.408C95.7264 157.418 97.6771 156.91 99.3869 155.923L157.134 122.582C162.455 119.512 164.284 112.686 161.214 107.365ZM26.6179 158.738H4.26172V102.354H26.6179V158.738ZM155.157 119.152L97.4065 152.493C96.3007 153.13 95.0497 153.474 93.7657 153.447C93.7459 153.447 93.7261 153.447 93.7063 153.447L55.1136 154.177C53.7899 154.203 52.671 154.104 51.3705 153.847L30.5788 149.734V111.25C34.5134 110.101 44.3761 106.896 49.9214 105.094C51.0734 104.721 52.1197 104.381 52.7106 104.19L102.744 117.597C104.586 118.093 106.13 119.281 107.094 120.948C108.058 122.615 108.316 124.549 107.82 126.391C107.325 128.233 106.137 129.777 104.47 130.741C102.803 131.705 100.869 131.962 99.0272 131.467L64.9037 122.324C63.8474 122.044 62.7615 122.667 62.4776 123.724C62.1937 124.78 62.8209 125.866 63.8771 126.15L98.0006 135.293C100.866 136.059 103.866 135.663 106.447 134.171C109.032 132.679 110.877 130.279 111.643 127.417C111.811 126.79 111.923 126.156 111.979 125.523L147.899 106.764C151.513 104.876 155.85 106.015 157.778 109.352C159.762 112.775 158.583 117.175 155.157 119.152ZM38.7087 95.7297C41.0126 96.347 43.3496 96.6506 45.67 96.6506C50.301 96.6506 54.8726 95.4359 58.992 93.0594C71.7561 85.6887 76.1461 69.307 68.7755 56.5428C61.4048 43.7787 45.0231 39.3887 32.2589 46.7593C26.0766 50.3308 21.6502 56.0939 19.8051 62.9926C17.9567 69.8912 18.904 77.0935 22.4754 83.2759C26.0469 89.4582 31.8133 93.8813 38.7087 95.7297ZM23.634 64.0158C25.2085 58.1404 28.9747 53.2289 34.2427 50.1888C37.8208 48.1226 41.7289 47.1422 45.5908 47.1422C53.4665 47.1422 61.1375 51.2286 65.3493 58.5233C71.6274 69.3961 67.8876 83.3518 57.0148 89.6299C53.4368 91.6962 49.5286 92.6765 45.6667 92.6765C37.7911 92.6765 30.12 88.5901 25.9082 81.2954C22.8649 76.0274 22.0595 69.8912 23.634 64.0158ZM50.202 76.2617C50.202 74.268 49.4098 71.8882 45.6304 71.8882C40.4482 71.8882 37.0979 68.6171 37.0979 63.5537C37.0979 59.6258 39.897 56.325 43.6499 55.4503V52.7535C43.6499 51.661 44.5379 50.7731 45.6304 50.7731C46.723 50.7731 47.6109 51.661 47.6109 52.7535V55.4503C51.3639 56.325 54.1629 59.6258 54.1629 63.5537C54.1629 64.6463 53.275 65.5342 52.1825 65.5342C51.0899 65.5342 50.202 64.6463 50.202 63.5537C50.202 61.1441 48.1522 59.1802 45.6304 59.1802C43.1086 59.1802 41.0588 61.1408 41.0588 63.5537C41.0588 65.5474 41.851 67.9272 45.6304 67.9272C50.8126 67.9272 54.1629 71.1983 54.1629 76.2617C54.1629 80.1896 51.3639 83.4904 47.6109 84.3651V87.0619C47.6109 88.1544 46.723 89.0423 45.6304 89.0423C44.5379 89.0423 43.6499 88.1544 43.6499 87.0619V84.3651C39.897 83.4904 37.0979 80.1896 37.0979 76.2617C37.0979 75.1692 37.9858 74.2812 39.0784 74.2812C40.1709 74.2812 41.0588 75.1692 41.0588 76.2617C41.0588 78.6713 43.1086 80.6352 45.6304 80.6352C48.1522 80.6352 50.202 78.6713 50.202 76.2617ZM112.451 50.0436C111.369 48.5946 109.372 48.1853 107.804 49.0897L101.767 52.5753C100.199 53.4797 99.5553 55.414 100.272 57.0776C100.674 58.0117 100.516 58.9821 99.8391 59.738C98.9446 60.7414 98.1194 61.8175 97.3834 62.9365C96.8255 63.7848 95.931 64.1875 94.9276 64.0422C93.1353 63.7815 91.4353 64.907 90.9666 66.6531L89.1611 73.39C88.6924 75.1361 89.6067 76.9615 91.2835 77.6315C92.2242 78.0078 92.7986 78.8033 92.858 79.8167C92.9372 81.1535 93.1122 82.5002 93.3861 83.8139C93.5908 84.8074 93.2442 85.7283 92.4289 86.3357C90.9798 87.4184 90.5705 89.4153 91.475 90.9832L94.9606 97.0203C95.865 98.5882 97.7993 99.2318 99.4629 98.5156C100.397 98.1129 101.367 98.2713 102.123 98.948C103.123 99.8425 104.199 100.668 105.322 101.404C106.17 101.962 106.573 102.856 106.427 103.86C106.17 105.649 107.292 107.352 109.038 107.82L115.772 109.626C116.079 109.709 116.393 109.748 116.696 109.748C118.125 109.748 119.459 108.883 120.01 107.5C120.387 106.56 121.182 105.985 122.195 105.926C123.532 105.847 124.876 105.672 126.193 105.398C127.186 105.193 128.107 105.54 128.714 106.355C129.797 107.804 131.794 108.217 133.362 107.312L139.399 103.827C140.964 102.925 141.614 101.004 140.917 99.3639C140.521 98.4364 140.68 97.4692 141.35 96.7167C142.251 95.7 143.083 94.6108 143.822 93.4753C144.37 92.6369 145.251 92.2309 146.245 92.3563C148.07 92.5973 149.737 91.4948 150.202 89.7487L152.008 83.0118C152.483 81.236 151.569 79.4107 149.882 78.7637C148.925 78.3973 148.338 77.6018 148.271 76.5753C148.189 75.255 148.007 73.9248 147.737 72.6243C147.526 71.6241 147.879 70.6999 148.697 70.0926C150.173 69 150.599 66.9898 149.691 65.4186L146.205 59.3815C145.291 57.8004 143.294 57.1502 141.657 57.9028C140.713 58.3352 139.722 58.1899 138.947 57.5001C137.966 56.632 136.917 55.8299 135.828 55.1103C134.963 54.5393 134.563 53.6283 134.732 52.605C135.032 50.7863 133.913 49.0567 132.131 48.5781L125.394 46.7725C123.648 46.3038 121.822 47.2181 121.152 48.8949C120.776 49.8357 119.981 50.41 118.967 50.4694C117.627 50.5486 116.284 50.7269 114.97 50.9975C113.976 51.2088 113.059 50.8589 112.451 50.0436ZM115.775 54.8793C116.901 54.6449 118.053 54.4931 119.198 54.427C121.614 54.2851 123.691 52.8625 124.694 50.6873L130.774 52.3145C130.503 54.7439 131.586 57.0578 133.649 58.4177C134.583 59.0316 135.481 59.7215 136.319 60.4642C138.168 62.1014 140.673 62.5404 142.944 61.6558L146.09 67.102C144.208 68.6369 143.357 71.0366 143.858 73.4362C144.093 74.5519 144.248 75.6907 144.317 76.8195C144.469 79.2456 145.905 81.3152 148.093 82.3054L146.463 88.3921C144.047 88.1808 141.838 89.2569 140.501 91.3067C139.868 92.2771 139.155 93.2112 138.386 94.0826C136.795 95.875 136.333 98.3241 137.135 100.555L131.675 103.708C130.14 101.863 127.767 101.024 125.39 101.516C124.262 101.75 123.113 101.902 121.968 101.968C119.551 102.11 117.475 103.533 116.472 105.708L110.388 104.077C110.61 101.691 109.52 99.42 107.5 98.0898C106.54 97.4593 105.619 96.7497 104.761 95.9872C102.952 94.3731 100.476 93.911 98.2251 94.7428L95.0761 89.2866C96.9212 87.7517 97.7596 85.3785 97.2678 83.0052C97.0335 81.8796 96.8816 80.7277 96.8156 79.5823C96.6737 77.1661 95.2511 75.0899 93.0758 74.0865L94.7064 68.0032C97.0929 68.2243 99.3638 67.1384 100.694 65.115C101.324 64.1577 102.031 63.2368 102.797 62.3753C104.411 60.5665 104.873 58.0909 104.041 55.8398L109.497 52.6908C111.025 54.536 113.402 55.3711 115.775 54.8793ZM101.453 78.1993C101.453 88.7486 110.035 97.3306 120.585 97.3306C131.134 97.3306 139.716 88.7486 139.716 78.1993C139.716 67.65 131.134 59.0679 120.585 59.0679C110.035 59.0679 101.453 67.65 101.453 78.1993ZM111.356 66.1712L111.679 66.7291C112.045 67.3628 112.712 67.7193 113.395 67.7193C113.732 67.7193 114.072 67.6335 114.382 67.4552C115.33 66.9073 115.653 65.6959 115.109 64.7486L114.782 64.1842C115.987 63.6824 117.267 63.3359 118.604 63.1609V63.8112C118.604 64.9037 119.492 65.7916 120.585 65.7916C121.677 65.7916 122.565 64.9037 122.565 63.8112V63.1609C123.902 63.3359 125.183 63.6824 126.387 64.1842L126.061 64.7486C125.513 65.6959 125.839 66.9073 126.787 67.4552C127.097 67.6368 127.44 67.7193 127.774 67.7193C128.457 67.7193 129.124 67.3628 129.49 66.7291L129.814 66.1712C130.863 66.9766 131.804 67.9173 132.609 68.967L132.051 69.2905C131.104 69.8384 130.781 71.0498 131.325 71.9971C131.692 72.6309 132.358 72.9873 133.042 72.9873C133.378 72.9873 133.718 72.9015 134.029 72.7233L134.593 72.3965C135.095 73.6013 135.441 74.882 135.616 76.2188H134.966C133.874 76.2188 132.986 77.1067 132.986 78.1993C132.986 79.2918 133.874 80.1797 134.966 80.1797H135.616C135.441 81.5166 135.095 82.7973 134.593 84.002L134.029 83.6753C133.081 83.1273 131.87 83.4541 131.322 84.4014C130.774 85.3488 131.101 86.5601 132.048 87.1081L132.606 87.4316C131.801 88.4812 130.86 89.4219 129.81 90.2273L129.487 89.6695C128.939 88.7222 127.727 88.3987 126.78 88.9433C125.833 89.4912 125.509 90.7026 126.054 91.65L126.381 92.2144C125.176 92.7161 123.895 93.0627 122.558 93.2376V92.5874C122.558 91.4948 121.671 90.6069 120.578 90.6069C119.485 90.6069 118.597 91.4948 118.597 92.5874V93.2376C117.261 93.0627 115.98 92.7161 114.775 92.2144L115.102 91.65C115.65 90.7026 115.323 89.4912 114.376 88.9433C113.428 88.3954 112.217 88.7222 111.669 89.6695L111.346 90.2273C110.296 89.4219 109.355 88.4812 108.55 87.4316L109.108 87.1081C110.055 86.5601 110.379 85.3488 109.834 84.4014C109.289 83.4541 108.075 83.1306 107.127 83.6753L106.563 84.002C106.061 82.7973 105.715 81.5166 105.54 80.1797H106.19C107.282 80.1797 108.17 79.2918 108.17 78.1993C108.17 77.1067 107.282 76.2188 106.19 76.2188H105.54C105.715 74.882 106.061 73.6013 106.563 72.3965L107.127 72.7233C107.441 72.9048 107.781 72.9873 108.114 72.9873C108.797 72.9873 109.464 72.6309 109.831 71.9971C110.379 71.0498 110.052 69.8384 109.104 69.2905L108.547 68.967C109.365 67.9206 110.306 66.9799 111.356 66.1712ZM118.604 78.1993V69.231C118.604 68.1385 119.492 67.2506 120.585 67.2506C121.677 67.2506 122.565 68.1385 122.565 69.231V76.2188H126.628C127.721 76.2188 128.609 77.1067 128.609 78.1993C128.609 79.2918 127.721 80.1797 126.628 80.1797H120.585C119.489 80.1797 118.604 79.2918 118.604 78.1993ZM86.0815 53.7603C92.9273 53.7603 99.7731 51.1527 104.988 45.9407C110.039 40.8905 112.818 34.1767 112.818 27.0339C112.818 19.891 110.035 13.1772 104.988 8.12698C94.5645 -2.29689 77.6018 -2.29689 67.1779 8.12698C62.1277 13.1772 59.3485 19.891 59.3485 27.0339C59.3485 34.1767 62.131 40.8905 67.1779 45.9407C72.3898 51.156 79.2357 53.7603 86.0815 53.7603ZM72.3634 45.2146C73.5748 39.8541 78.3841 35.9328 83.9756 35.9328H88.1874C93.7789 35.9328 98.5881 39.8541 99.7995 45.2146C91.7126 51.3243 80.4504 51.3243 72.3634 45.2146ZM86.0815 31.107C82.2592 31.107 79.1498 27.9977 79.1498 24.1754C79.1498 20.3531 82.2592 17.2437 86.0815 17.2437C89.9038 17.2437 93.0131 20.3531 93.0131 24.1754C93.0131 27.9977 89.9038 31.107 86.0815 31.107ZM69.977 10.9326C74.4165 6.4931 80.249 4.27167 86.0815 4.27167C91.914 4.27167 97.7465 6.4931 102.186 10.9326C106.487 15.2336 108.857 20.9538 108.857 27.0372C108.857 32.7079 106.797 38.0618 103.034 42.2439C101.301 37.6624 97.5154 34.1272 92.8712 32.6815C95.3699 30.6845 96.9741 27.6148 96.9741 24.1754C96.9741 18.1713 92.0889 13.2828 86.0815 13.2828C80.0741 13.2828 75.1889 18.168 75.1889 24.1754C75.1889 27.6148 76.7931 30.6845 79.2918 32.6815C74.6443 34.1272 70.8583 37.6591 69.1287 42.2439C65.3658 38.0585 63.3061 32.7046 63.3061 27.0372C63.3061 20.9538 65.6761 15.2336 69.977 10.9326Z" fill="#FA9411"/>
</svg>
