<svg width="44" height="55" viewBox="0 0 44 55" fill="none" xmlns="http://www.w3.org/2000/svg">
<path d="M37.7114 7.20602H32.7356V4.98003C32.7356 4.25984 31.95 3.93252 31.2298 3.93252H27.3671C26.4505 1.31366 24.159 0.00423915 21.5402 0.00423915C18.9501 -0.0931313 16.5943 1.495 15.7132 3.93252H11.9159C11.1957 3.93252 10.4755 4.25984 10.4755 4.98003V7.20602H5.49961C2.55093 7.23747 0.138599 9.56358 0 12.5091V50.0241C0 52.9048 2.61885 54.9999 5.49961 54.9999H37.7114C40.5922 54.9999 43.211 52.9048 43.211 50.0241V12.5093C43.0724 9.56358 40.6601 7.23747 37.7114 7.20602ZM13.0943 6.55137H16.6952C17.3238 6.47467 17.8287 5.99647 17.9392 5.3729C18.3269 3.68439 19.8083 2.47234 21.5402 2.42672C23.256 2.47873 24.715 3.69454 25.0756 5.3729C25.193 6.01802 25.7312 6.50237 26.385 6.55137H30.1169V11.7891H13.0943V6.55137ZM40.5922 50.0242C40.5922 51.4646 39.1518 52.3811 37.7114 52.3811H5.49961C4.05923 52.3811 2.61885 51.4646 2.61885 50.0242V12.5093C2.75244 11.01 3.99457 9.85244 5.49961 9.82499H10.4754V13.164C10.5446 13.8976 11.1799 14.4464 11.9158 14.408H31.2297C31.9791 14.449 32.6344 13.9078 32.7355 13.164V9.82487H37.7113C39.2162 9.85244 40.4585 11.0099 40.5921 12.5091V50.0242H40.5922Z" fill="white"/>
<path d="M16.5643 29.2696C16.0732 28.7519 15.2579 28.7227 14.7311 29.2041L10.5409 33.1978L8.77318 31.3646C8.28207 30.8469 7.46676 30.8178 6.93994 31.2992C6.43278 31.8305 6.43278 32.6665 6.93994 33.1978L9.6242 35.9476C9.85654 36.2078 10.1921 36.3517 10.5408 36.3405C10.8861 36.3356 11.2156 36.1944 11.4573 35.9476L16.5641 31.1028C17.0703 30.6384 17.1042 29.8514 16.6396 29.3452C16.6158 29.3188 16.5906 29.2936 16.5643 29.2696Z" fill="white"/>
<path d="M35.3541 32.0859H20.2958C19.5726 32.0859 18.9863 32.6722 18.9863 33.3954C18.9863 34.1186 19.5726 34.7048 20.2958 34.7048H35.3541C36.0773 34.7048 36.6635 34.1186 36.6635 33.3954C36.6635 32.6722 36.0773 32.0859 35.3541 32.0859Z" fill="white"/>
<path d="M16.5643 18.7949C16.0732 18.2773 15.2579 18.2481 14.7311 18.7295L10.5409 22.7232L8.77318 20.89C8.28207 20.3723 7.46676 20.3431 6.93994 20.8246C6.43278 21.3559 6.43278 22.1919 6.93994 22.7232L9.6242 25.473C9.85654 25.7332 10.1921 25.877 10.5408 25.8659C10.8861 25.861 11.2156 25.7198 11.4573 25.473L16.5641 20.6282C17.0703 20.1638 17.1042 19.3768 16.6396 18.8706C16.6158 18.8442 16.5906 18.819 16.5643 18.7949Z" fill="white"/>
<path d="M35.3541 21.6094H20.2958C19.5726 21.6094 18.9863 22.1956 18.9863 22.9188C18.9863 23.642 19.5726 24.2282 20.2958 24.2282H35.3541C36.0773 24.2282 36.6635 23.642 36.6635 22.9188C36.6635 22.1956 36.0773 21.6094 35.3541 21.6094Z" fill="white"/>
<path d="M16.5643 39.7461C16.0732 39.2284 15.2579 39.1993 14.7311 39.6807L10.5409 43.6743L8.77318 41.8411C8.28207 41.3234 7.46676 41.2943 6.93994 41.7757C6.43278 42.307 6.43278 43.143 6.93994 43.6743L9.6242 46.4242C9.85654 46.6843 10.1921 46.8282 10.5408 46.817C10.8861 46.8121 11.2156 46.6709 11.4573 46.4242L16.5641 41.5793C17.0703 41.1149 17.1042 40.3279 16.6396 39.8218C16.6158 39.7954 16.5906 39.7703 16.5643 39.7461Z" fill="white"/>
<path d="M35.3541 42.5605H20.2958C19.5726 42.5605 18.9863 43.1468 18.9863 43.87C18.9863 44.5932 19.5726 45.1794 20.2958 45.1794H35.3541C36.0773 45.1794 36.6635 44.5932 36.6635 43.87C36.6635 43.1468 36.0773 42.5605 35.3541 42.5605Z" fill="white"/>
</svg>
