<svg width="21" height="25" viewBox="0 0 21 25" fill="none" xmlns="http://www.w3.org/2000/svg">
<path d="M17.8208 3.27546H15.559V2.26365C15.559 1.93629 15.2019 1.78751 14.8746 1.78751H13.1188C12.7022 0.59712 11.6606 0.00192689 10.4702 0.00192689C9.2929 -0.0423324 8.22207 0.679544 7.82158 1.78751H6.09552C5.76816 1.78751 5.4408 1.93629 5.4408 2.26365V3.27546H3.17902C1.83871 3.28976 0.742199 4.34708 0.679199 5.68597V22.7382C0.679199 24.0476 1.86959 24.9999 3.17902 24.9999H17.8208C19.1302 24.9999 20.3206 24.0476 20.3206 22.7382V5.68603C20.2576 4.34708 19.1611 3.28976 17.8208 3.27546ZM6.63113 2.97789H8.26793C8.55365 2.94303 8.78315 2.72567 8.83339 2.44223C9.00963 1.67472 9.68297 1.12379 10.4702 1.10305C11.2501 1.12669 11.9133 1.67934 12.0772 2.44223C12.1306 2.73546 12.3752 2.95562 12.6724 2.97789H14.3687V5.35867H6.63113V2.97789ZM19.1302 22.7383C19.1302 23.393 18.4755 23.8096 17.8208 23.8096H3.17902C2.5243 23.8096 1.86959 23.393 1.86959 22.7383V5.68603C1.93031 5.00454 2.49491 4.47838 3.17902 4.46591H5.44075V5.98365C5.47219 6.31711 5.76099 6.56654 6.09546 6.54911H14.8745C15.2152 6.56774 15.513 6.32172 15.559 5.98365V4.46585H17.8207C18.5048 4.47838 19.0694 5.00448 19.1301 5.68597V22.7383H19.1302Z" fill="#929292"/>
<path d="M8.2085 13.3047C7.98527 13.0694 7.61467 13.0561 7.37521 13.275L5.47058 15.0903L4.66708 14.257C4.44384 14.0217 4.07325 14.0085 3.83378 14.2273C3.60326 14.4688 3.60326 14.8488 3.83378 15.0903L5.0539 16.3402C5.15951 16.4584 5.31205 16.5238 5.47052 16.5188C5.62751 16.5165 5.77726 16.4523 5.88714 16.3402L8.20839 14.138C8.43851 13.9269 8.45389 13.5692 8.24273 13.3391C8.23191 13.3271 8.22046 13.3156 8.2085 13.3047Z" fill="#929292"/>
<path d="M16.7495 14.584H9.90476C9.57604 14.584 9.30957 14.8505 9.30957 15.1792C9.30957 15.5079 9.57604 15.7744 9.90476 15.7744H16.7495C17.0782 15.7744 17.3447 15.5079 17.3447 15.1792C17.3447 14.8505 17.0782 14.584 16.7495 14.584Z" fill="#929292"/>
<path d="M8.2085 8.54298C7.98527 8.30767 7.61467 8.2944 7.37521 8.51324L5.47058 10.3286L4.66708 9.49527C4.44384 9.25996 4.07325 9.24668 3.83378 9.46553C3.60326 9.70705 3.60326 10.087 3.83378 10.3286L5.0539 11.5785C5.15951 11.6967 5.31205 11.7621 5.47052 11.757C5.62751 11.7548 5.77726 11.6906 5.88714 11.5785L8.20839 9.37627C8.43851 9.16517 8.45389 8.80745 8.24273 8.57738C8.23191 8.56536 8.22046 8.55392 8.2085 8.54298Z" fill="#929292"/>
<path d="M16.7495 9.82227H9.90476C9.57604 9.82227 9.30957 10.0887 9.30957 10.4175C9.30957 10.7462 9.57604 11.0127 9.90476 11.0127H16.7495C17.0782 11.0127 17.3447 10.7462 17.3447 10.4175C17.3447 10.0887 17.0782 9.82227 16.7495 9.82227Z" fill="#929292"/>
<path d="M8.20826 18.0664C7.98502 17.8311 7.61443 17.8179 7.37496 18.0367L5.47033 19.852L4.66683 19.0187C4.4436 18.7834 4.073 18.7702 3.83354 18.9889C3.60301 19.2305 3.60301 19.6105 3.83354 19.852L5.05366 21.1019C5.15927 21.2201 5.31181 21.2855 5.47028 21.2805C5.62726 21.2782 5.77702 21.214 5.8869 21.1019L8.20814 18.8997C8.43827 18.6886 8.45365 18.3309 8.24249 18.1008C8.23167 18.0888 8.22022 18.0774 8.20826 18.0664Z" fill="#929292"/>
<path d="M16.7495 19.3457H9.90476C9.57604 19.3457 9.30957 19.6122 9.30957 19.9409C9.30957 20.2696 9.57604 20.5361 9.90476 20.5361H16.7495C17.0782 20.5361 17.3447 20.2696 17.3447 19.9409C17.3447 19.6122 17.0782 19.3457 16.7495 19.3457Z" fill="#929292"/>
</svg>
