<svg width="55" height="55" viewBox="0 0 55 55" fill="none" xmlns="http://www.w3.org/2000/svg">
<g clip-path="url(#clip0_2446_36025)">
<path d="M0.173785 5.04545L3.84185 11.4642C3.96557 11.6811 4.17267 11.838 4.41484 11.8987L7.83695 12.7543L19.5741 24.4914L20.8709 23.1949L8.95012 11.2744C8.83281 11.1567 8.68569 11.0734 8.52462 11.033L5.23642 10.208L2.11344 4.7399L4.79092 2.06241L10.2613 5.18841L11.0867 8.47662C11.1267 8.63807 11.2104 8.78556 11.3277 8.90287L23.2485 20.8237L24.545 19.5268L12.8079 7.7897L11.9524 4.36947C11.8917 4.12692 11.7347 3.91945 11.5178 3.79535L5.09873 0.127667C4.74075 -0.0760303 4.29036 -0.0156755 3.99839 0.275159L0.330707 3.94322C0.0357233 4.2333 -0.0284036 4.68445 0.173785 5.04545Z" fill="white"/>
<path d="M38.2972 18.0719L18.124 38.2455L16.8271 36.9486L37.0007 16.7754L38.2972 18.0719Z" fill="white"/>
<path d="M14.5933 38.9584C14.4273 38.6823 14.1293 38.5137 13.8072 38.5137H8.30547C7.98371 38.5137 7.68533 38.6823 7.51973 38.9584L4.76868 43.5431C4.59403 43.8336 4.59403 44.1968 4.76868 44.4877L7.51973 49.0724C7.68533 49.3481 7.98371 49.5171 8.30547 49.5171H13.8072C14.1293 49.5171 14.4273 49.3481 14.5933 49.0724L17.344 44.4877C17.5186 44.1968 17.5186 43.8336 17.344 43.5431L14.5933 38.9584ZM13.2885 47.6831H8.82452L6.62384 44.0154L8.82452 40.3473H13.2885L15.4892 44.0154L13.2885 47.6831Z" fill="white"/>
<path d="M44.0672 22.0091C50.1234 22.0295 55.0499 17.1362 55.0702 11.08C55.0733 10.1581 54.9601 9.23992 54.7334 8.34629C54.6112 7.85477 54.1136 7.55564 53.6221 7.67786C53.4607 7.71822 53.3135 7.80159 53.1959 7.9189L47.4878 13.6232L42.9589 12.1139L41.4486 7.58619L47.1566 1.87701C47.5146 1.51866 47.5142 0.938118 47.1559 0.580139C47.0378 0.46207 46.8892 0.378328 46.7266 0.338343C40.8533 -1.14902 34.8869 2.40625 33.3995 8.27914C33.1735 9.17013 33.0608 10.086 33.0638 11.0053C33.066 11.7273 33.1403 12.447 33.2867 13.1539L13.2048 33.2355C12.4979 33.0895 11.7782 33.0152 11.0565 33.0125C4.97919 33.0125 0.0527344 37.939 0.0527344 44.0163C0.0527344 50.0933 4.97919 55.0198 11.0565 55.0198C17.1335 55.0198 22.06 50.0933 22.06 44.0163C22.0577 43.2943 21.983 42.5746 21.837 41.8677L26.6447 37.0601L28.7473 39.1627C29.1056 39.5207 29.6858 39.5207 30.0441 39.1627L30.5025 38.704C30.9046 38.3045 31.5545 38.3045 31.9566 38.704C32.3584 39.1046 32.3591 39.7549 31.9585 40.1566C31.9581 40.157 31.9574 40.1578 31.9566 40.1585L31.4983 40.6168C31.1403 40.9748 31.1403 41.5554 31.4983 41.9133L42.4369 52.8519C45.3139 55.7553 49.9997 55.7765 52.9031 52.8994C55.8062 50.0224 55.8273 45.3362 52.9503 42.4331C52.9348 42.4173 52.919 42.4015 52.9031 42.3856L41.9646 31.4474C41.6066 31.0895 41.0261 31.0895 40.6681 31.4474L40.2098 31.9058C39.8073 32.3056 39.1577 32.3056 38.7552 31.9058C38.3539 31.5052 38.3527 30.8548 38.7533 30.4535C38.7541 30.4527 38.7548 30.4524 38.7552 30.4516L39.2139 29.9929C39.5719 29.6349 39.5719 29.0544 39.2139 28.6964L37.1113 26.5938L41.9189 21.7862C42.6259 21.9321 43.3456 22.0068 44.0672 22.0091ZM47.67 53.1861C47.0038 53.185 46.3433 53.0646 45.7198 52.8304L52.8813 45.6685C53.962 48.5433 52.5078 51.7497 49.633 52.8304C49.0057 53.0661 48.3407 53.1869 47.67 53.1861ZM37.2818 29.3539C36.2663 30.5651 36.4255 32.3705 37.6368 33.3856C38.7013 34.2777 40.2528 34.277 41.3162 33.383L51.6066 43.6825C51.7183 43.7945 51.8228 43.9126 51.9239 44.0325L44.0838 51.8726C43.9635 51.7719 43.8454 51.6674 43.7334 51.5554L33.435 41.2562C34.4504 40.045 34.2912 38.2396 33.08 37.2245C32.0155 36.332 30.4636 36.3332 29.4002 37.2268L27.9332 35.7598L35.8144 27.8903L37.2818 29.3539ZM40.9846 20.1313L20.1829 40.9288C19.9547 41.1566 19.8631 41.4875 19.9408 41.8002C21.1988 46.7406 18.2135 51.7655 13.2727 53.0231C8.33228 54.2812 3.30736 51.2959 2.04935 46.3551C0.791703 41.4147 3.777 36.3898 8.71779 35.1317C10.2123 34.7515 11.7782 34.7515 13.2727 35.1317C13.5854 35.2083 13.9155 35.1166 14.1441 34.8899L34.9408 14.0921C35.1686 13.8642 35.2603 13.5334 35.1818 13.2211C33.9325 8.33837 36.8778 3.3674 41.7605 2.11768C42.6832 1.88192 43.6375 1.79138 44.5881 1.85061L39.7511 6.68955C39.5055 6.93474 39.4195 7.298 39.5293 7.62731L41.3629 13.1294C41.4546 13.4029 41.6696 13.6179 41.9435 13.7088L47.4456 15.5428C47.7745 15.6526 48.1377 15.567 48.3833 15.3218L53.2204 10.4847C53.2313 10.6598 53.237 10.8329 53.237 11.0053C53.2626 16.0438 49.1992 20.149 44.1607 20.1751C43.3818 20.1788 42.6055 20.083 41.851 19.8899C41.5383 19.8118 41.2075 19.9031 40.9797 20.1309H40.9846V20.1313Z" fill="white"/>
<path d="M47.4672 46.1186L46.1704 47.4155L37.001 38.2461L38.2975 36.9492L47.4672 46.1186Z" fill="white"/>
</g>
<defs>
<clipPath id="clip0_2446_36025">
<rect width="55" height="55" fill="white"/>
</clipPath>
</defs>
</svg>
