<svg width="55" height="55" viewBox="0 0 55 55" fill="none" xmlns="http://www.w3.org/2000/svg">
<g clip-path="url(#clip0_2446_35996)">
<path d="M12.1248 45.4471C9.90286 45.4471 8.09516 43.6394 8.09516 41.4176C8.09516 39.1957 9.90286 37.3881 12.1248 37.3881H27.5459C31.5451 37.3881 34.7986 34.1346 34.7986 30.1354C34.7986 26.1362 31.545 22.8828 27.5459 22.8828H16.6703V26.1059H27.5459C29.7678 26.1059 31.5755 27.9136 31.5755 30.1355C31.5755 32.3574 29.7678 34.165 27.5459 34.165H12.1248C8.12556 34.165 4.87207 37.4185 4.87207 41.4176C4.87207 45.4167 8.12567 48.6702 12.1248 48.6702H38.3305V45.4471H12.1248Z" fill="#FA9411"/>
<path d="M14.9267 8.21978C11.5166 4.80955 5.96778 4.80955 2.55767 8.21978C-0.852555 11.63 -0.852555 17.1786 2.55767 20.5888L8.74217 26.7734L14.9268 20.5888C18.3369 17.1787 18.3369 11.63 14.9267 8.21978ZM12.6477 18.3097L8.74228 22.215L4.83684 18.3097C2.68335 16.1562 2.68335 12.6523 4.83684 10.4988C5.91353 9.42226 7.32796 8.88375 8.74228 8.88375C10.1566 8.88375 11.5709 9.42215 12.6477 10.4988C14.8012 12.6524 14.8012 16.1562 12.6477 18.3097Z" fill="#FA9411"/>
<path d="M8.70038 10.5176C6.58932 10.5176 4.87207 12.2349 4.87207 14.3459C4.87207 16.4568 6.58932 18.1742 8.70038 18.1742C10.8114 18.1742 12.5287 16.4568 12.5287 14.3459C12.5287 12.2349 10.8114 10.5176 8.70038 10.5176ZM8.70038 14.9511C8.36673 14.9511 8.09516 14.6796 8.09516 14.3459C8.09516 14.0122 8.36651 13.7407 8.70038 13.7407C9.03425 13.7407 9.30559 14.0121 9.30559 14.3459C9.30559 14.6795 9.03403 14.9511 8.70038 14.9511Z" fill="#FA9411"/>
<path d="M52.4422 30.7842C49.0321 27.374 43.4833 27.374 40.0732 30.7842C36.6631 34.1945 36.6631 39.7431 40.0732 43.1532L46.2577 49.3379L52.4422 43.1532C55.8524 39.7431 55.8524 34.1943 52.4422 30.7842ZM50.1633 40.8743L46.2578 44.7796L42.3524 40.8743C40.199 38.7208 40.199 35.2168 42.3524 33.0633C43.4292 31.9864 44.8433 31.4482 46.2578 31.4482C47.672 31.4482 49.0867 31.9867 50.1633 33.0633C52.3165 35.2168 52.3165 38.7208 50.1633 40.8743Z" fill="#FA9411"/>
<path d="M46.216 33.082C44.1051 33.082 42.3877 34.7994 42.3877 36.9103C42.3877 39.0213 44.1049 40.7386 46.216 40.7386C48.3271 40.7386 50.0443 39.0213 50.0443 36.9103C50.0443 34.7994 48.3271 33.082 46.216 33.082ZM46.216 37.5156C45.8824 37.5156 45.6108 37.2441 45.6108 36.9103C45.6108 36.5766 45.8821 36.3051 46.216 36.3051C46.5499 36.3051 46.8212 36.5766 46.8212 36.9103C46.8211 37.2441 46.5498 37.5156 46.216 37.5156Z" fill="#FA9411"/>
</g>
<defs>
<clipPath id="clip0_2446_35996">
<rect width="55" height="55" fill="white"/>
</clipPath>
</defs>
</svg>
