<svg width="538" height="397" viewBox="0 0 538 397" fill="none" xmlns="http://www.w3.org/2000/svg">
<path d="M301.359 1.65544C300.974 1.28801 300.369 1.28587 299.982 1.65056L216.167 80.6085C215.75 81.0013 215.748 81.6636 216.162 82.0594L231.771 96.9739C232.155 97.3403 232.758 97.3436 233.145 96.9812L265.878 66.3652C266.264 66.0047 266.863 66.0058 267.247 66.3677L293.049 90.6749C293.25 90.8638 293.364 91.1272 293.364 91.4027V143.531C293.364 169.007 271.68 189.434 244.636 189.434H233.818C232.938 189.434 232.485 190.493 233.082 191.139C256.151 216.106 268.921 248.09 269 281.241C268.954 288.536 268.292 295.814 267.022 303.009C266.913 303.625 267.385 304.193 268.01 304.193H341.933C342.44 304.193 342.866 303.813 342.931 303.311C346.116 278.41 358.813 255.441 378.669 238.703C398.759 221.767 424.768 212.398 451.727 212.386C472.8 212.397 493.409 218.128 511.095 228.875C511.768 229.284 512.636 228.804 512.636 228.017V120.579C512.636 95.1023 490.953 74.6752 463.909 74.6752H311.059C310.804 74.6752 310.558 74.5779 310.373 74.4031L284.632 50.1535C284.214 49.7597 284.212 49.0955 284.629 48.7002L316.965 18.0186C317.38 17.6253 317.381 16.965 316.968 16.5702L301.359 1.65544ZM74.0909 97.627C60.6909 97.627 49.7273 107.955 49.7273 120.579C49.7273 133.202 60.6909 143.531 74.0909 143.531H194.909C195.461 143.531 195.91 143.083 195.898 142.53C195.625 130.718 190.525 119.444 181.637 111.072C172.499 102.463 160.105 97.627 147.182 97.627H74.0909ZM122.818 166.482C110.273 166.485 97.8058 168.314 85.8572 171.901C85.2944 172.07 85.0033 172.688 85.2267 173.232L93.1848 192.599C93.4012 193.126 93.1348 193.727 92.5992 193.92L83.0585 197.362C82.5441 197.548 81.9761 197.286 81.7833 196.774L74.4535 177.314C74.2549 176.787 73.6593 176.528 73.1397 176.745C48.0269 187.261 27.4265 205.468 14.6863 228.405C14.3997 228.921 14.6264 229.57 15.1696 229.8L35.3512 238.366C35.8808 238.591 36.112 239.215 35.8566 239.73L31.6275 248.268C31.3933 248.741 30.832 248.95 30.3452 248.746L10.2107 240.316C9.69943 240.102 9.11114 240.345 8.9043 240.859C3.71477 253.76 1.03613 267.439 1 281.241C1.00314 293.069 2.94714 304.823 6.76124 316.087C6.94012 316.615 7.51962 316.89 8.04362 316.698L28.8432 309.114C29.3488 308.929 29.9096 309.178 30.1122 309.677L33.7332 318.583C33.9506 319.118 33.6714 319.725 33.1239 319.908L12.5347 326.791C11.9699 326.98 11.694 327.618 11.9488 328.156C23.1371 351.798 42.4836 371.184 66.8453 383.163C67.3452 383.408 67.9489 383.193 68.1844 382.689L77.0917 363.599C77.3202 363.109 77.8965 362.89 78.3929 363.103L87.758 367.131C88.2779 367.354 88.5088 367.964 88.2673 368.476L79.4304 387.207C79.1797 387.738 79.4389 388.371 79.9924 388.568C93.6751 393.448 108.182 395.966 122.818 396C135.363 395.997 147.831 394.169 159.779 390.581C160.342 390.412 160.633 389.794 160.41 389.25L152.452 369.883C152.235 369.356 152.502 368.756 153.037 368.562L162.578 365.12C163.092 364.935 163.66 365.197 163.853 365.708L171.183 385.168C171.381 385.695 171.977 385.955 172.497 385.737C197.606 375.223 218.205 357.019 230.945 334.086C231.234 333.567 231.002 332.914 230.454 332.687L210.289 324.337C209.757 324.117 209.521 323.495 209.772 322.977L214.013 314.226C214.244 313.748 214.809 313.534 215.299 313.739L235.426 322.166C235.937 322.38 236.525 322.138 236.732 321.624C241.922 308.722 244.6 295.043 244.636 281.241C244.633 269.414 242.689 257.66 238.875 246.395C238.696 245.867 238.117 245.593 237.593 245.784L216.793 253.369C216.288 253.553 215.727 253.304 215.524 252.806L211.903 243.899C211.686 243.364 211.965 242.757 212.512 242.574L233.102 235.691C233.666 235.503 233.942 234.865 233.688 234.326C222.499 210.684 203.153 191.298 178.791 179.32C178.291 179.074 177.688 179.289 177.452 179.794L168.545 198.883C168.316 199.373 167.74 199.593 167.243 199.379L157.878 195.351C157.358 195.128 157.128 194.518 157.369 194.006L166.206 175.275C166.457 174.744 166.197 174.111 165.644 173.914C151.961 169.035 137.454 166.516 122.818 166.482ZM122.818 212.386C142.203 212.386 160.794 219.64 174.501 232.553C188.208 245.466 195.909 262.98 195.909 281.241C195.909 299.503 188.208 317.016 174.501 329.929C160.794 342.842 142.203 350.096 122.818 350.096C103.433 350.096 84.8423 342.842 71.1351 329.929C57.4279 317.016 49.7273 299.503 49.7273 281.241C49.7273 262.98 57.4279 245.466 71.1351 232.553C84.8423 219.64 103.433 212.386 122.818 212.386ZM451.727 235.338C429.112 235.338 407.422 243.801 391.43 258.866C375.439 273.931 366.455 294.364 366.455 315.669C366.455 336.974 375.439 357.407 391.43 372.472C407.422 387.537 429.112 396 451.727 396C474.343 396 496.032 387.537 512.024 372.472C528.016 357.407 537 336.974 537 315.669C537 294.364 528.016 273.931 512.024 258.866C496.032 243.801 474.343 235.338 451.727 235.338ZM451.727 281.241C461.42 281.241 470.715 284.868 477.569 291.325C484.422 297.781 488.273 306.538 488.273 315.669C488.273 324.8 484.422 333.556 477.569 340.013C470.715 346.469 461.42 350.096 451.727 350.096C442.035 350.096 432.739 346.469 425.886 340.013C419.032 333.556 415.182 324.8 415.182 315.669C415.182 306.538 419.032 297.781 425.886 291.325C432.739 284.868 442.035 281.241 451.727 281.241Z" stroke="white" stroke-width="2"/>
</svg>
