<svg width="80" height="55" viewBox="0 0 80 55" fill="none" xmlns="http://www.w3.org/2000/svg">
<path d="M36.3409 6L26 15.9651L28.0682 17.9866L32.2045 14.0291L35.4545 17.161V23.681C35.4545 26.8414 32.825 29.3754 29.5455 29.3754H27.95C30.87 32.5023 32.4901 36.5575 32.5 40.7641C32.4941 41.7186 32.4051 42.671 32.2341 43.6113H41.4523C41.8155 40.4803 43.3631 37.588 45.7994 35.4872C48.2357 33.3863 51.3898 32.224 54.6591 32.2225C57.2891 32.2239 59.8596 32.977 62.0455 34.3864V20.8338C62.0455 17.6734 59.4159 15.1395 56.1364 15.1395H37.5523L34.3023 12.0076L38.4091 8.0215L36.3409 6ZM8.86364 17.9866C7.23864 17.9866 5.90909 19.2679 5.90909 20.8338C5.90909 22.3998 7.23864 23.681 8.86364 23.681H23.6364C23.6364 22.1708 23.0138 20.7224 21.9056 19.6545C20.7975 18.5866 19.2945 17.9866 17.7273 17.9866H8.86364ZM14.7727 26.5282C13.2069 26.5286 11.6511 26.7688 10.1636 27.24L11.2273 29.8879L9.83864 30.4003L8.86364 27.7525C5.7232 29.0669 3.15407 31.3917 1.59545 34.3295L4.28409 35.4968L3.66364 36.778L1.00455 35.6392C0.34505 37.2733 0.00448698 39.0107 0 40.7641C0.000391442 42.273 0.249715 43.7722 0.738636 45.2057L3.48636 44.1807L4.01818 45.5189L1.27045 46.4585C2.63444 49.4848 5.04693 51.9605 8.09545 53.4625L9.27727 50.8716L10.6364 51.4695L9.45455 54.032C11.1503 54.6675 12.9533 54.9957 14.7727 55C16.3385 54.9996 17.8943 54.7594 19.3818 54.2882L18.3182 51.6403L19.7068 51.1278L20.6818 53.7757C23.8223 52.4613 26.3914 50.1365 27.95 47.1987L25.2614 46.0599L25.8818 44.7501L28.5409 45.889C29.2004 44.2549 29.541 42.5174 29.5455 40.7641C29.5451 39.2552 29.2957 37.7559 28.8068 36.3225L26.0591 37.3475L25.5273 36.0093L28.275 35.0697C26.911 32.0434 24.4985 29.5676 21.45 28.0657L20.2682 30.6566L18.9091 30.0587L20.0909 27.4962C18.3952 26.8607 16.5922 26.5325 14.7727 26.5282ZM14.7727 32.2225C17.1235 32.2225 19.378 33.1225 21.0403 34.7243C22.7025 36.3262 23.6364 38.4987 23.6364 40.7641C23.6364 43.0295 22.7025 45.202 21.0403 46.8039C19.378 48.4057 17.1235 49.3056 14.7727 49.3056C12.4219 49.3056 10.1674 48.4057 8.50519 46.8039C6.84294 45.202 5.90909 43.0295 5.90909 40.7641C5.90909 38.4987 6.84294 36.3262 8.50519 34.7243C10.1674 33.1225 12.4219 32.2225 14.7727 32.2225ZM54.6591 35.0697C51.9165 35.0697 49.2863 36.1196 47.347 37.9885C45.4077 39.8573 44.3182 42.3919 44.3182 45.0349C44.3182 47.6778 45.4077 50.2125 47.347 52.0813C49.2863 53.9501 51.9165 55 54.6591 55C57.4017 55 60.0319 53.9501 61.9712 52.0813C63.9105 50.2125 65 47.6778 65 45.0349C65 42.3919 63.9105 39.8573 61.9712 37.9885C60.0319 36.1196 57.4017 35.0697 54.6591 35.0697ZM54.6591 40.7641C55.8345 40.7641 56.9617 41.214 57.7929 42.015C58.624 42.8159 59.0909 43.9022 59.0909 45.0349C59.0909 46.1675 58.624 47.2538 57.7929 48.0548C56.9617 48.8557 55.8345 49.3056 54.6591 49.3056C53.4837 49.3056 52.3565 48.8557 51.5253 48.0548C50.6942 47.2538 50.2273 46.1675 50.2273 45.0349C50.2273 43.9022 50.6942 42.8159 51.5253 42.015C52.3565 41.214 53.4837 40.7641 54.6591 40.7641Z" fill="white"/>
<circle cx="62.5" cy="17.5" r="17.5" fill="#FFB547"/>
<path d="M71.7188 15.7441V20.1562H54.1758V15.7441H71.7188ZM65.3555 8.80078V27.4336H60.5566V8.80078H65.3555Z" fill="white"/>
</svg>
