<svg width="42" height="29" viewBox="0 0 42 29" fill="none" xmlns="http://www.w3.org/2000/svg">
<path d="M18.7899 3.1026L13.4432 8.25503L14.5125 9.30023L16.6512 7.25398L18.3316 8.87332V12.2445C18.3316 13.8785 16.972 15.1887 15.2763 15.1887H14.4514C15.9612 16.8055 16.7989 18.9022 16.804 21.0772C16.8009 21.5708 16.7549 22.0632 16.6665 22.5493H21.4327C21.6205 20.9305 22.4207 19.435 23.6804 18.3488C24.94 17.2625 26.5708 16.6616 28.2612 16.6608C29.6211 16.6616 30.9501 17.0509 32.0803 17.7797V10.7724C32.0803 9.1383 30.7207 7.82811 29.025 7.82811H19.4162L17.7358 6.20878L19.8592 4.14781L18.7899 3.1026ZM4.5829 9.30023C3.7427 9.30023 3.05527 9.96269 3.05527 10.7724C3.05527 11.582 3.7427 12.2445 4.5829 12.2445H12.2211C12.2211 11.4636 11.8992 10.7147 11.3262 10.1626C10.7532 9.61043 9.97611 9.30023 9.1658 9.30023H4.5829ZM7.63817 13.7166C6.82858 13.7168 6.02417 13.841 5.25506 14.0846L5.80501 15.4537L5.08702 15.7187L4.5829 14.3496C2.95915 15.0292 1.63079 16.2313 0.824922 17.7502L2.21507 18.3538L1.89427 19.0162L0.519395 18.4274C0.178406 19.2723 0.00231997 20.1706 0 21.0772C0.000202393 21.8574 0.129114 22.6326 0.381908 23.3737L1.80261 22.8438L2.07758 23.5357L0.656882 24.0215C1.36213 25.5862 2.60949 26.8663 4.18572 27.6429L4.79677 26.3032L5.49948 26.6124L4.88843 27.9373C5.7652 28.2659 6.69742 28.4356 7.63817 28.4378C8.44776 28.4376 9.25216 28.3134 10.0213 28.0698L9.47133 26.7007L10.1893 26.4357L10.6934 27.8048C12.3172 27.1252 13.6455 25.9232 14.4514 24.4042L13.0613 23.8154L13.3821 23.1382L14.7569 23.727C15.0979 22.8821 15.274 21.9838 15.2763 21.0772C15.2761 20.297 15.1472 19.5219 14.8944 18.7807L13.4737 19.3107L13.1988 18.6188L14.6195 18.133C13.9142 16.5682 12.6668 15.2881 11.0906 14.5115L10.4796 15.8512L9.77685 15.542L10.3879 14.2171C9.51113 13.8885 8.57891 13.7188 7.63817 13.7166ZM7.63817 16.6608C8.85363 16.6608 10.0193 17.1261 10.8788 17.9544C11.7382 18.7826 12.2211 19.9059 12.2211 21.0772C12.2211 22.2485 11.7382 23.3718 10.8788 24.2C10.0193 25.0283 8.85363 25.4936 7.63817 25.4936C6.42271 25.4936 5.25703 25.0283 4.39757 24.2C3.53811 23.3718 3.05527 22.2485 3.05527 21.0772C3.05527 19.9059 3.53811 18.7826 4.39757 17.9544C5.25703 17.1261 6.42271 16.6608 7.63817 16.6608ZM28.2612 18.133C26.8432 18.133 25.4832 18.6758 24.4805 19.6421C23.4778 20.6083 22.9145 21.9189 22.9145 23.2854C22.9145 24.6519 23.4778 25.9624 24.4805 26.9287C25.4832 27.895 26.8432 28.4378 28.2612 28.4378C29.6793 28.4378 31.0392 27.895 32.0419 26.9287C33.0446 25.9624 33.6079 24.6519 33.6079 23.2854C33.6079 21.9189 33.0446 20.6083 32.0419 19.6421C31.0392 18.6758 29.6793 18.133 28.2612 18.133ZM28.2612 21.0772C28.8689 21.0772 29.4518 21.3099 29.8815 21.724C30.3112 22.1381 30.5527 22.6997 30.5527 23.2854C30.5527 23.871 30.3112 24.4327 29.8815 24.8468C29.4518 25.2609 28.8689 25.4936 28.2612 25.4936C27.6535 25.4936 27.0706 25.2609 26.6409 24.8468C26.2112 24.4327 25.9698 23.871 25.9698 23.2854C25.9698 22.6997 26.2112 22.1381 26.6409 21.724C27.0706 21.3099 27.6535 21.0772 28.2612 21.0772Z" fill="#929292"/>
<circle cx="32.3149" cy="9.04829" r="9.04829" fill="#FA9411"/>
<path d="M33.1339 14.9772H33.6339V14.4772V10.8839H37.2272H37.7272V10.3839V8.74659V8.24659H37.2272H33.6339V4.65332V4.15332H33.1339H31.4966H30.9966V4.65332V8.24659H27.4033H26.9033V8.74659V10.3839V10.8839H27.4033H30.9966V14.4772V14.9772H31.4966H33.1339Z" fill="#929292" stroke="#929292"/>
</svg>
