<svg width="78" height="58" viewBox="0 0 78 58" fill="none" xmlns="http://www.w3.org/2000/svg">
<path d="M44.1768 1.65531C43.7923 1.28794 43.1875 1.28579 42.8004 1.65043L32.1673 11.6659C31.7503 12.0588 31.7479 12.7211 32.1622 13.1169L33.1347 14.046C33.5183 14.4125 34.1211 14.4157 34.5086 14.0534L37.969 10.8171C38.3545 10.4567 38.9536 10.4578 39.3377 10.8196L42.1402 13.4593C42.3408 13.6482 42.4545 13.9116 42.4545 14.1872V21.2069C42.4545 24.8187 39.38 27.7147 35.5455 27.7147V27.7147C34.8435 27.7147 34.4685 28.5711 34.9036 29.122C37.5439 32.4652 38.9899 36.5318 39 40.7304C38.9956 41.4206 38.9524 42.1097 38.8706 42.795C38.7964 43.4162 39.2668 43.9843 39.8924 43.9843H48.5789C49.0856 43.9843 49.5084 43.6044 49.6002 43.1061C50.1971 39.8677 51.9361 36.9029 54.5501 34.6996C57.3986 32.2986 61.0865 30.9703 64.9091 30.9686C67.3688 30.9699 69.784 31.5208 71.9601 32.5656C72.6697 32.9062 73.5455 32.4164 73.5455 31.6293V17.9529C73.5455 14.3411 70.4709 11.4451 66.6364 11.4451H45.3041C45.0492 11.4451 44.804 11.3478 44.6184 11.173L41.8773 8.5911C41.4592 8.19728 41.458 7.53301 41.8747 7.1377L45.1471 4.03321C45.5617 3.63983 45.5629 2.97953 45.1496 2.58469L44.1768 1.65531ZM11.3636 14.699C9.46364 14.699 7.90909 16.1633 7.90909 17.9529C7.90909 19.7426 9.46364 21.2069 11.3636 21.2069H27.6364C28.1886 21.2069 28.6446 20.7562 28.5551 20.2112C28.332 18.8539 27.6566 17.5884 26.6127 16.6051C25.317 15.3847 23.5597 14.699 21.7273 14.699H11.3636ZM-nan -nanL18.2727 24.4608C16.8087 24.4611 15.3521 24.6368 13.9378 24.9825C13.367 25.1221 13.0761 25.7426 13.2995 26.2861L13.7897 27.4791C13.9737 27.9268 13.7473 28.4375 13.292 28.6017V28.6017C12.8548 28.7594 12.372 28.5367 12.2082 28.1018L11.7262 26.8224C11.5276 26.2953 10.9316 26.0336 10.4234 26.2767C7.52103 27.665 5.09433 29.798 3.42349 32.4278C3.10703 32.9259 3.33559 33.576 3.87883 33.8066L5.21104 34.372C5.64402 34.5557 5.83303 35.066 5.62422 35.4875V35.4875C5.43272 35.874 4.97386 36.0452 4.57596 35.8786L3.1015 35.2614C2.59029 35.0474 1.99926 35.2891 1.82106 35.8139C1.28193 37.4015 1.00437 39.0596 1 40.7304C1.00037 42.1182 1.18925 43.4989 1.56094 44.8389C1.71001 45.3764 2.29231 45.6502 2.81628 45.4592L4.33967 44.9037C4.75082 44.7538 5.20688 44.9561 5.37171 45.3615V45.3615C5.54856 45.7964 5.32141 46.2904 4.8761 46.4392L3.54386 46.8845C2.97903 47.0733 2.70129 47.7124 2.98804 48.2344C4.48236 50.9544 6.76269 53.2233 9.56643 54.7777C10.0536 55.0478 10.658 54.8304 10.8935 54.3256L11.4935 53.04C11.6906 52.6176 12.1877 52.4282 12.6159 52.6123V52.6123C13.0643 52.8052 13.2636 53.3314 13.0552 53.7729L12.5214 54.9043C12.2706 55.4357 12.5296 56.0703 13.0926 56.2385C14.7661 56.7385 16.5128 56.9959 18.2727 57C19.7368 56.9997 21.1934 56.824 22.6076 56.4782C23.1785 56.3387 23.4694 55.7182 23.246 55.1747L22.7557 53.9817C22.5717 53.534 22.7982 53.0233 23.2535 52.8591V52.8591C23.6906 52.7013 24.1734 52.924 24.3373 53.359L24.8193 54.6384C25.0178 55.1655 25.6139 55.4271 26.122 55.1841C29.0214 53.7972 31.446 51.6672 33.1167 49.0412C33.4354 48.5404 33.2023 47.8865 32.6538 47.6594L31.3484 47.1189C30.9079 46.9365 30.7117 46.4209 30.9197 45.9918V45.9918C31.1116 45.5958 31.5795 45.4189 31.9854 45.5888L33.444 46.1994C33.9552 46.4134 34.5462 46.1717 34.7244 45.6469C35.2635 44.0593 35.5411 42.4012 35.5455 40.7304C35.5451 39.3426 35.3562 37.9619 34.9845 36.6219C34.8354 36.0844 34.2531 35.8106 33.7292 36.0016L32.2058 36.5571C31.7946 36.707 31.3386 36.5047 31.1737 36.0993V36.0993C30.9969 35.6643 31.224 35.1704 31.6694 35.0216L33.0016 34.5763C33.5664 34.3875 33.8442 33.7484 33.5574 33.2264C32.0631 30.5064 29.7828 28.2375 26.979 26.683C26.4918 26.4129 25.8875 26.6304 25.6519 27.1352L25.052 28.4208C24.8549 28.8432 24.3578 29.0326 23.9296 28.8485V28.8485C23.4811 28.6556 23.2819 28.1294 23.4902 27.6879L24.0241 26.5565C24.2748 26.025 24.0159 25.3905 23.4528 25.2223C21.7794 24.7223 20.0326 24.4649 18.2727 24.4608L-nan -nanL-nan -nanZM-nan -nanL18.2727 30.9686C21.0213 30.9686 23.6574 31.9971 25.6009 33.8278C27.5445 35.6585 28.6364 38.1414 28.6364 40.7304C28.6364 43.3194 27.5445 45.8023 25.6009 47.633C23.6574 49.4637 21.0213 50.4922 18.2727 50.4922C15.5241 50.4922 12.8881 49.4637 10.9445 47.633C9.00097 45.8023 7.90909 43.3194 7.90909 40.7304C7.90909 38.1414 9.00097 35.6585 10.9445 33.8278C12.8881 31.9971 15.5241 30.9686 18.2727 30.9686L-nan -nanL-nan -nanZM-nan -nanL64.9091 34.2225C61.7024 34.2225 58.627 35.4224 56.3595 37.5582C54.092 39.694 52.8182 42.5908 52.8182 45.6113C52.8182 48.6318 54.092 51.5285 56.3595 53.6643C58.627 55.8001 61.7024 57 64.9091 57C68.1158 57 71.1912 55.8001 73.4587 53.6643C75.7261 51.5285 77 48.6318 77 45.6113C77 42.5908 75.7261 39.694 73.4587 37.5582C71.1912 35.4224 68.1158 34.2225 64.9091 34.2225L-nan -nanL-nan -nanZM64.9091 40.7304C66.2834 40.7304 67.6014 41.2446 68.5732 42.16C69.545 43.0753 70.0909 44.3168 70.0909 45.6113C70.0909 46.9058 69.545 48.1472 68.5732 49.0626C67.6014 49.9779 66.2834 50.4922 64.9091 50.4922C63.5348 50.4922 62.2168 49.9779 61.245 49.0626C60.2732 48.1472 59.7273 46.9058 59.7273 45.6113C59.7273 44.3168 60.2732 43.0753 61.245 42.16C62.2168 41.2446 63.5348 40.7304 64.9091 40.7304Z" stroke="#FA9411" stroke-width="2"/>
</svg>
