<svg width="30" height="23" viewBox="0 0 30 23" fill="none" xmlns="http://www.w3.org/2000/svg">
<path d="M17.0852 1.41878C16.845 1.18516 16.4628 1.18381 16.2209 1.41572L12.665 4.82493C12.4109 5.0686 12.4094 5.47444 12.6619 5.7199V5.7199C12.9014 5.95289 13.2823 5.95492 13.5244 5.7245L14.1808 5.09969C14.5679 4.73115 15.1765 4.73224 15.5623 5.10216L15.9648 5.48803C16.1615 5.67663 16.2727 5.93735 16.2727 6.20987V8.57757C16.2727 9.93202 15.14 11.018 13.7273 11.018V11.018C13.4667 11.018 13.3266 11.3345 13.4865 11.5402C14.462 12.795 14.9963 14.3221 15 15.8989C14.9999 15.9081 14.9999 15.9174 14.9998 15.9266C14.9934 16.5509 15.4606 17.1191 16.0849 17.1191H17.9662C18.4737 17.1191 18.8909 16.7349 19.0333 16.2478C19.3259 15.2464 19.9112 14.3389 20.729 13.6374C21.7784 12.737 23.1371 12.2389 24.5455 12.2382C25.0594 12.2385 25.5681 12.3051 26.0584 12.4341C26.8231 12.6354 27.7273 12.1268 27.7273 11.336V7.35735C27.7273 6.00291 26.5945 4.91691 25.1818 4.91691H17.5783C17.3204 4.91691 17.0724 4.81725 16.8862 4.63875L16.5266 4.29392C16.117 3.90125 16.1158 3.24686 16.524 2.85273L17.0836 2.31231C17.3363 2.06832 17.337 1.66366 17.0852 1.41878V1.41878ZM4.81818 6.13713C4.11818 6.13713 3.54545 6.68623 3.54545 7.35735C3.54545 8.02847 4.11818 8.57757 4.81818 8.57757H10.1818C10.7341 8.57757 11.1995 8.11076 10.9721 7.60747C10.8459 7.32818 10.6651 7.07131 10.4363 6.85192C9.95891 6.39425 9.31146 6.13713 8.63636 6.13713H4.81818ZMnan nanL7.36364 9.79779C6.8988 9.7979 6.436 9.84684 5.98348 9.94335C5.6533 10.0138 5.48623 10.3705 5.61262 10.6835L5.71502 10.9371C5.7814 11.1015 5.69856 11.2883 5.53212 11.3494V11.3494C5.36966 11.409 5.18957 11.3259 5.12949 11.1636L5.03266 10.902C4.91563 10.5858 4.55738 10.4282 4.25985 10.5868C3.3537 11.0701 2.5844 11.7584 2.01917 12.5914C1.82492 12.8777 1.95947 13.2588 2.27707 13.396L2.55177 13.5146C2.71178 13.5837 2.78172 13.7724 2.70545 13.9291V13.9291C2.63415 14.0756 2.46054 14.1405 2.31067 14.0766L2.02482 13.9548C1.6995 13.8162 1.3202 13.9707 1.22358 14.3108C1.07681 14.8276 1.00138 15.3615 1 15.8989C1.00011 16.3302 1.04793 16.7597 1.14225 17.1802C1.21988 17.5262 1.59223 17.7007 1.92473 17.5773L2.22344 17.4665C2.37828 17.409 2.5507 17.4855 2.61197 17.6389V17.6389C2.67663 17.8008 2.59238 17.9838 2.42736 18.0399L2.15254 18.1334C1.82824 18.2438 1.66791 18.6113 1.84163 18.9066C2.34998 19.7705 3.07073 20.5029 3.94111 21.0398C4.23216 21.2193 4.6048 21.0847 4.74731 20.7739L4.86578 20.5155C4.93826 20.3574 5.12408 20.2866 5.28341 20.3563V20.3563C5.44717 20.428 5.52 20.6203 5.44482 20.7825L5.33437 21.0207C5.19325 21.3251 5.34099 21.6876 5.66506 21.7745C6.21713 21.9225 6.78847 21.9986 7.36364 22C7.82848 21.9999 8.29127 21.9509 8.7438 21.8544C9.07397 21.784 9.24104 21.4273 9.11465 21.1143L9.01225 20.8607C8.94587 20.6963 9.02871 20.5095 9.19515 20.4484V20.4484C9.35761 20.3888 9.53771 20.4719 9.59778 20.6342L9.69461 20.8958C9.81165 21.212 10.1699 21.3696 10.4674 21.211C11.3735 20.7278 12.1427 20.0395 12.7079 19.2066C12.9017 18.921 12.7657 18.541 12.4477 18.407L12.1807 18.2945C12.0179 18.2259 11.9453 18.0352 12.0213 17.8756V17.8756C12.0927 17.7256 12.2697 17.6586 12.4226 17.7238L12.7049 17.844C13.0289 17.9821 13.4066 17.8282 13.503 17.4895C13.6502 16.972 13.7259 16.4372 13.7273 15.8989C13.7272 15.4676 13.6793 15.0381 13.585 14.6176C13.5074 14.2716 13.135 14.0971 12.8025 14.2205L12.5038 14.3313C12.349 14.3888 12.1766 14.3123 12.1153 14.1589V14.1589C12.0506 13.997 12.1349 13.814 12.2999 13.7579L12.5747 13.6644C12.899 13.554 13.0594 13.1865 12.8856 12.8912C12.3773 12.0273 11.6565 11.2948 10.7862 10.758C10.4951 10.5785 10.1225 10.7131 9.97996 11.0239L9.8615 11.2823C9.78901 11.4404 9.60319 11.5112 9.44386 11.4415V11.4415C9.28011 11.3698 9.20727 11.1775 9.28245 11.0153L9.39291 10.7771C9.53402 10.4727 9.38629 10.1102 9.06221 10.0233C8.51014 9.87526 7.9388 9.79915 7.36364 9.79779Lnan nanLnan nanZMnan nanL7.36364 12.2382C8.37628 12.2382 9.34745 12.6239 10.0635 13.3104C10.7795 13.9969 11.1818 14.928 11.1818 15.8989C11.1818 16.8698 10.7795 17.8009 10.0635 18.4874C9.34745 19.1739 8.37628 19.5596 7.36364 19.5596C6.35099 19.5596 5.37982 19.1739 4.66377 18.4874C3.94773 17.8009 3.54545 16.8698 3.54545 15.8989C3.54545 14.928 3.94773 13.9969 4.66377 13.3104C5.37982 12.6239 6.35099 12.2382 7.36364 12.2382Lnan nanLnan nanZMnan nanL24.5455 13.4585C23.364 13.4585 22.231 13.9084 21.3956 14.7093C20.5602 15.5103 20.0909 16.5965 20.0909 17.7292C20.0909 18.8619 20.5602 19.9482 21.3956 20.7491C22.231 21.55 23.364 22 24.5455 22C25.7269 22 26.8599 21.55 27.6953 20.7491C28.5307 19.9482 29 18.8619 29 17.7292C29 16.5965 28.5307 15.5103 27.6953 14.7093C26.8599 13.9084 25.7269 13.4585 24.5455 13.4585Lnan nanLnan nanZM24.5455 15.8989C25.0518 15.8989 25.5374 16.0917 25.8954 16.435C26.2534 16.7782 26.4545 17.2438 26.4545 17.7292C26.4545 18.2147 26.2534 18.6802 25.8954 19.0235C25.5374 19.3667 25.0518 19.5596 24.5455 19.5596C24.0391 19.5596 23.5535 19.3667 23.1955 19.0235C22.8375 18.6802 22.6364 18.2147 22.6364 17.7292C22.6364 17.2438 22.8375 16.7782 23.1955 16.435C23.5535 16.0917 24.0391 15.8989 24.5455 15.8989Z" stroke="#929292"/>
</svg>
