<svg width="108" height="80" viewBox="0 0 108 80" fill="none" xmlns="http://www.w3.org/2000/svg">
<path d="M60.9491 1.65396C60.5647 1.28721 59.9606 1.28507 59.5736 1.64909L44.1689 16.1396C43.7511 16.5326 43.7488 17.1956 44.1637 17.5915L46.0898 19.4291C46.4732 19.7949 47.0753 19.7982 47.4626 19.4365L52.8332 14.4207C53.2185 14.0609 53.8169 14.0619 54.2009 14.4231L58.5033 18.4703C58.7043 18.6592 58.8182 18.9228 58.8182 19.1987V29.1453C58.8182 34.1761 54.53 38.2098 49.1818 38.2098H48.9206C48.0403 38.2098 47.5724 39.2823 48.1249 39.9675C51.91 44.6619 53.9858 50.4057 54 56.3388C53.9929 57.4575 53.9124 58.5744 53.7591 59.6831C53.6734 60.3029 54.1442 60.871 54.7699 60.871H67.7109C68.2175 60.871 68.6413 60.4915 68.7242 59.9917C69.4948 55.3473 71.95 51.0854 75.6883 47.9387C79.6613 44.5945 84.8049 42.7444 90.1364 42.742C93.8102 42.7439 97.4129 43.6237 100.611 45.2862C101.309 45.6491 102.182 45.1624 102.182 44.3755V24.613C102.182 19.5822 97.8936 15.5485 92.5455 15.5485H62.6355C62.3809 15.5485 62.1358 15.4514 61.9503 15.2769L57.7107 11.2888C57.2919 10.8949 57.2907 10.2299 57.7081 9.83451L62.8728 4.94129C63.2881 4.54782 63.2893 3.88676 62.8754 3.49184L60.9491 1.65396ZM15.4545 20.0808C12.8045 20.0808 10.6364 22.1203 10.6364 24.613C10.6364 27.1058 12.8045 29.1453 15.4545 29.1453H38.5455C39.0977 29.1453 39.5515 28.696 39.4869 28.1475C39.2472 26.1105 38.2784 24.1988 36.723 22.7357C34.9159 21.0358 32.4648 20.0808 29.9091 20.0808H15.4545ZM-nan -nanL25.0909 33.6775C22.9045 33.678 20.7301 33.9585 18.6273 34.51C18.0585 34.6591 17.7675 35.2794 17.9912 35.8231L18.9112 38.0586C19.128 38.5855 18.8614 39.1869 18.3253 39.38L17.9714 39.5075C17.4573 39.6927 16.8897 39.4309 16.6968 38.9196L15.8172 36.5878C15.6185 36.0611 15.0235 35.8003 14.5116 36.0345C10.1649 38.0239 6.55505 41.1977 4.15186 45.141C3.84453 45.6453 4.07274 46.2955 4.61648 46.5259L7.009 47.5399C7.53909 47.7645 7.77047 48.3893 7.5146 48.905L7.39117 49.1538C7.15685 49.6261 6.59608 49.8354 6.10963 49.632L3.56444 48.568C3.05347 48.3543 2.46388 48.596 2.27606 49.117C1.43817 51.4412 1.00645 53.8802 1 56.3388C1.00055 58.4045 1.30138 60.459 1.8928 62.4452C2.05187 62.9794 2.63278 63.2531 3.15653 63.0624L5.78035 62.107C6.28562 61.9231 6.84591 62.1716 7.04868 62.6696L7.1505 62.9197C7.36832 63.4547 7.08886 64.0624 6.54093 64.2453L4.13135 65.0496C3.56609 65.2383 3.28871 65.8774 3.56558 66.4051C5.70311 70.4792 9.0947 73.8565 13.2997 76.0957C13.791 76.3574 14.3943 76.1408 14.6299 75.6365L15.7189 73.3061C15.9475 72.8169 16.5232 72.5975 17.0194 72.8106L17.3931 72.9711C17.9135 73.1945 18.1446 73.8051 17.9027 74.3171L16.886 76.4689C16.6348 77.0006 16.8939 77.6349 17.4545 77.8127C19.913 78.5923 22.4916 78.994 25.0909 79C27.2773 78.9995 29.4517 78.719 31.5545 78.1675C32.1233 78.0184 32.4144 77.3982 32.1906 76.8544L31.2707 74.6189C31.0538 74.092 31.3204 73.4907 31.8565 73.2975L32.2104 73.17C32.7245 72.9848 33.2921 73.2466 33.485 73.7579L34.3646 76.0897C34.5633 76.6164 35.1583 76.8772 35.6702 76.643C40.0138 74.6551 43.6217 71.4843 46.0249 67.5449C46.3342 67.0377 46.1015 66.3838 45.5526 66.1568L43.1765 65.1744C42.6444 64.9544 42.4076 64.3316 42.659 63.8137L42.7944 63.5347C43.0261 63.0573 43.5902 62.844 44.0798 63.0487L46.6174 64.1096C47.1283 64.3232 47.7179 64.0815 47.9058 63.5605C48.7437 61.2363 49.1754 58.7974 49.1818 56.3388C49.1813 54.273 48.8804 52.2186 48.289 50.2324C48.1299 49.6981 47.549 49.4244 47.0253 49.6151L44.4015 50.5705C43.8962 50.7545 43.3359 50.506 43.1331 50.0079L43.0313 49.7578C42.8135 49.2228 43.093 48.6151 43.6409 48.4322L46.0505 47.6279C46.6157 47.4392 46.8931 46.8001 46.6162 46.2724C44.4787 42.1984 41.0871 38.821 36.8821 36.5818C36.3908 36.3201 35.7876 36.5367 35.5519 37.041L34.4629 39.3714C34.2343 39.8607 33.6586 40.08 33.1624 39.8669L32.7887 39.7065C32.2683 39.483 32.0372 38.8724 32.2791 38.3604L33.2958 36.2086C33.547 35.6769 33.2879 35.0426 32.7273 34.8648C30.2688 34.0852 27.6902 33.6835 25.0909 33.6775L-nan -nanL-nan -nanZM-nan -nanL25.0909 42.742C28.9245 42.742 32.6011 44.1745 35.3118 46.7244C38.0226 49.2743 39.5455 52.7327 39.5455 56.3388C39.5455 59.9448 38.0226 63.4032 35.3118 65.9531C32.6011 68.503 28.9245 69.9355 25.0909 69.9355C21.2573 69.9355 17.5808 68.503 14.87 65.9531C12.1592 63.4032 10.6364 59.9448 10.6364 56.3388C10.6364 52.7327 12.1592 49.2743 14.87 46.7244C17.5808 44.1745 21.2573 42.742 25.0909 42.742L-nan -nanL-nan -nanZM-nan -nanL90.1364 47.2743C85.6639 47.2743 81.3745 48.9455 78.212 51.9204C75.0494 54.8953 73.2727 58.93 73.2727 63.1371C73.2727 67.3442 75.0494 71.379 78.212 74.3539C81.3745 77.3288 85.6639 79 90.1364 79C94.6089 79 98.8982 77.3288 102.061 74.3539C105.223 71.379 107 67.3442 107 63.1371C107 58.93 105.223 54.8953 102.061 51.9204C98.8982 48.9455 94.6089 47.2743 90.1364 47.2743L-nan -nanL-nan -nanZM90.1364 56.3388C92.0532 56.3388 93.8914 57.055 95.2468 58.33C96.6022 59.6049 97.3636 61.3341 97.3636 63.1371C97.3636 64.9402 96.6022 66.6694 95.2468 67.9443C93.8914 69.2192 92.0532 69.9355 90.1364 69.9355C88.2196 69.9355 86.3813 69.2192 85.0259 67.9443C83.6705 66.6694 82.9091 64.9402 82.9091 63.1371C82.9091 61.3341 83.6705 59.6049 85.0259 58.33C86.3813 57.055 88.2196 56.3388 90.1364 56.3388Z" stroke="white" stroke-width="2"/>
</svg>
