<svg width="69" height="58" viewBox="0 0 69 58" fill="none" xmlns="http://www.w3.org/2000/svg">
<path d="M25.5497 34.5906C23.3596 31.9729 20.4876 30.9296 17.3645 30.4941C13.2209 26.8292 5.2573 35.2997 3.62905 38.6029C-0.140367 46.2509 5.53052 53.3546 12.8693 55.2179C20.4045 57.1308 26.7988 52.0841 27.7843 44.5595C28.2244 41.2028 27.8128 37.2954 25.5497 34.5906ZM24.3751 43.5715C24.0616 49.5196 19.4293 52.8652 13.7973 51.8533C7.92314 50.7976 4.32351 45.2269 7.11419 39.6423C8.20457 37.4601 10.1891 35.6642 12.1966 34.3552C12.6517 34.0585 13.1114 33.8562 13.5762 33.7125C13.6679 33.735 13.7585 33.7585 13.8583 33.7685C16.8345 34.0713 19.8381 34.184 22.2218 36.2249C24.256 37.9659 24.5042 41.1225 24.3751 43.5715Z" fill="#FA9411"/>
<path d="M68.4772 23.2692C68.454 22.8162 68.2011 22.3646 67.6539 22.1517C64.6778 20.9918 61.2922 21.1408 58.1534 20.8769C57.2117 20.7977 55.2885 20.9165 55.0766 20.0683C54.6803 18.4828 54.6382 16.8396 54.4792 15.2153C58.316 14.9039 60.8171 7.53057 56.183 6.64814C53.2775 6.09493 50.4569 9.07322 49.1407 11.2668C47.6027 13.8306 47.2517 17.5145 48.0689 20.5348C43.1638 19.753 38.2041 19.722 33.247 19.5936C32.2968 14.0596 32.2069 6.1256 28.5919 1.839C27.2415 0.237493 24.235 1.06749 22.5337 1.17129C17.3814 1.48552 12.2181 0.581691 7.03154 0.913762C6.46085 0.9505 5.95258 1.37138 5.9647 1.9806C6.10773 9.11566 4.54439 16.1922 5.24527 23.3137C5.25027 23.363 5.26739 23.4011 5.28094 23.4425C5.26882 23.4532 5.25598 23.4636 5.24385 23.4743C3.07272 24.1548 0.245305 26.4105 0.51781 28.7178C0.549198 28.9825 0.73824 29.1758 0.955103 29.2347C1.03607 29.3866 1.17375 29.5008 1.34959 29.5692C5.07549 31.0209 9.08603 27.9727 12.609 27.0165C20.5748 24.8543 27.1948 30.3579 28.9015 37.7861C29.3773 39.8567 29.2489 43.4007 31.8691 44.1219C36.1297 45.2936 41.7221 45.3324 46.1453 45.1677C45.4323 46.9553 45.1744 48.9685 45.4708 50.82C46.3732 56.4577 51.8069 58.6909 56.7181 56.0689C60.3798 54.1147 61.4641 49.3804 60.5185 45.6321C60.2421 44.5353 59.6432 43.4584 58.8475 42.5254C60.7571 40.4284 61.8582 36.2952 63.0285 33.9546C64.717 30.5765 66.6699 27.3321 68.3791 23.9847C68.5025 23.745 68.5239 23.4971 68.4772 23.2692ZM8.05629 3.09808C14.0268 3.39984 20.0319 3.71051 25.9938 3.40519C28.6936 3.26679 30.2958 15.033 31.0116 19.5215C29.7968 19.4773 28.5819 19.4234 27.3692 19.3375C20.2862 18.8353 13.7846 18.8192 6.85213 20.0811C7.39393 14.4331 7.90612 8.7654 8.05629 3.09808ZM56.1994 51.6839C54.6632 54.1204 50.8581 54.2178 49.4746 51.6996C48.7038 50.2971 48.9927 48.4538 49.3333 46.9882C49.5477 46.0669 50.296 44.2378 51.3339 43.3885C53.6488 43.8551 55.3741 43.3935 56.6753 45.824C57.6508 47.6462 57.252 50.0143 56.1994 51.6839ZM60.9358 32.7312C60.1172 34.4362 57.6797 38.3311 57.2791 41.0765C55.3844 39.7161 52.9914 39.175 50.8663 40.396C50.6227 40.5358 50.4501 40.7416 50.3206 40.9695C49.1222 41.2641 47.9911 42.0684 47.297 43.029C47.236 43.1132 47.1857 43.2063 47.1276 43.2926C46.9564 43.1306 46.7306 43.0115 46.4264 42.9976C43.4416 42.8585 40.5101 42.4604 37.5518 42.0685C34.3323 41.6422 32.3577 42.4715 31.7599 38.7217C31.0783 34.4472 29.6166 30.9161 26.4746 27.8925C23.9657 25.4781 20.4192 24.652 17.0864 24.3114C14.8789 24.086 12.5762 24.5411 10.4906 25.202C9.31823 25.5737 3.48933 28.9868 2.07045 28.1735C2.51452 27.564 3.00888 27.0443 3.70191 26.5881C4.66995 25.9511 5.84807 25.5305 6.69911 24.7405C6.78043 24.6649 6.82288 24.5575 6.86532 24.453C8.88307 23.8078 10.807 22.8522 12.8373 22.2209C15.9422 21.255 18.8081 21.6192 21.9148 21.4283C22.2355 21.454 22.5397 21.4768 22.8176 21.4936C31.3605 22.0101 40.035 21.9198 48.5197 23.0701C49.787 23.2421 50.4676 21.6998 49.7496 21.0121C50.3056 16.484 49.4828 11.9349 54.2156 9.14028C55.9387 8.12266 56.8861 9.09212 56.3928 10.8317C55.9309 12.4606 54.3711 12.807 53.2172 13.7486C52.8209 14.0718 52.8941 14.5037 53.1512 14.8158C52.6647 17.1103 51.6225 21.8232 54.2281 22.6728C57.7239 23.8127 61.5754 23.5463 65.2281 24.1199C63.3092 26.5324 62.0073 30.4998 60.9358 32.7312Z" fill="#FA9411"/>
</svg>
