<svg width="20" height="20" viewBox="0 0 20 20" fill="none" xmlns="http://www.w3.org/2000/svg">
<path d="M18.6361 16.3637H15.4543C13.4493 16.3637 11.818 14.7324 11.818 12.7274C11.818 10.7224 13.4493 9.09109 15.4543 9.09109H18.6361C18.8873 9.09109 19.0906 8.88778 19.0906 8.63654V7.27292C19.0906 6.31975 18.3513 5.54458 17.4172 5.46941L14.8067 0.909826C14.5648 0.488129 14.1742 0.186727 13.7068 0.0615729C13.2415 -0.062729 12.7551 0.00255401 12.3387 0.244894L3.38986 5.45475H1.81817C0.815441 5.45475 0 6.27015 0 7.27292V18.1818C0 19.1846 0.815399 20 1.81817 20H17.2725C18.2752 20 19.0906 19.1846 19.0906 18.1818V16.8182C19.0906 16.567 18.8873 16.3637 18.6361 16.3637ZM15.3704 3.72484L16.3609 5.45475H12.3991L15.3704 3.72484ZM5.19665 5.45475L12.7963 1.03055C13.0018 0.910253 13.242 0.878293 13.4715 0.93957C13.7036 1.0017 13.8972 1.15174 14.0175 1.36169L14.0184 1.36336L6.99112 5.45475H5.19665Z" fill="#707070"/>
<path d="M18.6361 10H15.4543C13.9504 10 12.7271 11.2233 12.7271 12.7272C12.7271 14.2311 13.9504 15.4545 15.4543 15.4545H18.6361C19.388 15.4545 19.9997 14.8428 19.9997 14.0908V11.3636C19.9997 10.6117 19.388 10 18.6361 10ZM15.4543 13.6363C14.9532 13.6363 14.5452 13.2284 14.5452 12.7272C14.5452 12.2261 14.9532 11.8182 15.4543 11.8182C15.9554 11.8182 16.3633 12.2261 16.3633 12.7272C16.3634 13.2284 15.9555 13.6363 15.4543 13.6363Z" fill="#707070"/>
</svg>
