<svg width="60" height="60" viewBox="0 0 60 60" fill="none" xmlns="http://www.w3.org/2000/svg">
<g clip-path="url(#clip0_1926_13152)">
<path d="M47.0998 17.5217C45.0139 7.38469 35.1051 0.858034 24.9681 2.94395C16.288 4.73015 10.0459 12.3527 10.0061 21.2145C10.0061 21.6367 10.0235 22.069 10.061 22.5263C3.88585 23.1799 -0.590265 28.7157 0.0633843 34.8909C0.669248 40.6146 5.49965 44.9566 11.2553 44.951H12.567C12.5371 44.5362 12.5046 44.124 12.5046 43.7016C12.5046 34.7322 19.7758 27.4609 28.7454 27.4609C37.7149 27.4609 44.986 34.7322 44.986 43.7016C44.986 44.1239 44.9535 44.5361 44.9236 44.951H46.2353C53.8165 44.9717 59.9792 38.8427 59.9999 31.2613C60.0198 23.9869 54.3612 17.96 47.0998 17.5217Z" fill="#1373E6"/>
<path d="M28.745 57.4442C36.3346 57.4442 42.4871 51.2916 42.4871 43.7021C42.4871 36.1125 36.3346 29.96 28.745 29.96C21.1555 29.96 15.0029 36.1125 15.0029 43.7021C15.0029 51.2916 21.1555 57.4442 28.745 57.4442Z" fill="#F8A730"/>
<path d="M28.7454 52.4471C28.0555 52.4471 27.4961 51.8877 27.4961 51.1978V36.2064C27.4961 35.5164 28.0555 34.957 28.7454 34.957C29.4354 34.957 29.9947 35.5164 29.9947 36.2064V51.1978C29.9946 51.8877 29.4354 52.4471 28.7454 52.4471Z" fill="#FAFAFA"/>
<path d="M33.7428 42.4543C33.4112 42.4549 33.093 42.3237 32.8583 42.0894L28.7456 37.9743L24.6329 42.0894C24.1367 42.5688 23.3457 42.555 22.8664 42.0588C22.3987 41.5746 22.3987 40.8071 22.8664 40.3229L27.8636 35.3257C28.3514 34.838 29.1422 34.838 29.6301 35.3257L34.6273 40.3229C35.1144 40.8115 35.1132 41.6026 34.6244 42.0897C34.3904 42.3231 34.0734 42.4542 33.7428 42.4543Z" fill="#FAFAFA"/>
</g>
<defs>
<clipPath id="clip0_1926_13152">
<rect width="60" height="60" fill="white"/>
</clipPath>
</defs>
</svg>
