<svg width="36" height="36" viewBox="0 0 36 36" fill="none" xmlns="http://www.w3.org/2000/svg">
<g clip-path="url(#clip0_1926_12803)">
<path d="M35.4019 18.1601L31.6382 21.5348C31.5749 21.5916 31.5511 21.6804 31.5776 21.7612L33.1517 26.5654C33.1915 26.6868 33.1169 26.8159 32.9919 26.842L28.0423 27.8769C27.9589 27.8943 27.8938 27.9594 27.8764 28.0428L26.8415 32.9924C26.8154 33.1175 26.6864 33.192 26.5649 33.1522L21.7608 31.578C21.68 31.5515 21.5912 31.5753 21.5344 31.6386L18.1597 35.4024C18.0745 35.4973 17.9257 35.4973 17.8405 35.4024L14.4658 31.6386C14.409 31.5753 14.3202 31.5515 14.2394 31.578L9.43519 33.1521C9.31376 33.1919 9.18473 33.1173 9.15858 32.9923L8.12372 28.0427C8.10628 27.9594 8.0411 27.8942 7.95778 27.8768L3.0082 26.8419C2.88312 26.8158 2.80858 26.6868 2.84838 26.5653L4.42261 21.7612C4.44912 21.6804 4.42528 21.5916 4.362 21.5348L0.5981 18.1601C0.503107 18.0749 0.503107 17.9261 0.5981 17.8409L4.36186 14.4662C4.42514 14.4094 4.4489 14.3206 4.42247 14.2398L2.84831 9.4356C2.80851 9.31417 2.88312 9.18515 3.00813 9.15899L7.95771 8.12413C8.0411 8.10669 8.10621 8.04152 8.12365 7.95819L9.15851 3.00862C9.18466 2.88353 9.31369 2.809 9.43512 2.8488L14.2393 4.42302C14.3201 4.44953 14.4089 4.4257 14.4656 4.36241L17.8404 0.598588C17.9256 0.503596 18.0744 0.503596 18.1596 0.598588L21.5343 4.36234C21.5911 4.42563 21.6799 4.44939 21.7607 4.42295L26.5649 2.8488C26.6864 2.809 26.8154 2.8836 26.8415 3.00862L27.8764 7.95819C27.8938 8.04159 27.9589 8.10669 28.0423 8.12413L32.9919 9.15899C33.117 9.18515 33.1915 9.31417 33.1517 9.4356L31.5775 14.2398C31.551 14.3206 31.5748 14.4094 31.6381 14.4661L35.4019 17.8408C35.497 17.9261 35.497 18.0749 35.4019 18.1601Z" fill="#FECE85"/>
<path d="M12.1416 3.81632L9.25537 2.87012C9.30663 2.83848 9.37195 2.828 9.43516 2.84832L12.3214 3.79382C12.2681 3.8275 12.2027 3.83593 12.1416 3.81632Z" fill="#FEC165"/>
<path d="M19.8404 30.9073L21.6997 31.5676C21.6379 31.5648 21.5768 31.5901 21.5346 31.6378L18.1595 35.4014C18.0745 35.4963 17.9255 35.4963 17.8405 35.4014L16.6899 34.1181L19.6141 30.9677C19.6711 30.9045 19.7596 30.8806 19.8404 30.9073Z" fill="#FEC165"/>
<path d="M26.2752 7.63537L25.3164 3.25722L26.5646 2.84843C26.6861 2.80912 26.8153 2.88358 26.8413 3.0086L27.876 7.9579C27.883 7.99305 27.8992 8.02462 27.9216 8.05064L26.4409 7.80131C26.3581 7.78359 26.2928 7.71897 26.2752 7.63537Z" fill="#FEC165"/>
<path d="M31.6382 21.5351C31.575 21.5913 31.5511 21.6805 31.5778 21.7613L33.152 26.5652C33.1913 26.6867 33.1168 26.8159 32.9918 26.8419L28.0425 27.8766C27.9589 27.8942 27.8936 27.9595 27.876 28.0431L26.8414 32.9924C26.8154 33.1174 26.6861 33.1919 26.5646 33.1525L25.0312 32.6502C25.072 32.62 25.1022 32.5758 25.1134 32.5217L26.2141 26.8068C26.2317 26.7232 26.2963 26.6579 26.3799 26.6403L30.7342 25.8163C30.8592 25.7903 30.9337 25.6611 30.8937 25.5403L29.4804 21.1543C29.4537 21.0736 29.4776 20.985 29.5408 20.9282L32.7776 18.1599C32.8724 18.0749 32.8724 17.9259 32.7776 17.841L29.4285 14.4806C29.3652 14.4238 29.3413 14.3352 29.3674 14.2544L31.0546 8.82891C31.0623 8.8043 31.0658 8.77977 31.0651 8.75586L32.9919 9.15903C33.1169 9.18505 33.1914 9.31428 33.1521 9.43578L31.5779 14.2397C31.5512 14.3205 31.5751 14.4097 31.6383 14.4659L35.4019 17.841C35.4968 17.926 35.4968 18.0749 35.4019 18.1599L31.6382 21.5351Z" fill="#FEC165"/>
<path d="M17.9999 28.9851C24.0671 28.9851 28.9855 24.0666 28.9855 17.9994C28.9855 11.9321 24.0671 7.01367 17.9999 7.01367C11.9326 7.01367 7.01416 11.9321 7.01416 17.9994C7.01416 24.0666 11.9326 28.9851 17.9999 28.9851Z" fill="#FDB441"/>
<path d="M28.986 18.0008C28.986 24.0684 24.0677 28.9867 18.0001 28.9867C16.7674 28.9867 15.5824 28.7837 14.4761 28.4086C15.1912 28.5554 15.9315 28.632 16.6901 28.632C22.7576 28.632 27.676 23.7136 27.676 17.6468C27.676 12.812 24.553 8.70704 20.2141 7.23828C25.2203 8.26238 28.986 12.6919 28.986 18.0008Z" fill="#FEA613"/>
<path d="M12.1696 20.806C13.0156 20.806 13.7015 20.1201 13.7015 19.2741C13.7015 18.428 13.0156 17.7422 12.1696 17.7422C11.3235 17.7422 10.6377 18.428 10.6377 19.2741C10.6377 20.1201 11.3235 20.806 12.1696 20.806Z" fill="#FB8801"/>
<path d="M23.831 20.806C24.677 20.806 25.3629 20.1201 25.3629 19.2741C25.3629 18.428 24.677 17.7422 23.831 17.7422C22.9849 17.7422 22.2991 18.428 22.2991 19.2741C22.2991 20.1201 22.9849 20.806 23.831 20.806Z" fill="#FB8801"/>
<path d="M9.19321 23.6453C9.03599 23.4005 8.71002 23.3296 8.46527 23.4868C8.22044 23.644 8.14949 23.9699 8.30671 24.2147C10.4379 27.5325 14.0614 29.5132 17.9998 29.5132C24.3478 29.5132 29.5123 24.3487 29.5123 18.0008C29.5123 11.6528 24.3478 6.48828 17.9998 6.48828C11.6518 6.48828 6.4873 11.6527 6.4873 18.0008C6.4873 19.3482 6.71807 20.6681 7.17313 21.9238C7.27234 22.1974 7.57434 22.3387 7.84792 22.2396C8.12144 22.1405 8.26284 21.8383 8.1637 21.5648C7.7504 20.4246 7.54087 19.2255 7.54087 18.0008C7.54087 12.2337 12.2327 7.54191 17.9997 7.54191C23.7668 7.54191 28.4586 12.2337 28.4586 18.0008C28.4586 23.7678 23.7669 28.4596 17.9998 28.4596C14.4218 28.4596 11.1296 26.6599 9.19321 23.6453Z" fill="black"/>
<path d="M35.7536 17.4481L32.1417 14.2096L33.6524 9.5992C33.718 9.39916 33.6952 9.17986 33.5898 8.99761C33.4845 8.81529 33.3058 8.68598 33.0998 8.64288L28.3502 7.64979L28.1948 6.90645C28.1352 6.62161 27.8556 6.43915 27.5714 6.49856C27.2865 6.55812 27.1039 6.83719 27.1634 7.12202L27.3608 8.06583C27.4212 8.35397 27.6465 8.57911 27.9345 8.6393L32.5425 9.60272L31.077 14.0752C30.9855 14.3543 31.0676 14.6615 31.2865 14.8579L34.7908 18L31.2865 21.1421C31.0676 21.3383 30.9854 21.6455 31.0769 21.9247L32.5424 26.3972L27.9344 27.3606C27.6461 27.4209 27.4209 27.6462 27.3606 27.9345L26.3971 32.5424L21.9247 31.0769C21.6455 30.9854 21.3381 31.0676 21.1421 31.2865L18 34.7908L14.8579 31.2865C14.6618 31.0677 14.3544 30.9855 14.0753 31.077L9.60279 32.5425L8.63937 27.9345C8.57911 27.6462 8.35383 27.4209 8.06555 27.3606L3.45762 26.3972L4.92307 21.9248C5.01462 21.6455 4.93235 21.3382 4.71354 21.1421L1.20916 18L4.71347 14.8579C4.93228 14.6618 5.01455 14.3546 4.923 14.0753L3.45755 9.60279L8.06548 8.63937C8.35383 8.57911 8.57911 8.35383 8.63937 8.06555L9.60279 3.45762L14.0752 4.92307C14.3547 5.01462 14.6618 4.93235 14.8579 4.71354L18 1.20916L21.1421 4.71361C21.3384 4.93242 21.6457 5.01469 21.9247 4.923L26.3973 3.45755L26.6637 4.73259C26.7233 5.01743 27.0031 5.20017 27.2872 5.14048C27.572 5.08092 27.7546 4.80178 27.6951 4.51702L27.3572 2.90039C27.3141 2.69423 27.1849 2.51564 27.0025 2.41024C26.8204 2.30491 26.601 2.28206 26.4009 2.34766L21.7904 3.85833L18.5519 0.246375C18.4115 0.0897891 18.2103 0 18 0C17.7897 0 17.5885 0.0897891 17.4481 0.246375L14.2096 3.85833L9.5992 2.34766C9.39923 2.28213 9.17986 2.30491 8.99761 2.41024C8.81529 2.51557 8.68605 2.69416 8.64288 2.90025L7.64986 7.64979L2.90025 8.64281C2.69416 8.68598 2.5155 8.81522 2.41017 8.99754C2.30484 9.17979 2.28206 9.39909 2.34759 9.59913L3.85826 14.2095L0.246305 17.4481C0.0897891 17.5885 0 17.7897 0 18C0 18.2103 0.0897891 18.4115 0.246375 18.5519L3.85833 21.7904L2.34766 26.4008C2.28206 26.6008 2.30491 26.8201 2.41024 27.0024C2.51557 27.1847 2.69416 27.3139 2.90032 27.3571L7.64986 28.3501L8.64288 33.0998C8.68605 33.3058 8.81529 33.4845 8.99761 33.5898C9.17993 33.6951 9.39916 33.7179 9.5992 33.6523L14.2096 32.1417L17.4482 35.7536C17.5886 35.9101 17.7897 35.9999 18 35.9999C18.2103 35.9999 18.4115 35.9101 18.5519 35.7536L21.7905 32.1416L26.4007 33.6523C26.6009 33.7178 26.8202 33.695 27.0025 33.5897C27.1847 33.4844 27.314 33.3057 27.357 33.0997L28.3502 28.3501L33.0998 27.357C33.3059 27.3139 33.4845 27.1846 33.5898 27.0024C33.6952 26.8201 33.718 26.6008 33.6524 26.4008L32.1418 21.7904L35.7536 18.552C35.9102 18.4115 36.0001 18.2104 36.0001 18C36.0001 17.7896 35.9101 17.5885 35.7536 17.4481Z" fill="black"/>
<path d="M14.7963 16.7453V15.4174C14.7963 15.1265 14.5604 14.8906 14.2695 14.8906C13.9786 14.8906 13.7427 15.1265 13.7427 15.4174V16.7453C13.7427 17.0363 13.9786 17.2721 14.2695 17.2721C14.5605 17.2721 14.7963 17.0363 14.7963 16.7453Z" fill="black"/>
<path d="M22.2572 16.7453V15.4174C22.2572 15.1265 22.0214 14.8906 21.7304 14.8906C21.4394 14.8906 21.2036 15.1265 21.2036 15.4174V16.7453C21.2036 17.0363 21.4394 17.2721 21.7304 17.2721C22.0213 17.2721 22.2572 17.0363 22.2572 16.7453Z" fill="black"/>
<path d="M17.9999 23.7641C19.3381 23.7641 20.5225 22.9119 20.9469 21.6435C21.0392 21.3676 20.8903 21.0691 20.6144 20.9768C20.3388 20.8844 20.04 21.0332 19.9477 21.3092C19.6672 22.1473 18.8844 22.7105 17.9998 22.7105C17.1151 22.7105 16.3323 22.1473 16.052 21.3091C15.9597 21.0332 15.6611 20.8843 15.3852 20.9765C15.1093 21.0689 14.9605 21.3673 15.0527 21.6433C15.4772 22.9118 16.6615 23.7641 17.9999 23.7641Z" fill="black"/>
</g>
<defs>
<clipPath id="clip0_1926_12803">
<rect width="36" height="36" fill="white"/>
</clipPath>
</defs>
</svg>
