<svg width="51" height="52" viewBox="0 0 51 52" fill="none" xmlns="http://www.w3.org/2000/svg">
<rect y="0.5" width="51" height="51" rx="25.5" fill="#FA9411"/>
<path d="M26.9414 12.4634C26.665 12.2027 26.2336 12.2012 25.9553 12.4599L21.7642 16.3564C21.4588 16.6403 21.4571 17.1233 21.7604 17.4094V17.4094C22.0361 17.6693 22.466 17.6716 22.7445 17.4146L23.6693 16.5609C24.0534 16.2064 24.6457 16.2075 25.0285 16.5634L25.6809 17.1699C25.8844 17.3591 26 17.6244 26 17.9023V20.6601C26 22.208 24.665 23.4492 23 23.4492V23.4492C22.6969 23.4492 22.5358 23.8201 22.725 24.057C23.8691 25.4889 24.4956 27.2299 24.5 29.0273C24.4996 29.0929 24.4983 29.1585 24.4962 29.2241C24.4764 29.8503 24.9446 30.4218 25.5712 30.4218H28.1581C28.6642 30.4218 29.0817 30.0403 29.2169 29.5525C29.5481 28.3581 30.2528 27.2739 31.252 26.4427C32.4889 25.4137 34.0902 24.8444 35.75 24.8437C36.4729 24.8441 37.187 24.9523 37.866 25.1611C38.6158 25.3917 39.5 24.8883 39.5 24.1038V19.2655C39.5 17.7176 38.165 16.4765 36.5 16.4765H27.458C27.2054 16.4765 26.9622 16.3809 26.7771 16.2089L26.2 15.6722C25.7755 15.2776 25.7743 14.606 26.1973 14.2099L26.9396 13.5149C27.2433 13.2305 27.2441 12.7489 26.9414 12.4634V12.4634ZM12.5 17.871C11.675 17.871 11 18.4985 11 19.2655C11 20.0325 11.675 20.6601 12.5 20.6601H19C19.5523 20.6601 20.0163 20.1969 19.8104 19.6844C19.6615 19.3137 19.4281 18.9731 19.1213 18.6879C18.5587 18.1649 17.7956 17.871 17 17.871H12.5ZM15.5 22.0546C14.9461 22.0547 14.3946 22.1119 13.8556 22.2247C13.4789 22.3035 13.2882 22.7112 13.4362 23.0665L13.5508 23.3418C13.6319 23.5366 13.5331 23.7596 13.3343 23.8304V23.8304C13.1457 23.8975 12.938 23.8018 12.8666 23.6147L12.7527 23.3163C12.6139 22.9527 12.2019 22.7711 11.8559 22.9492C10.786 23.4997 9.87723 24.2852 9.20889 25.2363C8.97732 25.5659 9.13386 26.0113 9.50537 26.1669L9.82822 26.3022C10.0158 26.3807 10.0976 26.6017 10.0063 26.7834V26.7834C9.92384 26.9478 9.72849 27.0206 9.55853 26.9504L9.2083 26.8057C8.82215 26.6461 8.37498 26.828 8.2586 27.2292C8.08884 27.8145 8.00161 28.419 8 29.0273C8.00013 29.5139 8.05505 29.9984 8.1634 30.4731C8.25667 30.8817 8.69589 31.0873 9.09026 30.9454L9.45608 30.8137C9.63171 30.7505 9.82598 30.8367 9.89708 31.0092V31.0092C9.97429 31.1967 9.87616 31.4102 9.68366 31.4737L9.35871 31.5809C8.97897 31.7062 8.79198 32.1369 9.00022 32.4783C9.60114 33.4634 10.4516 34.2982 11.4779 34.9095C11.8178 35.112 12.2473 34.9566 12.4163 34.599L12.5566 34.3024C12.6423 34.1211 12.8558 34.0398 13.0404 34.1181V34.1181C13.2363 34.2013 13.3233 34.4312 13.2315 34.6232L13.1082 34.8812C12.9431 35.2264 13.1119 35.641 13.4821 35.7381C14.1377 35.91 14.8165 35.9984 15.5 36C16.0539 35.9999 16.6054 35.9427 17.1444 35.83C17.5211 35.7512 17.7118 35.3434 17.5638 34.9881L17.4492 34.7128C17.3681 34.518 17.4669 34.295 17.6657 34.2242V34.2242C17.8543 34.1571 18.062 34.2529 18.1334 34.4399L18.2473 34.7384C18.3861 35.1019 18.7981 35.2835 19.1441 35.1055C20.2138 34.555 21.1225 33.7697 21.7908 32.8187C22.0219 32.4899 21.8637 32.0456 21.4916 31.8936L21.1778 31.7653C20.987 31.6873 20.9021 31.4641 20.993 31.2791V31.2791C21.0757 31.1107 21.2749 31.0354 21.4483 31.107L21.7947 31.2502C22.1792 31.409 22.6244 31.228 22.7405 30.8285C22.9109 30.2422 22.9984 29.6367 23 29.0273C22.9999 28.5407 22.945 28.0562 22.8366 27.5815C22.7433 27.1729 22.3041 26.9673 21.9097 27.1092L21.5439 27.2409C21.3683 27.3041 21.174 27.218 21.1029 27.0454V27.0454C21.0257 26.8579 21.1238 26.6444 21.3163 26.5809L21.6413 26.4737C22.021 26.3484 22.208 25.9177 21.9998 25.5763C21.3989 24.5912 20.5484 23.7564 19.5221 23.1451C19.1822 22.9426 18.7527 23.098 18.5837 23.4556L18.4434 23.7522C18.3577 23.9335 18.1442 24.0148 17.9596 23.9365V23.9365C17.7637 23.8533 17.6767 23.6234 17.7685 23.4314L17.8918 23.1734C18.0569 22.8282 17.8881 22.4136 17.5179 22.3166C16.8623 22.1446 16.1835 22.0562 15.5 22.0546ZM15.5 24.8437C16.6935 24.8437 17.8381 25.2845 18.682 26.069C19.5259 26.8536 20 27.9177 20 29.0273C20 30.1369 19.5259 31.201 18.682 31.9856C17.8381 32.7702 16.6935 33.2109 15.5 33.2109C14.3065 33.2109 13.1619 32.7702 12.318 31.9856C11.4741 31.201 11 30.1369 11 29.0273C11 27.9177 11.4741 26.8536 12.318 26.069C13.1619 25.2845 14.3065 24.8437 15.5 24.8437ZM35.75 26.2382C34.3576 26.2382 33.0223 26.7525 32.0377 27.6678C31.0531 28.5832 30.5 29.8246 30.5 31.1191C30.5 32.4136 31.0531 33.6551 32.0377 34.5704C33.0223 35.4858 34.3576 36 35.75 36C37.1424 36 38.4777 35.4858 39.4623 34.5704C40.4469 33.6551 41 32.4136 41 31.1191C41 29.8246 40.4469 28.5832 39.4623 27.6678C38.4777 26.7525 37.1424 26.2382 35.75 26.2382ZM35.75 29.0273C36.3467 29.0273 36.919 29.2477 37.341 29.64C37.7629 30.0323 38 30.5643 38 31.1191C38 31.6739 37.7629 32.206 37.341 32.5982C36.919 32.9905 36.3467 33.2109 35.75 33.2109C35.1533 33.2109 34.581 32.9905 34.159 32.5982C33.7371 32.206 33.5 31.6739 33.5 31.1191C33.5 30.5643 33.7371 30.0323 34.159 29.64C34.581 29.2477 35.1533 29.0273 35.75 29.0273Z" stroke="white"/>
</svg>
